M48
; DRILL file {KiCad (5.1.4-0-10_14)} date Friday, December 13, 2019 at 09:04:16 AM
; FORMAT={-:-/ absolute / metric / decimal}
; #@! TF.CreationDate,2019-12-13T09:04:16-05:00
; #@! TF.GenerationSoftware,Kicad,Pcbnew,(5.1.4-0-10_14)
FMAT,2
METRIC
T1C0.400
T2C0.700
T3C0.800
T4C1.000
T5C1.300
T6C2.000
T7C2.700
T8C4.450
T9C3.000
T10C4.300
%
G90
G05
T1
X1.66Y13.6
X2.36Y-12.79
X2.43Y-22.46
X3.56Y-11.98
X3.57Y-21.19
X4.81Y-10.69
X4.82Y-20.06
X6.16Y-13.03
X6.17Y-22.73
X7.37Y-19.9
X7.41Y-11.08
X13.95Y6.99
X34.7Y13.77
T2
X68.9Y-38.15
X71.44Y-38.15
X-45.54Y-13.75
X-43.0Y-13.75
X69.0Y5.8
X71.54Y5.8
X68.933Y-52.357
X68.933Y-54.897
X-45.57Y-16.45
X-43.03Y-16.45
X32.222Y-12.22
X32.222Y-14.76
X69.0Y-10.2
X71.54Y-10.2
T3
X-1.514Y-15.872
X45.4Y-12.0
X-5.9Y3.7
X-1.43Y6.18
X-1.43Y3.68
X-5.9Y6.2
X51.648Y-27.544
X-6.076Y-36.413
X-5.9Y-13.372
X-5.9Y-15.872
X-6.076Y-33.913
X51.648Y-25.044
X-39.02Y-13.89
X-39.02Y-16.39
X-1.514Y-13.372
X51.651Y-14.493
X51.651Y-16.993
X45.4Y-14.5
X-1.699Y-33.913
X-1.699Y-36.413
X-1.402Y-51.996
X-6.05Y-52.026
X-1.402Y-54.496
X-6.05Y-54.526
T4
X16.0Y-1.3
X16.0Y-3.84
X18.54Y-1.3
X18.54Y-3.84
X21.08Y-1.3
X21.08Y-3.84
X23.62Y-1.3
X23.62Y-3.84
X26.16Y-1.3
X26.16Y-3.84
X28.7Y-1.3
X28.7Y-3.84
X31.24Y-1.3
X31.24Y-3.84
X33.78Y-3.84
X36.32Y-1.3
X36.32Y-3.84
X38.86Y-1.3
X38.86Y-3.84
X41.4Y-1.3
X43.94Y-1.3
X43.94Y-3.84
X46.48Y-1.3
X46.48Y-3.84
X49.02Y-1.3
X49.02Y-3.84
X51.56Y-1.3
X51.56Y-3.84
X54.1Y-1.3
X54.1Y-3.84
X16.14Y-44.87
X33.78Y-1.3
X16.14Y-47.41
X18.68Y-44.87
X18.68Y-47.41
X21.22Y-47.41
X23.76Y-44.87
X23.76Y-47.41
X26.3Y-44.87
X26.3Y-47.41
X28.84Y-44.87
X28.84Y-47.41
X31.38Y-44.87
X31.38Y-47.41
X33.92Y-44.87
X33.92Y-47.41
X36.46Y-44.87
X36.46Y-47.41
X39.0Y-44.87
X39.0Y-47.41
X41.54Y-44.87
X41.54Y-47.41
X44.08Y-44.87
X44.08Y-47.41
X46.62Y-44.87
X46.62Y-47.41
X49.16Y-44.87
X49.16Y-47.41
X51.7Y-44.87
X51.7Y-47.41
X54.24Y-44.87
X54.24Y-47.41
X56.78Y-44.87
X56.78Y-47.41
X59.32Y-44.87
X59.32Y-47.41
X61.86Y-44.87
X61.86Y-47.41
X64.4Y-44.87
X64.4Y-47.41
X-30.0Y-8.653
X-30.0Y-11.194
X-30.0Y-19.653
X-30.0Y-22.194
X56.64Y-1.3
X21.22Y-44.87
X-11.0Y-8.653
X41.4Y-3.84
X-11.0Y-11.194
X-11.0Y-19.653
X-11.0Y-22.194
X-30.0Y10.75
X-30.0Y8.21
X-30.0Y-0.25
X56.64Y-3.84
X59.18Y-1.3
X59.18Y-3.84
X61.72Y-1.3
X61.72Y-3.84
X64.26Y-1.3
X64.26Y-3.84
X3.674Y-37.879
X3.674Y-40.419
X-30.0Y-27.7
X-30.0Y-30.24
X-30.0Y-38.7
X-30.0Y-41.24
X-11.0Y-27.7
X54.12Y6.5
X59.2Y6.5
X-11.0Y-38.7
X-11.0Y-41.24
X41.501Y-40.619
X46.5Y6.5
X-11.0Y-30.24
X-30.0Y-46.6
X-30.0Y-49.14
X-30.0Y-57.6
X-30.0Y-60.14
X-11.0Y-46.6
X-11.0Y-49.14
X-11.0Y-57.6
X-11.0Y-60.14
X49.04Y6.5
X51.58Y6.5
X56.66Y6.5
X28.801Y-40.619
X31.341Y-40.619
X33.881Y-40.619
X36.421Y-40.619
X38.961Y-40.619
X-36.76Y-48.24
X-36.76Y-60.24
X-30.0Y-2.79
X31.55Y-35.15
X34.09Y-35.15
X36.63Y-35.15
X39.17Y-35.15
X41.71Y-35.15
X44.25Y-35.15
X46.86Y-40.6
X49.4Y-40.6
X51.94Y-40.6
X54.48Y-40.6
X57.02Y-40.6
X59.56Y-40.6
X-11.0Y10.75
X-11.0Y8.21
X-11.0Y-0.25
X-11.0Y-2.79
X14.39Y2.16
X16.93Y2.16
X19.47Y2.16
X22.01Y2.16
X24.55Y2.16
X27.09Y2.16
X29.63Y2.16
X32.17Y2.16
X34.71Y2.16
X37.25Y2.16
X29.0Y-22.5
X29.0Y-25.04
X29.0Y-27.58
X29.0Y-30.78
X31.5Y-30.78
X31.54Y-22.5
X31.54Y-25.04
X31.54Y-27.58
X34.0Y-30.78
X34.08Y-22.5
X34.08Y-25.04
X34.08Y-27.58
X36.62Y-22.5
X36.62Y-25.04
X36.62Y-27.58
X39.16Y-22.5
X39.16Y-25.04
X39.16Y-27.58
X41.7Y-22.5
X41.7Y-25.04
X41.7Y-27.58
X41.7Y-30.78
X44.24Y-22.5
X44.24Y-25.04
X44.24Y-27.58
X44.24Y-30.78
X46.78Y-22.5
X46.78Y-25.04
X46.78Y-27.58
X46.78Y-30.78
T5
X78.3Y10.9
X-56.0Y8.86
X-56.0Y3.78
X-56.0Y-1.3
X78.3Y5.82
X78.3Y0.74
X-56.0Y-8.92
X-56.0Y-14.0
X-56.0Y-19.08
X78.35Y-5.1
X49.79Y-56.0
X54.87Y-56.0
X59.95Y-56.0
X78.1Y-38.93
X78.1Y-44.01
X78.35Y-10.18
X78.35Y-15.26
X78.15Y-49.85
X78.15Y-54.93
X78.15Y-60.01
X33.29Y-56.15
X38.37Y-56.15
X43.45Y-56.15
X78.1Y-33.85
X16.92Y-56.2
X22.0Y-56.2
X27.08Y-56.2
T6
X-53.09Y-27.03
X-53.09Y-40.03
T7
X-47.59Y-30.03
X-47.59Y-37.03
T8
X-38.99Y-31.07
X-38.99Y-38.07
T9
X-53.66Y-48.24
X-53.66Y-60.24
T10
X64.49Y4.07
X76.4Y-24.6
X-43.9Y-52.8
X-42.598Y9.395
X7.742Y-45.804
X13.96Y-20.61
X60.2Y-25.4
T9
G00X-52.56Y-56.74
M15
G01X-52.56Y-51.74
M16
G05
T0
M30
