G04 #@! TF.GenerationSoftware,KiCad,Pcbnew,(5.1.4-0-10_14)*
G04 #@! TF.CreationDate,2019-12-13T09:04:00-05:00*
G04 #@! TF.ProjectId,Robot,526f626f-742e-46b6-9963-61645f706362,rev?*
G04 #@! TF.SameCoordinates,Original*
G04 #@! TF.FileFunction,Copper,L1,Top*
G04 #@! TF.FilePolarity,Positive*
%FSLAX46Y46*%
G04 Gerber Fmt 4.6, Leading zero omitted, Abs format (unit mm)*
G04 Created by KiCad (PCBNEW (5.1.4-0-10_14)) date 2019-12-13 09:04:00*
%MOMM*%
%LPD*%
G04 APERTURE LIST*
%ADD10O,1.700000X1.700000*%
%ADD11R,1.700000X1.700000*%
%ADD12C,6.400000*%
%ADD13C,2.500000*%
%ADD14C,4.500000*%
%ADD15R,10.800000X9.400000*%
%ADD16R,1.100000X4.600000*%
%ADD17O,1.400000X1.400000*%
%ADD18C,1.400000*%
%ADD19C,1.600000*%
%ADD20R,1.600000X1.600000*%
%ADD21C,0.100000*%
%ADD22C,0.600000*%
%ADD23R,0.450000X1.450000*%
%ADD24C,1.700000*%
%ADD25C,2.600000*%
%ADD26R,2.600000X2.600000*%
%ADD27C,0.800000*%
%ADD28C,1.700000*%
%ADD29C,0.450000*%
%ADD30C,0.600000*%
%ADD31C,1.000000*%
%ADD32C,4.000000*%
%ADD33C,2.600000*%
G04 APERTURE END LIST*
D10*
X46860000Y-40600000D03*
X49400000Y-40600000D03*
X51940000Y-40600000D03*
X54480000Y-40600000D03*
X57020000Y-40600000D03*
D11*
X59560000Y-40600000D03*
X3674000Y-37879000D03*
D10*
X3674000Y-40419000D03*
D11*
X-36760000Y-60240000D03*
X-36760000Y-48240000D03*
D12*
X-38990000Y-38070000D03*
X-38990000Y-31070000D03*
D13*
X-53090000Y-40030000D03*
X-53090000Y-27030000D03*
D14*
X-47590000Y-37030000D03*
X-47590000Y-30030000D03*
D15*
X-42985000Y455000D03*
D16*
X-40445000Y-8695000D03*
X-42985000Y-8695000D03*
X-45525000Y-8695000D03*
D17*
X-45540000Y-13750000D03*
D18*
X-43000000Y-13750000D03*
D17*
X-43030000Y-16450000D03*
D18*
X-45570000Y-16450000D03*
D19*
X-39020000Y-16390000D03*
D20*
X-39020000Y-13890000D03*
D10*
X16140000Y-47410000D03*
X16140000Y-44870000D03*
X18680000Y-47410000D03*
X18680000Y-44870000D03*
X21220000Y-47410000D03*
X21220000Y-44870000D03*
X23760000Y-47410000D03*
X23760000Y-44870000D03*
X26300000Y-47410000D03*
X26300000Y-44870000D03*
X28840000Y-47410000D03*
X28840000Y-44870000D03*
X31380000Y-47410000D03*
X31380000Y-44870000D03*
X33920000Y-47410000D03*
X33920000Y-44870000D03*
X36460000Y-47410000D03*
X36460000Y-44870000D03*
X39000000Y-47410000D03*
X39000000Y-44870000D03*
X41540000Y-47410000D03*
X41540000Y-44870000D03*
X44080000Y-47410000D03*
X44080000Y-44870000D03*
X46620000Y-47410000D03*
X46620000Y-44870000D03*
X49160000Y-47410000D03*
X49160000Y-44870000D03*
X51700000Y-47410000D03*
X51700000Y-44870000D03*
X54240000Y-47410000D03*
X54240000Y-44870000D03*
X56780000Y-47410000D03*
X56780000Y-44870000D03*
X59320000Y-47410000D03*
X59320000Y-44870000D03*
X61860000Y-47410000D03*
X61860000Y-44870000D03*
X64400000Y-47410000D03*
D11*
X64400000Y-44870000D03*
D10*
X64260000Y-1300000D03*
X64260000Y-3840000D03*
X61720000Y-1300000D03*
X61720000Y-3840000D03*
X59180000Y-1300000D03*
X59180000Y-3840000D03*
X56640000Y-1300000D03*
X56640000Y-3840000D03*
X54100000Y-1300000D03*
X54100000Y-3840000D03*
X51560000Y-1300000D03*
X51560000Y-3840000D03*
X49020000Y-1300000D03*
X49020000Y-3840000D03*
X46480000Y-1300000D03*
X46480000Y-3840000D03*
X43940000Y-1300000D03*
X43940000Y-3840000D03*
X41400000Y-1300000D03*
X41400000Y-3840000D03*
X38860000Y-1300000D03*
X38860000Y-3840000D03*
X36320000Y-1300000D03*
X36320000Y-3840000D03*
X33780000Y-1300000D03*
X33780000Y-3840000D03*
X31240000Y-1300000D03*
X31240000Y-3840000D03*
X28700000Y-1300000D03*
X28700000Y-3840000D03*
X26160000Y-1300000D03*
X26160000Y-3840000D03*
X23620000Y-1300000D03*
X23620000Y-3840000D03*
X21080000Y-1300000D03*
X21080000Y-3840000D03*
X18540000Y-1300000D03*
X18540000Y-3840000D03*
X16000000Y-1300000D03*
D11*
X16000000Y-3840000D03*
D19*
X-5900000Y6200000D03*
D20*
X-5900000Y3700000D03*
D21*
G36*
X1464703Y8264278D02*
G01*
X1479264Y8262118D01*
X1493543Y8258541D01*
X1507403Y8253582D01*
X1520710Y8247288D01*
X1533336Y8239720D01*
X1545159Y8230952D01*
X1556066Y8221066D01*
X1565952Y8210159D01*
X1574720Y8198336D01*
X1582288Y8185710D01*
X1588582Y8172403D01*
X1593541Y8158543D01*
X1597118Y8144264D01*
X1599278Y8129703D01*
X1600000Y8115000D01*
X1600000Y6365000D01*
X1599278Y6350297D01*
X1597118Y6335736D01*
X1593541Y6321457D01*
X1588582Y6307597D01*
X1582288Y6294290D01*
X1574720Y6281664D01*
X1565952Y6269841D01*
X1556066Y6258934D01*
X1545159Y6249048D01*
X1533336Y6240280D01*
X1520710Y6232712D01*
X1507403Y6226418D01*
X1493543Y6221459D01*
X1479264Y6217882D01*
X1464703Y6215722D01*
X1450000Y6215000D01*
X1150000Y6215000D01*
X1135297Y6215722D01*
X1120736Y6217882D01*
X1106457Y6221459D01*
X1092597Y6226418D01*
X1079290Y6232712D01*
X1066664Y6240280D01*
X1054841Y6249048D01*
X1043934Y6258934D01*
X1034048Y6269841D01*
X1025280Y6281664D01*
X1017712Y6294290D01*
X1011418Y6307597D01*
X1006459Y6321457D01*
X1002882Y6335736D01*
X1000722Y6350297D01*
X1000000Y6365000D01*
X1000000Y8115000D01*
X1000722Y8129703D01*
X1002882Y8144264D01*
X1006459Y8158543D01*
X1011418Y8172403D01*
X1017712Y8185710D01*
X1025280Y8198336D01*
X1034048Y8210159D01*
X1043934Y8221066D01*
X1054841Y8230952D01*
X1066664Y8239720D01*
X1079290Y8247288D01*
X1092597Y8253582D01*
X1106457Y8258541D01*
X1120736Y8262118D01*
X1135297Y8264278D01*
X1150000Y8265000D01*
X1450000Y8265000D01*
X1464703Y8264278D01*
X1464703Y8264278D01*
G37*
D22*
X1300000Y7240000D03*
D21*
G36*
X2734703Y8264278D02*
G01*
X2749264Y8262118D01*
X2763543Y8258541D01*
X2777403Y8253582D01*
X2790710Y8247288D01*
X2803336Y8239720D01*
X2815159Y8230952D01*
X2826066Y8221066D01*
X2835952Y8210159D01*
X2844720Y8198336D01*
X2852288Y8185710D01*
X2858582Y8172403D01*
X2863541Y8158543D01*
X2867118Y8144264D01*
X2869278Y8129703D01*
X2870000Y8115000D01*
X2870000Y6365000D01*
X2869278Y6350297D01*
X2867118Y6335736D01*
X2863541Y6321457D01*
X2858582Y6307597D01*
X2852288Y6294290D01*
X2844720Y6281664D01*
X2835952Y6269841D01*
X2826066Y6258934D01*
X2815159Y6249048D01*
X2803336Y6240280D01*
X2790710Y6232712D01*
X2777403Y6226418D01*
X2763543Y6221459D01*
X2749264Y6217882D01*
X2734703Y6215722D01*
X2720000Y6215000D01*
X2420000Y6215000D01*
X2405297Y6215722D01*
X2390736Y6217882D01*
X2376457Y6221459D01*
X2362597Y6226418D01*
X2349290Y6232712D01*
X2336664Y6240280D01*
X2324841Y6249048D01*
X2313934Y6258934D01*
X2304048Y6269841D01*
X2295280Y6281664D01*
X2287712Y6294290D01*
X2281418Y6307597D01*
X2276459Y6321457D01*
X2272882Y6335736D01*
X2270722Y6350297D01*
X2270000Y6365000D01*
X2270000Y8115000D01*
X2270722Y8129703D01*
X2272882Y8144264D01*
X2276459Y8158543D01*
X2281418Y8172403D01*
X2287712Y8185710D01*
X2295280Y8198336D01*
X2304048Y8210159D01*
X2313934Y8221066D01*
X2324841Y8230952D01*
X2336664Y8239720D01*
X2349290Y8247288D01*
X2362597Y8253582D01*
X2376457Y8258541D01*
X2390736Y8262118D01*
X2405297Y8264278D01*
X2420000Y8265000D01*
X2720000Y8265000D01*
X2734703Y8264278D01*
X2734703Y8264278D01*
G37*
D22*
X2570000Y7240000D03*
D21*
G36*
X4004703Y8264278D02*
G01*
X4019264Y8262118D01*
X4033543Y8258541D01*
X4047403Y8253582D01*
X4060710Y8247288D01*
X4073336Y8239720D01*
X4085159Y8230952D01*
X4096066Y8221066D01*
X4105952Y8210159D01*
X4114720Y8198336D01*
X4122288Y8185710D01*
X4128582Y8172403D01*
X4133541Y8158543D01*
X4137118Y8144264D01*
X4139278Y8129703D01*
X4140000Y8115000D01*
X4140000Y6365000D01*
X4139278Y6350297D01*
X4137118Y6335736D01*
X4133541Y6321457D01*
X4128582Y6307597D01*
X4122288Y6294290D01*
X4114720Y6281664D01*
X4105952Y6269841D01*
X4096066Y6258934D01*
X4085159Y6249048D01*
X4073336Y6240280D01*
X4060710Y6232712D01*
X4047403Y6226418D01*
X4033543Y6221459D01*
X4019264Y6217882D01*
X4004703Y6215722D01*
X3990000Y6215000D01*
X3690000Y6215000D01*
X3675297Y6215722D01*
X3660736Y6217882D01*
X3646457Y6221459D01*
X3632597Y6226418D01*
X3619290Y6232712D01*
X3606664Y6240280D01*
X3594841Y6249048D01*
X3583934Y6258934D01*
X3574048Y6269841D01*
X3565280Y6281664D01*
X3557712Y6294290D01*
X3551418Y6307597D01*
X3546459Y6321457D01*
X3542882Y6335736D01*
X3540722Y6350297D01*
X3540000Y6365000D01*
X3540000Y8115000D01*
X3540722Y8129703D01*
X3542882Y8144264D01*
X3546459Y8158543D01*
X3551418Y8172403D01*
X3557712Y8185710D01*
X3565280Y8198336D01*
X3574048Y8210159D01*
X3583934Y8221066D01*
X3594841Y8230952D01*
X3606664Y8239720D01*
X3619290Y8247288D01*
X3632597Y8253582D01*
X3646457Y8258541D01*
X3660736Y8262118D01*
X3675297Y8264278D01*
X3690000Y8265000D01*
X3990000Y8265000D01*
X4004703Y8264278D01*
X4004703Y8264278D01*
G37*
D22*
X3840000Y7240000D03*
D21*
G36*
X5274703Y8264278D02*
G01*
X5289264Y8262118D01*
X5303543Y8258541D01*
X5317403Y8253582D01*
X5330710Y8247288D01*
X5343336Y8239720D01*
X5355159Y8230952D01*
X5366066Y8221066D01*
X5375952Y8210159D01*
X5384720Y8198336D01*
X5392288Y8185710D01*
X5398582Y8172403D01*
X5403541Y8158543D01*
X5407118Y8144264D01*
X5409278Y8129703D01*
X5410000Y8115000D01*
X5410000Y6365000D01*
X5409278Y6350297D01*
X5407118Y6335736D01*
X5403541Y6321457D01*
X5398582Y6307597D01*
X5392288Y6294290D01*
X5384720Y6281664D01*
X5375952Y6269841D01*
X5366066Y6258934D01*
X5355159Y6249048D01*
X5343336Y6240280D01*
X5330710Y6232712D01*
X5317403Y6226418D01*
X5303543Y6221459D01*
X5289264Y6217882D01*
X5274703Y6215722D01*
X5260000Y6215000D01*
X4960000Y6215000D01*
X4945297Y6215722D01*
X4930736Y6217882D01*
X4916457Y6221459D01*
X4902597Y6226418D01*
X4889290Y6232712D01*
X4876664Y6240280D01*
X4864841Y6249048D01*
X4853934Y6258934D01*
X4844048Y6269841D01*
X4835280Y6281664D01*
X4827712Y6294290D01*
X4821418Y6307597D01*
X4816459Y6321457D01*
X4812882Y6335736D01*
X4810722Y6350297D01*
X4810000Y6365000D01*
X4810000Y8115000D01*
X4810722Y8129703D01*
X4812882Y8144264D01*
X4816459Y8158543D01*
X4821418Y8172403D01*
X4827712Y8185710D01*
X4835280Y8198336D01*
X4844048Y8210159D01*
X4853934Y8221066D01*
X4864841Y8230952D01*
X4876664Y8239720D01*
X4889290Y8247288D01*
X4902597Y8253582D01*
X4916457Y8258541D01*
X4930736Y8262118D01*
X4945297Y8264278D01*
X4960000Y8265000D01*
X5260000Y8265000D01*
X5274703Y8264278D01*
X5274703Y8264278D01*
G37*
D22*
X5110000Y7240000D03*
D21*
G36*
X6544703Y8264278D02*
G01*
X6559264Y8262118D01*
X6573543Y8258541D01*
X6587403Y8253582D01*
X6600710Y8247288D01*
X6613336Y8239720D01*
X6625159Y8230952D01*
X6636066Y8221066D01*
X6645952Y8210159D01*
X6654720Y8198336D01*
X6662288Y8185710D01*
X6668582Y8172403D01*
X6673541Y8158543D01*
X6677118Y8144264D01*
X6679278Y8129703D01*
X6680000Y8115000D01*
X6680000Y6365000D01*
X6679278Y6350297D01*
X6677118Y6335736D01*
X6673541Y6321457D01*
X6668582Y6307597D01*
X6662288Y6294290D01*
X6654720Y6281664D01*
X6645952Y6269841D01*
X6636066Y6258934D01*
X6625159Y6249048D01*
X6613336Y6240280D01*
X6600710Y6232712D01*
X6587403Y6226418D01*
X6573543Y6221459D01*
X6559264Y6217882D01*
X6544703Y6215722D01*
X6530000Y6215000D01*
X6230000Y6215000D01*
X6215297Y6215722D01*
X6200736Y6217882D01*
X6186457Y6221459D01*
X6172597Y6226418D01*
X6159290Y6232712D01*
X6146664Y6240280D01*
X6134841Y6249048D01*
X6123934Y6258934D01*
X6114048Y6269841D01*
X6105280Y6281664D01*
X6097712Y6294290D01*
X6091418Y6307597D01*
X6086459Y6321457D01*
X6082882Y6335736D01*
X6080722Y6350297D01*
X6080000Y6365000D01*
X6080000Y8115000D01*
X6080722Y8129703D01*
X6082882Y8144264D01*
X6086459Y8158543D01*
X6091418Y8172403D01*
X6097712Y8185710D01*
X6105280Y8198336D01*
X6114048Y8210159D01*
X6123934Y8221066D01*
X6134841Y8230952D01*
X6146664Y8239720D01*
X6159290Y8247288D01*
X6172597Y8253582D01*
X6186457Y8258541D01*
X6200736Y8262118D01*
X6215297Y8264278D01*
X6230000Y8265000D01*
X6530000Y8265000D01*
X6544703Y8264278D01*
X6544703Y8264278D01*
G37*
D22*
X6380000Y7240000D03*
D21*
G36*
X7814703Y8264278D02*
G01*
X7829264Y8262118D01*
X7843543Y8258541D01*
X7857403Y8253582D01*
X7870710Y8247288D01*
X7883336Y8239720D01*
X7895159Y8230952D01*
X7906066Y8221066D01*
X7915952Y8210159D01*
X7924720Y8198336D01*
X7932288Y8185710D01*
X7938582Y8172403D01*
X7943541Y8158543D01*
X7947118Y8144264D01*
X7949278Y8129703D01*
X7950000Y8115000D01*
X7950000Y6365000D01*
X7949278Y6350297D01*
X7947118Y6335736D01*
X7943541Y6321457D01*
X7938582Y6307597D01*
X7932288Y6294290D01*
X7924720Y6281664D01*
X7915952Y6269841D01*
X7906066Y6258934D01*
X7895159Y6249048D01*
X7883336Y6240280D01*
X7870710Y6232712D01*
X7857403Y6226418D01*
X7843543Y6221459D01*
X7829264Y6217882D01*
X7814703Y6215722D01*
X7800000Y6215000D01*
X7500000Y6215000D01*
X7485297Y6215722D01*
X7470736Y6217882D01*
X7456457Y6221459D01*
X7442597Y6226418D01*
X7429290Y6232712D01*
X7416664Y6240280D01*
X7404841Y6249048D01*
X7393934Y6258934D01*
X7384048Y6269841D01*
X7375280Y6281664D01*
X7367712Y6294290D01*
X7361418Y6307597D01*
X7356459Y6321457D01*
X7352882Y6335736D01*
X7350722Y6350297D01*
X7350000Y6365000D01*
X7350000Y8115000D01*
X7350722Y8129703D01*
X7352882Y8144264D01*
X7356459Y8158543D01*
X7361418Y8172403D01*
X7367712Y8185710D01*
X7375280Y8198336D01*
X7384048Y8210159D01*
X7393934Y8221066D01*
X7404841Y8230952D01*
X7416664Y8239720D01*
X7429290Y8247288D01*
X7442597Y8253582D01*
X7456457Y8258541D01*
X7470736Y8262118D01*
X7485297Y8264278D01*
X7500000Y8265000D01*
X7800000Y8265000D01*
X7814703Y8264278D01*
X7814703Y8264278D01*
G37*
D22*
X7650000Y7240000D03*
D21*
G36*
X9084703Y8264278D02*
G01*
X9099264Y8262118D01*
X9113543Y8258541D01*
X9127403Y8253582D01*
X9140710Y8247288D01*
X9153336Y8239720D01*
X9165159Y8230952D01*
X9176066Y8221066D01*
X9185952Y8210159D01*
X9194720Y8198336D01*
X9202288Y8185710D01*
X9208582Y8172403D01*
X9213541Y8158543D01*
X9217118Y8144264D01*
X9219278Y8129703D01*
X9220000Y8115000D01*
X9220000Y6365000D01*
X9219278Y6350297D01*
X9217118Y6335736D01*
X9213541Y6321457D01*
X9208582Y6307597D01*
X9202288Y6294290D01*
X9194720Y6281664D01*
X9185952Y6269841D01*
X9176066Y6258934D01*
X9165159Y6249048D01*
X9153336Y6240280D01*
X9140710Y6232712D01*
X9127403Y6226418D01*
X9113543Y6221459D01*
X9099264Y6217882D01*
X9084703Y6215722D01*
X9070000Y6215000D01*
X8770000Y6215000D01*
X8755297Y6215722D01*
X8740736Y6217882D01*
X8726457Y6221459D01*
X8712597Y6226418D01*
X8699290Y6232712D01*
X8686664Y6240280D01*
X8674841Y6249048D01*
X8663934Y6258934D01*
X8654048Y6269841D01*
X8645280Y6281664D01*
X8637712Y6294290D01*
X8631418Y6307597D01*
X8626459Y6321457D01*
X8622882Y6335736D01*
X8620722Y6350297D01*
X8620000Y6365000D01*
X8620000Y8115000D01*
X8620722Y8129703D01*
X8622882Y8144264D01*
X8626459Y8158543D01*
X8631418Y8172403D01*
X8637712Y8185710D01*
X8645280Y8198336D01*
X8654048Y8210159D01*
X8663934Y8221066D01*
X8674841Y8230952D01*
X8686664Y8239720D01*
X8699290Y8247288D01*
X8712597Y8253582D01*
X8726457Y8258541D01*
X8740736Y8262118D01*
X8755297Y8264278D01*
X8770000Y8265000D01*
X9070000Y8265000D01*
X9084703Y8264278D01*
X9084703Y8264278D01*
G37*
D22*
X8920000Y7240000D03*
D21*
G36*
X10354703Y8264278D02*
G01*
X10369264Y8262118D01*
X10383543Y8258541D01*
X10397403Y8253582D01*
X10410710Y8247288D01*
X10423336Y8239720D01*
X10435159Y8230952D01*
X10446066Y8221066D01*
X10455952Y8210159D01*
X10464720Y8198336D01*
X10472288Y8185710D01*
X10478582Y8172403D01*
X10483541Y8158543D01*
X10487118Y8144264D01*
X10489278Y8129703D01*
X10490000Y8115000D01*
X10490000Y6365000D01*
X10489278Y6350297D01*
X10487118Y6335736D01*
X10483541Y6321457D01*
X10478582Y6307597D01*
X10472288Y6294290D01*
X10464720Y6281664D01*
X10455952Y6269841D01*
X10446066Y6258934D01*
X10435159Y6249048D01*
X10423336Y6240280D01*
X10410710Y6232712D01*
X10397403Y6226418D01*
X10383543Y6221459D01*
X10369264Y6217882D01*
X10354703Y6215722D01*
X10340000Y6215000D01*
X10040000Y6215000D01*
X10025297Y6215722D01*
X10010736Y6217882D01*
X9996457Y6221459D01*
X9982597Y6226418D01*
X9969290Y6232712D01*
X9956664Y6240280D01*
X9944841Y6249048D01*
X9933934Y6258934D01*
X9924048Y6269841D01*
X9915280Y6281664D01*
X9907712Y6294290D01*
X9901418Y6307597D01*
X9896459Y6321457D01*
X9892882Y6335736D01*
X9890722Y6350297D01*
X9890000Y6365000D01*
X9890000Y8115000D01*
X9890722Y8129703D01*
X9892882Y8144264D01*
X9896459Y8158543D01*
X9901418Y8172403D01*
X9907712Y8185710D01*
X9915280Y8198336D01*
X9924048Y8210159D01*
X9933934Y8221066D01*
X9944841Y8230952D01*
X9956664Y8239720D01*
X9969290Y8247288D01*
X9982597Y8253582D01*
X9996457Y8258541D01*
X10010736Y8262118D01*
X10025297Y8264278D01*
X10040000Y8265000D01*
X10340000Y8265000D01*
X10354703Y8264278D01*
X10354703Y8264278D01*
G37*
D22*
X10190000Y7240000D03*
D21*
G36*
X11624703Y8264278D02*
G01*
X11639264Y8262118D01*
X11653543Y8258541D01*
X11667403Y8253582D01*
X11680710Y8247288D01*
X11693336Y8239720D01*
X11705159Y8230952D01*
X11716066Y8221066D01*
X11725952Y8210159D01*
X11734720Y8198336D01*
X11742288Y8185710D01*
X11748582Y8172403D01*
X11753541Y8158543D01*
X11757118Y8144264D01*
X11759278Y8129703D01*
X11760000Y8115000D01*
X11760000Y6365000D01*
X11759278Y6350297D01*
X11757118Y6335736D01*
X11753541Y6321457D01*
X11748582Y6307597D01*
X11742288Y6294290D01*
X11734720Y6281664D01*
X11725952Y6269841D01*
X11716066Y6258934D01*
X11705159Y6249048D01*
X11693336Y6240280D01*
X11680710Y6232712D01*
X11667403Y6226418D01*
X11653543Y6221459D01*
X11639264Y6217882D01*
X11624703Y6215722D01*
X11610000Y6215000D01*
X11310000Y6215000D01*
X11295297Y6215722D01*
X11280736Y6217882D01*
X11266457Y6221459D01*
X11252597Y6226418D01*
X11239290Y6232712D01*
X11226664Y6240280D01*
X11214841Y6249048D01*
X11203934Y6258934D01*
X11194048Y6269841D01*
X11185280Y6281664D01*
X11177712Y6294290D01*
X11171418Y6307597D01*
X11166459Y6321457D01*
X11162882Y6335736D01*
X11160722Y6350297D01*
X11160000Y6365000D01*
X11160000Y8115000D01*
X11160722Y8129703D01*
X11162882Y8144264D01*
X11166459Y8158543D01*
X11171418Y8172403D01*
X11177712Y8185710D01*
X11185280Y8198336D01*
X11194048Y8210159D01*
X11203934Y8221066D01*
X11214841Y8230952D01*
X11226664Y8239720D01*
X11239290Y8247288D01*
X11252597Y8253582D01*
X11266457Y8258541D01*
X11280736Y8262118D01*
X11295297Y8264278D01*
X11310000Y8265000D01*
X11610000Y8265000D01*
X11624703Y8264278D01*
X11624703Y8264278D01*
G37*
D22*
X11460000Y7240000D03*
D21*
G36*
X11624703Y-1035722D02*
G01*
X11639264Y-1037882D01*
X11653543Y-1041459D01*
X11667403Y-1046418D01*
X11680710Y-1052712D01*
X11693336Y-1060280D01*
X11705159Y-1069048D01*
X11716066Y-1078934D01*
X11725952Y-1089841D01*
X11734720Y-1101664D01*
X11742288Y-1114290D01*
X11748582Y-1127597D01*
X11753541Y-1141457D01*
X11757118Y-1155736D01*
X11759278Y-1170297D01*
X11760000Y-1185000D01*
X11760000Y-2935000D01*
X11759278Y-2949703D01*
X11757118Y-2964264D01*
X11753541Y-2978543D01*
X11748582Y-2992403D01*
X11742288Y-3005710D01*
X11734720Y-3018336D01*
X11725952Y-3030159D01*
X11716066Y-3041066D01*
X11705159Y-3050952D01*
X11693336Y-3059720D01*
X11680710Y-3067288D01*
X11667403Y-3073582D01*
X11653543Y-3078541D01*
X11639264Y-3082118D01*
X11624703Y-3084278D01*
X11610000Y-3085000D01*
X11310000Y-3085000D01*
X11295297Y-3084278D01*
X11280736Y-3082118D01*
X11266457Y-3078541D01*
X11252597Y-3073582D01*
X11239290Y-3067288D01*
X11226664Y-3059720D01*
X11214841Y-3050952D01*
X11203934Y-3041066D01*
X11194048Y-3030159D01*
X11185280Y-3018336D01*
X11177712Y-3005710D01*
X11171418Y-2992403D01*
X11166459Y-2978543D01*
X11162882Y-2964264D01*
X11160722Y-2949703D01*
X11160000Y-2935000D01*
X11160000Y-1185000D01*
X11160722Y-1170297D01*
X11162882Y-1155736D01*
X11166459Y-1141457D01*
X11171418Y-1127597D01*
X11177712Y-1114290D01*
X11185280Y-1101664D01*
X11194048Y-1089841D01*
X11203934Y-1078934D01*
X11214841Y-1069048D01*
X11226664Y-1060280D01*
X11239290Y-1052712D01*
X11252597Y-1046418D01*
X11266457Y-1041459D01*
X11280736Y-1037882D01*
X11295297Y-1035722D01*
X11310000Y-1035000D01*
X11610000Y-1035000D01*
X11624703Y-1035722D01*
X11624703Y-1035722D01*
G37*
D22*
X11460000Y-2060000D03*
D21*
G36*
X10354703Y-1035722D02*
G01*
X10369264Y-1037882D01*
X10383543Y-1041459D01*
X10397403Y-1046418D01*
X10410710Y-1052712D01*
X10423336Y-1060280D01*
X10435159Y-1069048D01*
X10446066Y-1078934D01*
X10455952Y-1089841D01*
X10464720Y-1101664D01*
X10472288Y-1114290D01*
X10478582Y-1127597D01*
X10483541Y-1141457D01*
X10487118Y-1155736D01*
X10489278Y-1170297D01*
X10490000Y-1185000D01*
X10490000Y-2935000D01*
X10489278Y-2949703D01*
X10487118Y-2964264D01*
X10483541Y-2978543D01*
X10478582Y-2992403D01*
X10472288Y-3005710D01*
X10464720Y-3018336D01*
X10455952Y-3030159D01*
X10446066Y-3041066D01*
X10435159Y-3050952D01*
X10423336Y-3059720D01*
X10410710Y-3067288D01*
X10397403Y-3073582D01*
X10383543Y-3078541D01*
X10369264Y-3082118D01*
X10354703Y-3084278D01*
X10340000Y-3085000D01*
X10040000Y-3085000D01*
X10025297Y-3084278D01*
X10010736Y-3082118D01*
X9996457Y-3078541D01*
X9982597Y-3073582D01*
X9969290Y-3067288D01*
X9956664Y-3059720D01*
X9944841Y-3050952D01*
X9933934Y-3041066D01*
X9924048Y-3030159D01*
X9915280Y-3018336D01*
X9907712Y-3005710D01*
X9901418Y-2992403D01*
X9896459Y-2978543D01*
X9892882Y-2964264D01*
X9890722Y-2949703D01*
X9890000Y-2935000D01*
X9890000Y-1185000D01*
X9890722Y-1170297D01*
X9892882Y-1155736D01*
X9896459Y-1141457D01*
X9901418Y-1127597D01*
X9907712Y-1114290D01*
X9915280Y-1101664D01*
X9924048Y-1089841D01*
X9933934Y-1078934D01*
X9944841Y-1069048D01*
X9956664Y-1060280D01*
X9969290Y-1052712D01*
X9982597Y-1046418D01*
X9996457Y-1041459D01*
X10010736Y-1037882D01*
X10025297Y-1035722D01*
X10040000Y-1035000D01*
X10340000Y-1035000D01*
X10354703Y-1035722D01*
X10354703Y-1035722D01*
G37*
D22*
X10190000Y-2060000D03*
D21*
G36*
X9084703Y-1035722D02*
G01*
X9099264Y-1037882D01*
X9113543Y-1041459D01*
X9127403Y-1046418D01*
X9140710Y-1052712D01*
X9153336Y-1060280D01*
X9165159Y-1069048D01*
X9176066Y-1078934D01*
X9185952Y-1089841D01*
X9194720Y-1101664D01*
X9202288Y-1114290D01*
X9208582Y-1127597D01*
X9213541Y-1141457D01*
X9217118Y-1155736D01*
X9219278Y-1170297D01*
X9220000Y-1185000D01*
X9220000Y-2935000D01*
X9219278Y-2949703D01*
X9217118Y-2964264D01*
X9213541Y-2978543D01*
X9208582Y-2992403D01*
X9202288Y-3005710D01*
X9194720Y-3018336D01*
X9185952Y-3030159D01*
X9176066Y-3041066D01*
X9165159Y-3050952D01*
X9153336Y-3059720D01*
X9140710Y-3067288D01*
X9127403Y-3073582D01*
X9113543Y-3078541D01*
X9099264Y-3082118D01*
X9084703Y-3084278D01*
X9070000Y-3085000D01*
X8770000Y-3085000D01*
X8755297Y-3084278D01*
X8740736Y-3082118D01*
X8726457Y-3078541D01*
X8712597Y-3073582D01*
X8699290Y-3067288D01*
X8686664Y-3059720D01*
X8674841Y-3050952D01*
X8663934Y-3041066D01*
X8654048Y-3030159D01*
X8645280Y-3018336D01*
X8637712Y-3005710D01*
X8631418Y-2992403D01*
X8626459Y-2978543D01*
X8622882Y-2964264D01*
X8620722Y-2949703D01*
X8620000Y-2935000D01*
X8620000Y-1185000D01*
X8620722Y-1170297D01*
X8622882Y-1155736D01*
X8626459Y-1141457D01*
X8631418Y-1127597D01*
X8637712Y-1114290D01*
X8645280Y-1101664D01*
X8654048Y-1089841D01*
X8663934Y-1078934D01*
X8674841Y-1069048D01*
X8686664Y-1060280D01*
X8699290Y-1052712D01*
X8712597Y-1046418D01*
X8726457Y-1041459D01*
X8740736Y-1037882D01*
X8755297Y-1035722D01*
X8770000Y-1035000D01*
X9070000Y-1035000D01*
X9084703Y-1035722D01*
X9084703Y-1035722D01*
G37*
D22*
X8920000Y-2060000D03*
D21*
G36*
X7814703Y-1035722D02*
G01*
X7829264Y-1037882D01*
X7843543Y-1041459D01*
X7857403Y-1046418D01*
X7870710Y-1052712D01*
X7883336Y-1060280D01*
X7895159Y-1069048D01*
X7906066Y-1078934D01*
X7915952Y-1089841D01*
X7924720Y-1101664D01*
X7932288Y-1114290D01*
X7938582Y-1127597D01*
X7943541Y-1141457D01*
X7947118Y-1155736D01*
X7949278Y-1170297D01*
X7950000Y-1185000D01*
X7950000Y-2935000D01*
X7949278Y-2949703D01*
X7947118Y-2964264D01*
X7943541Y-2978543D01*
X7938582Y-2992403D01*
X7932288Y-3005710D01*
X7924720Y-3018336D01*
X7915952Y-3030159D01*
X7906066Y-3041066D01*
X7895159Y-3050952D01*
X7883336Y-3059720D01*
X7870710Y-3067288D01*
X7857403Y-3073582D01*
X7843543Y-3078541D01*
X7829264Y-3082118D01*
X7814703Y-3084278D01*
X7800000Y-3085000D01*
X7500000Y-3085000D01*
X7485297Y-3084278D01*
X7470736Y-3082118D01*
X7456457Y-3078541D01*
X7442597Y-3073582D01*
X7429290Y-3067288D01*
X7416664Y-3059720D01*
X7404841Y-3050952D01*
X7393934Y-3041066D01*
X7384048Y-3030159D01*
X7375280Y-3018336D01*
X7367712Y-3005710D01*
X7361418Y-2992403D01*
X7356459Y-2978543D01*
X7352882Y-2964264D01*
X7350722Y-2949703D01*
X7350000Y-2935000D01*
X7350000Y-1185000D01*
X7350722Y-1170297D01*
X7352882Y-1155736D01*
X7356459Y-1141457D01*
X7361418Y-1127597D01*
X7367712Y-1114290D01*
X7375280Y-1101664D01*
X7384048Y-1089841D01*
X7393934Y-1078934D01*
X7404841Y-1069048D01*
X7416664Y-1060280D01*
X7429290Y-1052712D01*
X7442597Y-1046418D01*
X7456457Y-1041459D01*
X7470736Y-1037882D01*
X7485297Y-1035722D01*
X7500000Y-1035000D01*
X7800000Y-1035000D01*
X7814703Y-1035722D01*
X7814703Y-1035722D01*
G37*
D22*
X7650000Y-2060000D03*
D21*
G36*
X6544703Y-1035722D02*
G01*
X6559264Y-1037882D01*
X6573543Y-1041459D01*
X6587403Y-1046418D01*
X6600710Y-1052712D01*
X6613336Y-1060280D01*
X6625159Y-1069048D01*
X6636066Y-1078934D01*
X6645952Y-1089841D01*
X6654720Y-1101664D01*
X6662288Y-1114290D01*
X6668582Y-1127597D01*
X6673541Y-1141457D01*
X6677118Y-1155736D01*
X6679278Y-1170297D01*
X6680000Y-1185000D01*
X6680000Y-2935000D01*
X6679278Y-2949703D01*
X6677118Y-2964264D01*
X6673541Y-2978543D01*
X6668582Y-2992403D01*
X6662288Y-3005710D01*
X6654720Y-3018336D01*
X6645952Y-3030159D01*
X6636066Y-3041066D01*
X6625159Y-3050952D01*
X6613336Y-3059720D01*
X6600710Y-3067288D01*
X6587403Y-3073582D01*
X6573543Y-3078541D01*
X6559264Y-3082118D01*
X6544703Y-3084278D01*
X6530000Y-3085000D01*
X6230000Y-3085000D01*
X6215297Y-3084278D01*
X6200736Y-3082118D01*
X6186457Y-3078541D01*
X6172597Y-3073582D01*
X6159290Y-3067288D01*
X6146664Y-3059720D01*
X6134841Y-3050952D01*
X6123934Y-3041066D01*
X6114048Y-3030159D01*
X6105280Y-3018336D01*
X6097712Y-3005710D01*
X6091418Y-2992403D01*
X6086459Y-2978543D01*
X6082882Y-2964264D01*
X6080722Y-2949703D01*
X6080000Y-2935000D01*
X6080000Y-1185000D01*
X6080722Y-1170297D01*
X6082882Y-1155736D01*
X6086459Y-1141457D01*
X6091418Y-1127597D01*
X6097712Y-1114290D01*
X6105280Y-1101664D01*
X6114048Y-1089841D01*
X6123934Y-1078934D01*
X6134841Y-1069048D01*
X6146664Y-1060280D01*
X6159290Y-1052712D01*
X6172597Y-1046418D01*
X6186457Y-1041459D01*
X6200736Y-1037882D01*
X6215297Y-1035722D01*
X6230000Y-1035000D01*
X6530000Y-1035000D01*
X6544703Y-1035722D01*
X6544703Y-1035722D01*
G37*
D22*
X6380000Y-2060000D03*
D21*
G36*
X5274703Y-1035722D02*
G01*
X5289264Y-1037882D01*
X5303543Y-1041459D01*
X5317403Y-1046418D01*
X5330710Y-1052712D01*
X5343336Y-1060280D01*
X5355159Y-1069048D01*
X5366066Y-1078934D01*
X5375952Y-1089841D01*
X5384720Y-1101664D01*
X5392288Y-1114290D01*
X5398582Y-1127597D01*
X5403541Y-1141457D01*
X5407118Y-1155736D01*
X5409278Y-1170297D01*
X5410000Y-1185000D01*
X5410000Y-2935000D01*
X5409278Y-2949703D01*
X5407118Y-2964264D01*
X5403541Y-2978543D01*
X5398582Y-2992403D01*
X5392288Y-3005710D01*
X5384720Y-3018336D01*
X5375952Y-3030159D01*
X5366066Y-3041066D01*
X5355159Y-3050952D01*
X5343336Y-3059720D01*
X5330710Y-3067288D01*
X5317403Y-3073582D01*
X5303543Y-3078541D01*
X5289264Y-3082118D01*
X5274703Y-3084278D01*
X5260000Y-3085000D01*
X4960000Y-3085000D01*
X4945297Y-3084278D01*
X4930736Y-3082118D01*
X4916457Y-3078541D01*
X4902597Y-3073582D01*
X4889290Y-3067288D01*
X4876664Y-3059720D01*
X4864841Y-3050952D01*
X4853934Y-3041066D01*
X4844048Y-3030159D01*
X4835280Y-3018336D01*
X4827712Y-3005710D01*
X4821418Y-2992403D01*
X4816459Y-2978543D01*
X4812882Y-2964264D01*
X4810722Y-2949703D01*
X4810000Y-2935000D01*
X4810000Y-1185000D01*
X4810722Y-1170297D01*
X4812882Y-1155736D01*
X4816459Y-1141457D01*
X4821418Y-1127597D01*
X4827712Y-1114290D01*
X4835280Y-1101664D01*
X4844048Y-1089841D01*
X4853934Y-1078934D01*
X4864841Y-1069048D01*
X4876664Y-1060280D01*
X4889290Y-1052712D01*
X4902597Y-1046418D01*
X4916457Y-1041459D01*
X4930736Y-1037882D01*
X4945297Y-1035722D01*
X4960000Y-1035000D01*
X5260000Y-1035000D01*
X5274703Y-1035722D01*
X5274703Y-1035722D01*
G37*
D22*
X5110000Y-2060000D03*
D21*
G36*
X4004703Y-1035722D02*
G01*
X4019264Y-1037882D01*
X4033543Y-1041459D01*
X4047403Y-1046418D01*
X4060710Y-1052712D01*
X4073336Y-1060280D01*
X4085159Y-1069048D01*
X4096066Y-1078934D01*
X4105952Y-1089841D01*
X4114720Y-1101664D01*
X4122288Y-1114290D01*
X4128582Y-1127597D01*
X4133541Y-1141457D01*
X4137118Y-1155736D01*
X4139278Y-1170297D01*
X4140000Y-1185000D01*
X4140000Y-2935000D01*
X4139278Y-2949703D01*
X4137118Y-2964264D01*
X4133541Y-2978543D01*
X4128582Y-2992403D01*
X4122288Y-3005710D01*
X4114720Y-3018336D01*
X4105952Y-3030159D01*
X4096066Y-3041066D01*
X4085159Y-3050952D01*
X4073336Y-3059720D01*
X4060710Y-3067288D01*
X4047403Y-3073582D01*
X4033543Y-3078541D01*
X4019264Y-3082118D01*
X4004703Y-3084278D01*
X3990000Y-3085000D01*
X3690000Y-3085000D01*
X3675297Y-3084278D01*
X3660736Y-3082118D01*
X3646457Y-3078541D01*
X3632597Y-3073582D01*
X3619290Y-3067288D01*
X3606664Y-3059720D01*
X3594841Y-3050952D01*
X3583934Y-3041066D01*
X3574048Y-3030159D01*
X3565280Y-3018336D01*
X3557712Y-3005710D01*
X3551418Y-2992403D01*
X3546459Y-2978543D01*
X3542882Y-2964264D01*
X3540722Y-2949703D01*
X3540000Y-2935000D01*
X3540000Y-1185000D01*
X3540722Y-1170297D01*
X3542882Y-1155736D01*
X3546459Y-1141457D01*
X3551418Y-1127597D01*
X3557712Y-1114290D01*
X3565280Y-1101664D01*
X3574048Y-1089841D01*
X3583934Y-1078934D01*
X3594841Y-1069048D01*
X3606664Y-1060280D01*
X3619290Y-1052712D01*
X3632597Y-1046418D01*
X3646457Y-1041459D01*
X3660736Y-1037882D01*
X3675297Y-1035722D01*
X3690000Y-1035000D01*
X3990000Y-1035000D01*
X4004703Y-1035722D01*
X4004703Y-1035722D01*
G37*
D22*
X3840000Y-2060000D03*
D21*
G36*
X2734703Y-1035722D02*
G01*
X2749264Y-1037882D01*
X2763543Y-1041459D01*
X2777403Y-1046418D01*
X2790710Y-1052712D01*
X2803336Y-1060280D01*
X2815159Y-1069048D01*
X2826066Y-1078934D01*
X2835952Y-1089841D01*
X2844720Y-1101664D01*
X2852288Y-1114290D01*
X2858582Y-1127597D01*
X2863541Y-1141457D01*
X2867118Y-1155736D01*
X2869278Y-1170297D01*
X2870000Y-1185000D01*
X2870000Y-2935000D01*
X2869278Y-2949703D01*
X2867118Y-2964264D01*
X2863541Y-2978543D01*
X2858582Y-2992403D01*
X2852288Y-3005710D01*
X2844720Y-3018336D01*
X2835952Y-3030159D01*
X2826066Y-3041066D01*
X2815159Y-3050952D01*
X2803336Y-3059720D01*
X2790710Y-3067288D01*
X2777403Y-3073582D01*
X2763543Y-3078541D01*
X2749264Y-3082118D01*
X2734703Y-3084278D01*
X2720000Y-3085000D01*
X2420000Y-3085000D01*
X2405297Y-3084278D01*
X2390736Y-3082118D01*
X2376457Y-3078541D01*
X2362597Y-3073582D01*
X2349290Y-3067288D01*
X2336664Y-3059720D01*
X2324841Y-3050952D01*
X2313934Y-3041066D01*
X2304048Y-3030159D01*
X2295280Y-3018336D01*
X2287712Y-3005710D01*
X2281418Y-2992403D01*
X2276459Y-2978543D01*
X2272882Y-2964264D01*
X2270722Y-2949703D01*
X2270000Y-2935000D01*
X2270000Y-1185000D01*
X2270722Y-1170297D01*
X2272882Y-1155736D01*
X2276459Y-1141457D01*
X2281418Y-1127597D01*
X2287712Y-1114290D01*
X2295280Y-1101664D01*
X2304048Y-1089841D01*
X2313934Y-1078934D01*
X2324841Y-1069048D01*
X2336664Y-1060280D01*
X2349290Y-1052712D01*
X2362597Y-1046418D01*
X2376457Y-1041459D01*
X2390736Y-1037882D01*
X2405297Y-1035722D01*
X2420000Y-1035000D01*
X2720000Y-1035000D01*
X2734703Y-1035722D01*
X2734703Y-1035722D01*
G37*
D22*
X2570000Y-2060000D03*
D21*
G36*
X1464703Y-1035722D02*
G01*
X1479264Y-1037882D01*
X1493543Y-1041459D01*
X1507403Y-1046418D01*
X1520710Y-1052712D01*
X1533336Y-1060280D01*
X1545159Y-1069048D01*
X1556066Y-1078934D01*
X1565952Y-1089841D01*
X1574720Y-1101664D01*
X1582288Y-1114290D01*
X1588582Y-1127597D01*
X1593541Y-1141457D01*
X1597118Y-1155736D01*
X1599278Y-1170297D01*
X1600000Y-1185000D01*
X1600000Y-2935000D01*
X1599278Y-2949703D01*
X1597118Y-2964264D01*
X1593541Y-2978543D01*
X1588582Y-2992403D01*
X1582288Y-3005710D01*
X1574720Y-3018336D01*
X1565952Y-3030159D01*
X1556066Y-3041066D01*
X1545159Y-3050952D01*
X1533336Y-3059720D01*
X1520710Y-3067288D01*
X1507403Y-3073582D01*
X1493543Y-3078541D01*
X1479264Y-3082118D01*
X1464703Y-3084278D01*
X1450000Y-3085000D01*
X1150000Y-3085000D01*
X1135297Y-3084278D01*
X1120736Y-3082118D01*
X1106457Y-3078541D01*
X1092597Y-3073582D01*
X1079290Y-3067288D01*
X1066664Y-3059720D01*
X1054841Y-3050952D01*
X1043934Y-3041066D01*
X1034048Y-3030159D01*
X1025280Y-3018336D01*
X1017712Y-3005710D01*
X1011418Y-2992403D01*
X1006459Y-2978543D01*
X1002882Y-2964264D01*
X1000722Y-2949703D01*
X1000000Y-2935000D01*
X1000000Y-1185000D01*
X1000722Y-1170297D01*
X1002882Y-1155736D01*
X1006459Y-1141457D01*
X1011418Y-1127597D01*
X1017712Y-1114290D01*
X1025280Y-1101664D01*
X1034048Y-1089841D01*
X1043934Y-1078934D01*
X1054841Y-1069048D01*
X1066664Y-1060280D01*
X1079290Y-1052712D01*
X1092597Y-1046418D01*
X1106457Y-1041459D01*
X1120736Y-1037882D01*
X1135297Y-1035722D01*
X1150000Y-1035000D01*
X1450000Y-1035000D01*
X1464703Y-1035722D01*
X1464703Y-1035722D01*
G37*
D22*
X1300000Y-2060000D03*
D17*
X68932540Y-54897020D03*
D18*
X68932540Y-52357020D03*
D17*
X71440000Y-38150000D03*
D18*
X68900000Y-38150000D03*
D17*
X71540000Y-10200000D03*
D18*
X69000000Y-10200000D03*
D17*
X71540000Y5800000D03*
D18*
X69000000Y5800000D03*
D23*
X41425000Y-16950000D03*
X40775000Y-16950000D03*
X40125000Y-16950000D03*
X39475000Y-16950000D03*
X38825000Y-16950000D03*
X38175000Y-16950000D03*
X37525000Y-16950000D03*
X36875000Y-16950000D03*
X36225000Y-16950000D03*
X35575000Y-16950000D03*
X35575000Y-11050000D03*
X36225000Y-11050000D03*
X36875000Y-11050000D03*
X37525000Y-11050000D03*
X38175000Y-11050000D03*
X38825000Y-11050000D03*
X39475000Y-11050000D03*
X40125000Y-11050000D03*
X40775000Y-11050000D03*
X41425000Y-11050000D03*
D24*
X-11000000Y-250000D03*
D10*
X-11000000Y-2790000D03*
X-30000000Y-2790000D03*
D24*
X-30000000Y-250000D03*
D10*
X-11000000Y8210000D03*
D24*
X-11000000Y10750000D03*
D10*
X-30000000Y8210000D03*
D11*
X-30000000Y10750000D03*
D24*
X-11000000Y-19653500D03*
D10*
X-11000000Y-22193500D03*
X-30000000Y-22193500D03*
D24*
X-30000000Y-19653500D03*
D10*
X-11000000Y-11193500D03*
D24*
X-11000000Y-8653500D03*
D10*
X-30000000Y-11193500D03*
D11*
X-30000000Y-8653500D03*
D24*
X-11000000Y-38700000D03*
D10*
X-11000000Y-41240000D03*
X-30000000Y-41240000D03*
D24*
X-30000000Y-38700000D03*
D10*
X-11000000Y-30240000D03*
D24*
X-11000000Y-27700000D03*
D10*
X-30000000Y-30240000D03*
D11*
X-30000000Y-27700000D03*
D24*
X-11000000Y-57600000D03*
D10*
X-11000000Y-60140000D03*
X-30000000Y-60140000D03*
D24*
X-30000000Y-57600000D03*
D10*
X-11000000Y-49140000D03*
D24*
X-11000000Y-46600000D03*
D10*
X-30000000Y-49140000D03*
D11*
X-30000000Y-46600000D03*
D24*
X46780000Y-30780000D03*
X44240000Y-30780000D03*
X41700000Y-30780000D03*
X34000000Y-30780000D03*
X31500000Y-30780000D03*
X29000000Y-30780000D03*
X46780000Y-27580000D03*
X44240000Y-27580000D03*
X41700000Y-27580000D03*
X39160000Y-27580000D03*
X36620000Y-27580000D03*
X34080000Y-27580000D03*
X31540000Y-27580000D03*
X29000000Y-27580000D03*
X46780000Y-25040000D03*
X44240000Y-25040000D03*
X41700000Y-25040000D03*
X39160000Y-25040000D03*
X36620000Y-25040000D03*
X34080000Y-25040000D03*
X31540000Y-25040000D03*
X29000000Y-25040000D03*
X46780000Y-22500000D03*
X44240000Y-22500000D03*
X41700000Y-22500000D03*
X39160000Y-22500000D03*
X36620000Y-22500000D03*
X34080000Y-22500000D03*
X31540000Y-22500000D03*
X29000000Y-22500000D03*
D17*
X32222440Y-14759940D03*
D18*
X32222440Y-12219940D03*
D10*
X28801360Y-40619220D03*
X31341360Y-40619220D03*
X33881360Y-40619220D03*
X36421360Y-40619220D03*
X38961360Y-40619220D03*
D11*
X41501360Y-40619220D03*
D10*
X46500000Y6500000D03*
X49040000Y6500000D03*
X51580000Y6500000D03*
X54120000Y6500000D03*
X56660000Y6500000D03*
D11*
X59200000Y6500000D03*
D19*
X-5900420Y-13372460D03*
D20*
X-5900420Y-15872460D03*
D19*
X-6075680Y-33913440D03*
D20*
X-6075680Y-36413440D03*
D19*
X-6050280Y-52026180D03*
D20*
X-6050280Y-54526180D03*
D19*
X-1430000Y6180000D03*
X-1430000Y3680000D03*
X-1513840Y-13372460D03*
X-1513840Y-15872460D03*
X-1699260Y-33913440D03*
X-1699260Y-36413440D03*
X-1402080Y-51995700D03*
X-1402080Y-54495700D03*
X51648360Y-27544400D03*
X51648360Y-25044400D03*
X51650900Y-14492600D03*
X51650900Y-16992600D03*
X45400000Y-14500000D03*
X45400000Y-12000000D03*
D25*
X-56000000Y-8920000D03*
X-56000000Y-14000000D03*
D26*
X-56000000Y-19080000D03*
D25*
X-56000000Y8860000D03*
X-56000000Y3780000D03*
D26*
X-56000000Y-1300000D03*
D25*
X33290000Y-56150000D03*
X38370000Y-56150000D03*
D26*
X43450000Y-56150000D03*
D25*
X49790000Y-56000000D03*
X54870000Y-56000000D03*
D26*
X59950000Y-56000000D03*
D25*
X78150000Y-60010000D03*
X78150000Y-54930000D03*
D26*
X78150000Y-49850000D03*
D25*
X78100000Y-44010000D03*
X78100000Y-38930000D03*
D26*
X78100000Y-33850000D03*
D25*
X78350000Y-15260000D03*
X78350000Y-10180000D03*
D26*
X78350000Y-5100000D03*
D25*
X78300000Y740000D03*
X78300000Y5820000D03*
D26*
X78300000Y10900000D03*
D10*
X14390000Y2160000D03*
X16930000Y2160000D03*
X19470000Y2160000D03*
X22010000Y2160000D03*
X24550000Y2160000D03*
X27090000Y2160000D03*
X29630000Y2160000D03*
X32170000Y2160000D03*
X34710000Y2160000D03*
D11*
X37250000Y2160000D03*
D25*
X16920000Y-56200000D03*
X22000000Y-56200000D03*
D26*
X27080000Y-56200000D03*
D10*
X44250000Y-35150000D03*
X41710000Y-35150000D03*
X39170000Y-35150000D03*
X36630000Y-35150000D03*
X34090000Y-35150000D03*
D11*
X31550000Y-35150000D03*
D27*
X34700000Y13770000D03*
X1660000Y13600000D03*
X13950000Y6990000D03*
X7410000Y-11080000D03*
X7370000Y-19900000D03*
X6170000Y-22730000D03*
X6160000Y-13030000D03*
X4820000Y-20060000D03*
X4810000Y-10690000D03*
X3560000Y-11980000D03*
X3570000Y-21190000D03*
X2360000Y-12790000D03*
X2430000Y-22460000D03*
D28*
X78300000Y740000D02*
X82040000Y740000D01*
X82040000Y740000D02*
X82000000Y700000D01*
X78360000Y-15250000D02*
X78350000Y-15260000D01*
X82000000Y-15250000D02*
X78360000Y-15250000D01*
X82000000Y700000D02*
X82000000Y-13950000D01*
X82000000Y-13950000D02*
X82000000Y-15250000D01*
X78100000Y-44010000D02*
X81960000Y-44010000D01*
X81960000Y-44010000D02*
X81950000Y-44020000D01*
X81950000Y-44020000D02*
X81950000Y-59900000D01*
X81840000Y-60010000D02*
X78150000Y-60010000D01*
X81950000Y-59900000D02*
X81840000Y-60010000D01*
D29*
X35575000Y-16950000D02*
X35575000Y-14757160D01*
X35572220Y-14759940D02*
X35575000Y-14757160D01*
D28*
X29000000Y-27580000D02*
X31540000Y-27580000D01*
X31540000Y-27580000D02*
X34080000Y-27580000D01*
X34080000Y-27580000D02*
X35608940Y-27580000D01*
X36620000Y-27580000D02*
X39160000Y-27580000D01*
X39160000Y-27580000D02*
X41700000Y-27580000D01*
X41700000Y-27580000D02*
X44240000Y-27580000D01*
X44240000Y-27580000D02*
X46780000Y-27580000D01*
X51612760Y-27580000D02*
X51648360Y-27544400D01*
X46780000Y-27580000D02*
X51612760Y-27580000D01*
X32482380Y-14500000D02*
X32222440Y-14759940D01*
X45400000Y-14500000D02*
X32482380Y-14500000D01*
X34080000Y-27580000D02*
X36620000Y-27580000D01*
X49790000Y-59975400D02*
X49790000Y-56000000D01*
X49824600Y-60010000D02*
X49790000Y-59975400D01*
X33290000Y-56150000D02*
X33290000Y-59831480D01*
X33468520Y-60010000D02*
X49824600Y-60010000D01*
X33290000Y-59831480D02*
X33468520Y-60010000D01*
X22000000Y-56250000D02*
X22000000Y-59524000D01*
X21477480Y-59831480D02*
X33290000Y-59831480D01*
X21170000Y-59524000D02*
X21477480Y-59831480D01*
X-1402080Y-51995700D02*
X4528180Y-51995700D01*
X4528180Y-51995700D02*
X5080000Y-52547520D01*
X5080000Y-52547520D02*
X5080000Y-60071000D01*
X5080000Y-60071000D02*
X5179060Y-59971940D01*
X20722060Y-59971940D02*
X21170000Y-59524000D01*
X5179060Y-59971940D02*
X20722060Y-59971940D01*
D30*
X-855000Y5605000D02*
X-1430000Y6180000D01*
X-380000Y5130000D02*
X-1430000Y6180000D01*
X11460000Y-2060000D02*
X11460000Y4980000D01*
X11310000Y5130000D02*
X-380000Y5130000D01*
X11460000Y4980000D02*
X11310000Y5130000D01*
D28*
X42210000Y2020000D02*
X37870000Y2020000D01*
X75330000Y740000D02*
X74520000Y1550000D01*
X78300000Y740000D02*
X75330000Y740000D01*
X74520000Y1550000D02*
X74520000Y10440000D01*
X42610000Y10440000D02*
X42610000Y2420000D01*
X42610000Y2420000D02*
X42210000Y2020000D01*
X78150000Y-60010000D02*
X49824600Y-60010000D01*
X74520000Y10440000D02*
X42610000Y10440000D01*
D30*
X32170000Y13630000D02*
X32170000Y2160000D01*
X32139960Y13660040D02*
X32170000Y13630000D01*
X2520000Y7650000D02*
X2520000Y10424172D01*
X2520000Y10424172D02*
X2530000Y10434172D01*
X2530000Y10434172D02*
X2530000Y13180000D01*
X2530000Y13180000D02*
X3010040Y13660040D01*
X3010040Y13660040D02*
X32139960Y13660040D01*
D29*
X41425000Y-16950000D02*
X41425000Y-18217020D01*
X41425000Y-18217020D02*
X42153840Y-18945860D01*
X42153840Y-18945860D02*
X46746160Y-18945860D01*
X46780000Y-18979700D02*
X46780000Y-22500000D01*
X46746160Y-18945860D02*
X46780000Y-18979700D01*
X40125000Y-16950000D02*
X40125000Y-18405460D01*
X40125000Y-18405460D02*
X41661080Y-19941540D01*
X41661080Y-19941540D02*
X44221400Y-19941540D01*
X44240000Y-19960140D02*
X44240000Y-22500000D01*
X44221400Y-19941540D02*
X44240000Y-19960140D01*
X39475000Y-16950000D02*
X39475000Y-19261680D01*
X39475000Y-19261680D02*
X41132760Y-20919440D01*
X41132760Y-20919440D02*
X41714420Y-20919440D01*
X41700000Y-20933860D02*
X41700000Y-22500000D01*
X41714420Y-20919440D02*
X41700000Y-20933860D01*
X38824992Y-18992436D02*
X38824992Y-20473492D01*
X38825000Y-16950000D02*
X38825000Y-18992428D01*
X38825000Y-18992428D02*
X38824992Y-18992436D01*
X39160000Y-20808500D02*
X39160000Y-22500000D01*
X38824992Y-20473492D02*
X39160000Y-20808500D01*
X38175000Y-18723176D02*
X38155880Y-18742296D01*
X38175000Y-16950000D02*
X38175000Y-18723176D01*
X38155880Y-18742296D02*
X38155880Y-20556220D01*
X38155880Y-20556220D02*
X38120320Y-20591780D01*
X38120320Y-20591780D02*
X36624260Y-20591780D01*
X36620000Y-20596040D02*
X36620000Y-22500000D01*
X36624260Y-20591780D02*
X36620000Y-20596040D01*
X37525000Y-18453924D02*
X37505870Y-18473054D01*
X37525000Y-16950000D02*
X37525000Y-18453924D01*
X37505870Y-18473054D02*
X37505870Y-19941310D01*
X37505870Y-19941310D02*
X37505410Y-19941770D01*
X37505410Y-19941770D02*
X34317710Y-19941770D01*
X34080000Y-20179480D02*
X34080000Y-22500000D01*
X34317710Y-19941770D02*
X34080000Y-20179480D01*
X36875000Y-18184672D02*
X36855860Y-18203812D01*
X36875000Y-16950000D02*
X36875000Y-18184672D01*
X36855860Y-18203812D02*
X36855860Y-19286220D01*
X36855860Y-19286220D02*
X32125920Y-19286220D01*
X32125920Y-19286220D02*
X31539180Y-19872960D01*
X31539180Y-22499180D02*
X31540000Y-22500000D01*
X31539180Y-19872960D02*
X31539180Y-22499180D01*
X36225000Y-17915420D02*
X36205850Y-17934570D01*
X36225000Y-16950000D02*
X36225000Y-17915420D01*
X36205850Y-17934570D02*
X36205850Y-18444790D01*
X31474990Y-18444790D02*
X31471760Y-18448020D01*
X36205850Y-18444790D02*
X31474990Y-18444790D01*
X31471760Y-18448020D02*
X29083000Y-18448020D01*
X29000000Y-18531020D02*
X29000000Y-22500000D01*
X29083000Y-18448020D02*
X29000000Y-18531020D01*
X41425000Y-11050000D02*
X41425000Y-10304640D01*
X41425000Y-10304640D02*
X44729400Y-7000240D01*
X45859760Y-7000240D02*
X49020000Y-3840000D01*
X44729400Y-7000240D02*
X45859760Y-7000240D01*
X40125000Y-11050000D02*
X40125000Y-9138300D01*
X40125000Y-9138300D02*
X43281600Y-5981700D01*
X44338300Y-5981700D02*
X46480000Y-3840000D01*
X43281600Y-5981700D02*
X44338300Y-5981700D01*
X42341800Y-5438200D02*
X43940000Y-3840000D01*
X42341800Y-5501640D02*
X42341800Y-5438200D01*
X39475000Y-11050000D02*
X39475000Y-8368440D01*
X39475000Y-8368440D02*
X42341800Y-5501640D01*
X38825000Y-11050000D02*
X38825000Y-7537620D01*
X38825000Y-7537620D02*
X38865640Y-7537620D01*
X41400000Y-5003260D02*
X41400000Y-3840000D01*
X38865640Y-7537620D02*
X41400000Y-5003260D01*
X38175000Y-4525000D02*
X38860000Y-3840000D01*
X38175000Y-11050000D02*
X38175000Y-4525000D01*
X37525000Y-11050000D02*
X37525000Y-8254040D01*
X37525000Y-8254040D02*
X36329620Y-7058660D01*
X36329620Y-3849620D02*
X36320000Y-3840000D01*
X36329620Y-7058660D02*
X36329620Y-3849620D01*
X36875000Y-11050000D02*
X36875000Y-8622580D01*
X33780000Y-5527580D02*
X33780000Y-3840000D01*
X36875000Y-8622580D02*
X33780000Y-5527580D01*
X36225000Y-11050000D02*
X36225000Y-9057160D01*
X36225000Y-9057160D02*
X32811720Y-5643880D01*
X32811720Y-5643880D02*
X31257240Y-5643880D01*
X31240000Y-5626640D02*
X31240000Y-3840000D01*
X31257240Y-5643880D02*
X31240000Y-5626640D01*
X35575000Y-11050000D02*
X35575000Y-11917920D01*
X35272980Y-12219940D02*
X32222440Y-12219940D01*
X35575000Y-11917920D02*
X35272980Y-12219940D01*
D30*
X46888960Y-44808960D02*
X47080000Y-45000000D01*
D28*
X71440000Y-38150000D02*
X73402140Y-38150000D01*
X74182140Y-38930000D02*
X78100000Y-38930000D01*
X73402140Y-38150000D02*
X74182140Y-38930000D01*
D31*
X59320000Y-49990000D02*
X59320000Y-47410000D01*
X58920000Y-50190000D02*
X58720000Y-49990000D01*
X70510000Y-50190000D02*
X58920000Y-50190000D01*
X71440000Y-38150000D02*
X71440000Y-49260000D01*
X71440000Y-49260000D02*
X70510000Y-50190000D01*
X78117020Y-54897020D02*
X78150000Y-54930000D01*
X68932540Y-54897020D02*
X78117020Y-54897020D01*
X66776600Y-54897020D02*
X74932540Y-54897020D01*
X56780000Y-47410000D02*
X56780000Y-50380000D01*
X56780000Y-50380000D02*
X58200000Y-51800000D01*
X58200000Y-51800000D02*
X63800000Y-51800000D01*
X66897020Y-54897020D02*
X68932540Y-54897020D01*
X63800000Y-51800000D02*
X66897020Y-54897020D01*
D28*
X51650900Y-25041860D02*
X51648360Y-25044400D01*
X51650900Y-16992600D02*
X51650900Y-25041860D01*
X46784400Y-25044400D02*
X46780000Y-25040000D01*
X51648360Y-25044400D02*
X46784400Y-25044400D01*
X46780000Y-25040000D02*
X44240000Y-25040000D01*
X29000000Y-25040000D02*
X31540000Y-25040000D01*
X31540000Y-25040000D02*
X34080000Y-25040000D01*
X34080000Y-25040000D02*
X36620000Y-25040000D01*
X36620000Y-25040000D02*
X39160000Y-25040000D01*
X39160000Y-25040000D02*
X41700000Y-25040000D01*
X41700000Y-25040000D02*
X44240000Y-25040000D01*
D29*
X45803820Y-16992600D02*
X51650900Y-16992600D01*
X44611219Y-15799999D02*
X45803820Y-16992600D01*
X40857241Y-15799999D02*
X44611219Y-15799999D01*
X40775000Y-16950000D02*
X40775000Y-15882240D01*
X40775000Y-15882240D02*
X40857241Y-15799999D01*
D28*
X-1513840Y-15872460D02*
X22829520Y-15872460D01*
X22829520Y-15872460D02*
X22850000Y-15851980D01*
X29000000Y-25040000D02*
X22893700Y-25040000D01*
X22829520Y-24975820D02*
X22829520Y-15872460D01*
X22893700Y-25040000D02*
X22829520Y-24975820D01*
D30*
X16930000Y8850000D02*
X16930000Y2160000D01*
X16920022Y8859978D02*
X16930000Y8850000D01*
X10190000Y8859978D02*
X16920022Y8859978D01*
X10190000Y7600000D02*
X10190000Y8859978D01*
X19460000Y2170000D02*
X19470000Y2160000D01*
X8920000Y7240000D02*
X8920000Y8670000D01*
X19470000Y9659989D02*
X19470000Y2160000D01*
X8969989Y9659989D02*
X19470000Y9659989D01*
X8969989Y8719989D02*
X8920000Y8670000D01*
X8969989Y9659989D02*
X8969989Y8719989D01*
X21850000Y2320000D02*
X22010000Y2160000D01*
X21850000Y10460000D02*
X21850000Y2320000D01*
X7650000Y7600000D02*
X7650000Y8951384D01*
X7650000Y8951384D02*
X7640000Y8961384D01*
X7640000Y8961384D02*
X7640000Y10150000D01*
X7640000Y10150000D02*
X7950000Y10460000D01*
X7950000Y10460000D02*
X21850000Y10460000D01*
X6390000Y7590000D02*
X6390000Y10880020D01*
X6390000Y10880020D02*
X6769990Y11260010D01*
X24530000Y2180000D02*
X24550000Y2160000D01*
X6769990Y11260010D02*
X24249990Y11260010D01*
X24249990Y11260010D02*
X24530000Y10980000D01*
X24530000Y10980000D02*
X24530000Y2180000D01*
X27119980Y2189980D02*
X27090000Y2160000D01*
X27119980Y12060020D02*
X27119980Y2189980D01*
X5560020Y12060020D02*
X27119980Y12060020D01*
X5080000Y11580000D02*
X5560020Y12060020D01*
X5080000Y7630000D02*
X5080000Y11580000D01*
X29630000Y12820000D02*
X29630000Y2160000D01*
X29589970Y12860030D02*
X29630000Y12820000D01*
X4330030Y12860030D02*
X29589970Y12860030D01*
X3840000Y12370000D02*
X4330030Y12860030D01*
X3840000Y7600000D02*
X3840000Y12370000D01*
X34710000Y2160000D02*
X34710000Y6610000D01*
X34710000Y6610000D02*
X34710000Y13320000D01*
X34710000Y13320000D02*
X34710000Y13760000D01*
X34710000Y13760000D02*
X34700000Y13770000D01*
X1660000Y13600000D02*
X1240000Y13180000D01*
X1240000Y13180000D02*
X1240000Y7660000D01*
X54648660Y-44948660D02*
X54700000Y-45000000D01*
D28*
X69000000Y5800000D02*
X69000000Y-10200000D01*
D29*
X40775000Y-11050000D02*
X40775000Y-12545440D01*
X40775000Y-12545440D02*
X40789860Y-12560300D01*
X44839700Y-12560300D02*
X45400000Y-12000000D01*
X40789860Y-12560300D02*
X44839700Y-12560300D01*
D30*
X67943220Y-10193020D02*
X67950200Y-10200000D01*
D28*
X51560000Y-5840000D02*
X45400000Y-12000000D01*
X51560000Y-3840000D02*
X51560000Y-5840000D01*
X51560000Y-3840000D02*
X51560000Y-8753380D01*
X51560000Y-8753380D02*
X53006620Y-10200000D01*
X67744340Y-10204340D02*
X67740000Y-10200000D01*
X53006620Y-10200000D02*
X67740000Y-10200000D01*
X67740000Y-10200000D02*
X68222500Y-10200000D01*
X69000000Y-38050000D02*
X68900000Y-38150000D01*
X69000000Y-10200000D02*
X69000000Y-38050000D01*
D30*
X11710000Y6990000D02*
X11460000Y7240000D01*
X13950000Y6990000D02*
X11710000Y6990000D01*
D28*
X-42985000Y-13735000D02*
X-43000000Y-13750000D01*
X-42985000Y-8695000D02*
X-42985000Y-13735000D01*
X-42985000Y-8695000D02*
X-42985000Y455000D01*
X-39020000Y-13890000D02*
X-35210000Y-13890000D01*
X-35210000Y-23660000D02*
X-35210000Y-13890000D01*
X-33670000Y-25200000D02*
X-35210000Y-23660000D01*
X-33670000Y-45150000D02*
X-36760000Y-48240000D01*
X-33670000Y-25200000D02*
X-33670000Y-45150000D01*
X-45525000Y-13735000D02*
X-45540000Y-13750000D01*
X-45525000Y-13465000D02*
X-45525000Y-13735000D01*
X-45525000Y-8695000D02*
X-45525000Y-13465000D01*
D30*
X26160000Y-4771384D02*
X26130000Y-4801384D01*
X26160000Y-3840000D02*
X26160000Y-4771384D01*
X26130000Y-4801384D02*
X26130000Y-6910000D01*
X25439990Y-7600010D02*
X7670010Y-7600010D01*
X26130000Y-6910000D02*
X25439990Y-7600010D01*
X7650000Y-7580000D02*
X7650000Y-2060000D01*
X7670010Y-7600010D02*
X7650000Y-7580000D01*
X23620000Y-4451384D02*
X23630000Y-4461384D01*
X23620000Y-3840000D02*
X23620000Y-4451384D01*
X23630000Y-6170000D02*
X23000000Y-6800000D01*
X23630000Y-4461384D02*
X23630000Y-6170000D01*
X23000000Y-6800000D02*
X8950000Y-6800000D01*
X8950000Y-2090000D02*
X8920000Y-2060000D01*
X8950000Y-6800000D02*
X8950000Y-2090000D01*
D29*
X21080000Y-3840000D02*
X21000000Y-3920000D01*
D30*
X21080000Y-5820000D02*
X21100000Y-5840000D01*
X21080000Y-3840000D02*
X21080000Y-5820000D01*
X21100000Y-5840000D02*
X10240000Y-5840000D01*
X10190000Y-5790000D02*
X10190000Y-2060000D01*
X10240000Y-5840000D02*
X10190000Y-5790000D01*
X7380000Y-11050000D02*
X7410000Y-11080000D01*
X7410000Y-11080000D02*
X7410000Y-9160000D01*
X6380000Y-8130000D02*
X6380000Y-2060000D01*
X7410000Y-9160000D02*
X6380000Y-8130000D01*
X7770000Y-27810000D02*
X7370000Y-27410000D01*
X26300000Y-27810000D02*
X7770000Y-27810000D01*
X7370000Y-27410000D02*
X7370000Y-19900000D01*
X26300000Y-44870000D02*
X26300000Y-27810000D01*
X6160000Y-13030000D02*
X6110000Y-12980000D01*
X6160000Y-13030000D02*
X6160000Y-9810000D01*
X5110000Y-8760000D02*
X5110000Y-2060000D01*
X6160000Y-9810000D02*
X5110000Y-8760000D01*
X6170000Y-29100000D02*
X6170000Y-22730000D01*
X23150000Y-29100000D02*
X6170000Y-29100000D01*
X23760000Y-29710000D02*
X23150000Y-29100000D01*
X23760000Y-44870000D02*
X23760000Y-29710000D01*
X4810000Y-10690000D02*
X4810000Y-10320000D01*
X3840000Y-9350000D02*
X3840000Y-2060000D01*
X4810000Y-10320000D02*
X3840000Y-9350000D01*
X4790000Y-20090000D02*
X4820000Y-20060000D01*
X4810000Y-30540000D02*
X4790000Y-30520000D01*
X4790000Y-30520000D02*
X4790000Y-20090000D01*
X21220000Y-30540000D02*
X4810000Y-30540000D01*
X21220000Y-44870000D02*
X21220000Y-30540000D01*
X3590000Y-21210000D02*
X3570000Y-21190000D01*
X3560000Y-11980000D02*
X3560000Y-10940000D01*
X2570000Y-9950000D02*
X2570000Y-2060000D01*
X3560000Y-10940000D02*
X2570000Y-9950000D01*
X3570000Y-31550000D02*
X3570000Y-21190000D01*
X3560000Y-31560000D02*
X3570000Y-31550000D01*
X4850000Y-31560000D02*
X3560000Y-31560000D01*
X4870000Y-31540000D02*
X4850000Y-31560000D01*
X17930000Y-31540000D02*
X4870000Y-31540000D01*
X18680000Y-32290000D02*
X17930000Y-31540000D01*
X18680000Y-44870000D02*
X18680000Y-32290000D01*
X2300000Y-12730000D02*
X2360000Y-12790000D01*
X16140000Y-44870000D02*
X16140000Y-40040000D01*
X16140000Y-40040000D02*
X16140000Y-39930000D01*
X2430000Y-22460000D02*
X2430000Y-32750000D01*
X2640000Y-32960000D02*
X15500000Y-32960000D01*
X2430000Y-32750000D02*
X2640000Y-32960000D01*
X15500000Y-32960000D02*
X15540000Y-33000000D01*
X1300000Y-2060000D02*
X1320000Y-2080000D01*
X1300000Y-2060000D02*
X1300000Y-10700000D01*
X2360000Y-11760000D02*
X2360000Y-12790000D01*
X1300000Y-10700000D02*
X2360000Y-11760000D01*
X16140000Y-33600000D02*
X15500000Y-32960000D01*
X16140000Y-40040000D02*
X16140000Y-33600000D01*
D32*
X-21600000Y-38000000D02*
X-29500000Y-38000000D01*
D33*
X-21550000Y-38050000D02*
X-21600000Y-38000000D01*
D32*
X-28650001Y-19803499D02*
X-21096501Y-19803499D01*
D33*
X-29500000Y-18953500D02*
X-28650001Y-19803499D01*
X-21096501Y-19803499D02*
X-20900000Y-20000000D01*
X-20900000Y-37400000D02*
X-21550000Y-38050000D01*
D32*
X-20900000Y-20000000D02*
X-20900000Y-37400000D01*
D28*
X-29500000Y-38000000D02*
X-29500000Y-40250000D01*
X-29500000Y-40250000D02*
X-29500000Y-40540000D01*
D33*
X-29500000Y-18953500D02*
X-29500000Y-21493500D01*
X-24140000Y-40540000D02*
X-21600000Y-38000000D01*
X-29500000Y-40540000D02*
X-24140000Y-40540000D01*
D32*
X-56000000Y-1300000D02*
X-56000000Y3780000D01*
X-56000000Y3780000D02*
X-56000000Y8860000D01*
X-20950000Y-56750000D02*
X-20950000Y-37900000D01*
D33*
X-20890000Y-59440000D02*
X-20950000Y-59380000D01*
D28*
X-29500000Y-56900000D02*
X-29500000Y-59440000D01*
D33*
X-20950000Y-59380000D02*
X-20950000Y-56750000D01*
D32*
X-29500000Y-56900000D02*
X-21550000Y-56900000D01*
D33*
X-29500000Y-59440000D02*
X-20890000Y-59440000D01*
X-29500000Y-56900000D02*
X-30300000Y-56900000D01*
D32*
X-20900000Y-3090000D02*
X-20900000Y-20000000D01*
X-21200000Y-2790000D02*
X-20900000Y-3090000D01*
X-30000000Y-21857000D02*
X-30336500Y-22193500D01*
X-30000000Y-19653500D02*
X-30000000Y-21857000D01*
X-30000000Y-22193500D02*
X-30336500Y-22193500D01*
X-30000000Y-250000D02*
X-30000000Y-2790000D01*
X-21200000Y-2790000D02*
X-30000000Y-2790000D01*
X-30000000Y-57600000D02*
X-30000000Y-60140000D01*
D28*
X-30000000Y-2790000D02*
X-30690000Y-2790000D01*
D33*
X-36595000Y-8695000D02*
X-35000000Y-7100000D01*
X-35000000Y-7100000D02*
X-30690000Y-2790000D01*
D28*
X-40445000Y-8695000D02*
X-40445000Y-10325000D01*
X-38815000Y-8695000D02*
X-36595000Y-8695000D01*
X-40445000Y-10325000D02*
X-38815000Y-8695000D01*
X-36595000Y-8695000D02*
X-36595000Y-9085000D01*
X-37835000Y-10325000D02*
X-40445000Y-10325000D01*
X-36595000Y-9085000D02*
X-37835000Y-10325000D01*
X-38815000Y-8695000D02*
X-38815000Y-8235000D01*
X-38815000Y-8235000D02*
X-39700000Y-7350000D01*
X-39700000Y-7950000D02*
X-40445000Y-8695000D01*
X-39700000Y-7350000D02*
X-39700000Y-7950000D01*
D32*
X-59010000Y-1300000D02*
X-56000000Y-1300000D01*
X-48550000Y-30990000D02*
X-61000000Y-30990000D01*
X-47590000Y-30030000D02*
X-48550000Y-30990000D01*
X-59030000Y-1280000D02*
X-59010000Y-1300000D01*
X-61000000Y-30990000D02*
X-61200000Y-30790000D01*
X-61200000Y-30790000D02*
X-61200000Y-3490000D01*
X-61200000Y-3490000D02*
X-59030000Y-1320000D01*
X-59030000Y-1320000D02*
X-59030000Y-1280000D01*
M02*
