G04 #@! TF.GenerationSoftware,KiCad,Pcbnew,(5.1.4-0-10_14)*
G04 #@! TF.CreationDate,2019-12-13T09:04:00-05:00*
G04 #@! TF.ProjectId,Robot,526f626f-742e-46b6-9963-61645f706362,rev?*
G04 #@! TF.SameCoordinates,Original*
G04 #@! TF.FileFunction,Copper,L2,Bot*
G04 #@! TF.FilePolarity,Positive*
%FSLAX46Y46*%
G04 Gerber Fmt 4.6, Leading zero omitted, Abs format (unit mm)*
G04 Created by KiCad (PCBNEW (5.1.4-0-10_14)) date 2019-12-13 09:04:00*
%MOMM*%
%LPD*%
G04 APERTURE LIST*
%ADD10O,1.700000X1.700000*%
%ADD11R,1.700000X1.700000*%
%ADD12C,6.400000*%
%ADD13C,2.500000*%
%ADD14C,4.500000*%
%ADD15O,1.400000X1.400000*%
%ADD16C,1.400000*%
%ADD17C,1.600000*%
%ADD18R,1.600000X1.600000*%
%ADD19C,1.700000*%
%ADD20C,2.600000*%
%ADD21R,2.600000X2.600000*%
%ADD22C,0.800000*%
%ADD23C,1.700000*%
%ADD24C,2.600000*%
%ADD25C,1.000000*%
%ADD26C,0.600000*%
%ADD27C,4.000000*%
G04 APERTURE END LIST*
D10*
X46860000Y-40600000D03*
X49400000Y-40600000D03*
X51940000Y-40600000D03*
X54480000Y-40600000D03*
X57020000Y-40600000D03*
D11*
X59560000Y-40600000D03*
X3674000Y-37879000D03*
D10*
X3674000Y-40419000D03*
D11*
X-36760000Y-60240000D03*
X-36760000Y-48240000D03*
D12*
X-38990000Y-38070000D03*
X-38990000Y-31070000D03*
D13*
X-53090000Y-40030000D03*
X-53090000Y-27030000D03*
D14*
X-47590000Y-37030000D03*
X-47590000Y-30030000D03*
D15*
X-45540000Y-13750000D03*
D16*
X-43000000Y-13750000D03*
D15*
X-43030000Y-16450000D03*
D16*
X-45570000Y-16450000D03*
D17*
X-39020000Y-16390000D03*
D18*
X-39020000Y-13890000D03*
D10*
X16140000Y-47410000D03*
X16140000Y-44870000D03*
X18680000Y-47410000D03*
X18680000Y-44870000D03*
X21220000Y-47410000D03*
X21220000Y-44870000D03*
X23760000Y-47410000D03*
X23760000Y-44870000D03*
X26300000Y-47410000D03*
X26300000Y-44870000D03*
X28840000Y-47410000D03*
X28840000Y-44870000D03*
X31380000Y-47410000D03*
X31380000Y-44870000D03*
X33920000Y-47410000D03*
X33920000Y-44870000D03*
X36460000Y-47410000D03*
X36460000Y-44870000D03*
X39000000Y-47410000D03*
X39000000Y-44870000D03*
X41540000Y-47410000D03*
X41540000Y-44870000D03*
X44080000Y-47410000D03*
X44080000Y-44870000D03*
X46620000Y-47410000D03*
X46620000Y-44870000D03*
X49160000Y-47410000D03*
X49160000Y-44870000D03*
X51700000Y-47410000D03*
X51700000Y-44870000D03*
X54240000Y-47410000D03*
X54240000Y-44870000D03*
X56780000Y-47410000D03*
X56780000Y-44870000D03*
X59320000Y-47410000D03*
X59320000Y-44870000D03*
X61860000Y-47410000D03*
X61860000Y-44870000D03*
X64400000Y-47410000D03*
D11*
X64400000Y-44870000D03*
D10*
X64260000Y-1300000D03*
X64260000Y-3840000D03*
X61720000Y-1300000D03*
X61720000Y-3840000D03*
X59180000Y-1300000D03*
X59180000Y-3840000D03*
X56640000Y-1300000D03*
X56640000Y-3840000D03*
X54100000Y-1300000D03*
X54100000Y-3840000D03*
X51560000Y-1300000D03*
X51560000Y-3840000D03*
X49020000Y-1300000D03*
X49020000Y-3840000D03*
X46480000Y-1300000D03*
X46480000Y-3840000D03*
X43940000Y-1300000D03*
X43940000Y-3840000D03*
X41400000Y-1300000D03*
X41400000Y-3840000D03*
X38860000Y-1300000D03*
X38860000Y-3840000D03*
X36320000Y-1300000D03*
X36320000Y-3840000D03*
X33780000Y-1300000D03*
X33780000Y-3840000D03*
X31240000Y-1300000D03*
X31240000Y-3840000D03*
X28700000Y-1300000D03*
X28700000Y-3840000D03*
X26160000Y-1300000D03*
X26160000Y-3840000D03*
X23620000Y-1300000D03*
X23620000Y-3840000D03*
X21080000Y-1300000D03*
X21080000Y-3840000D03*
X18540000Y-1300000D03*
X18540000Y-3840000D03*
X16000000Y-1300000D03*
D11*
X16000000Y-3840000D03*
D17*
X-5900000Y6200000D03*
D18*
X-5900000Y3700000D03*
D15*
X68932540Y-54897020D03*
D16*
X68932540Y-52357020D03*
D15*
X71440000Y-38150000D03*
D16*
X68900000Y-38150000D03*
D15*
X71540000Y-10200000D03*
D16*
X69000000Y-10200000D03*
D15*
X71540000Y5800000D03*
D16*
X69000000Y5800000D03*
D19*
X-11000000Y-250000D03*
D10*
X-11000000Y-2790000D03*
X-30000000Y-2790000D03*
D19*
X-30000000Y-250000D03*
D10*
X-11000000Y8210000D03*
D19*
X-11000000Y10750000D03*
D10*
X-30000000Y8210000D03*
D11*
X-30000000Y10750000D03*
D19*
X-11000000Y-19653500D03*
D10*
X-11000000Y-22193500D03*
X-30000000Y-22193500D03*
D19*
X-30000000Y-19653500D03*
D10*
X-11000000Y-11193500D03*
D19*
X-11000000Y-8653500D03*
D10*
X-30000000Y-11193500D03*
D11*
X-30000000Y-8653500D03*
D19*
X-11000000Y-38700000D03*
D10*
X-11000000Y-41240000D03*
X-30000000Y-41240000D03*
D19*
X-30000000Y-38700000D03*
D10*
X-11000000Y-30240000D03*
D19*
X-11000000Y-27700000D03*
D10*
X-30000000Y-30240000D03*
D11*
X-30000000Y-27700000D03*
D19*
X-11000000Y-57600000D03*
D10*
X-11000000Y-60140000D03*
X-30000000Y-60140000D03*
D19*
X-30000000Y-57600000D03*
D10*
X-11000000Y-49140000D03*
D19*
X-11000000Y-46600000D03*
D10*
X-30000000Y-49140000D03*
D11*
X-30000000Y-46600000D03*
D19*
X46780000Y-30780000D03*
X44240000Y-30780000D03*
X41700000Y-30780000D03*
X34000000Y-30780000D03*
X31500000Y-30780000D03*
X29000000Y-30780000D03*
X46780000Y-27580000D03*
X44240000Y-27580000D03*
X41700000Y-27580000D03*
X39160000Y-27580000D03*
X36620000Y-27580000D03*
X34080000Y-27580000D03*
X31540000Y-27580000D03*
X29000000Y-27580000D03*
X46780000Y-25040000D03*
X44240000Y-25040000D03*
X41700000Y-25040000D03*
X39160000Y-25040000D03*
X36620000Y-25040000D03*
X34080000Y-25040000D03*
X31540000Y-25040000D03*
X29000000Y-25040000D03*
X46780000Y-22500000D03*
X44240000Y-22500000D03*
X41700000Y-22500000D03*
X39160000Y-22500000D03*
X36620000Y-22500000D03*
X34080000Y-22500000D03*
X31540000Y-22500000D03*
X29000000Y-22500000D03*
D15*
X32222440Y-14759940D03*
D16*
X32222440Y-12219940D03*
D10*
X28801360Y-40619220D03*
X31341360Y-40619220D03*
X33881360Y-40619220D03*
X36421360Y-40619220D03*
X38961360Y-40619220D03*
D11*
X41501360Y-40619220D03*
D10*
X46500000Y6500000D03*
X49040000Y6500000D03*
X51580000Y6500000D03*
X54120000Y6500000D03*
X56660000Y6500000D03*
D11*
X59200000Y6500000D03*
D17*
X-5900420Y-13372460D03*
D18*
X-5900420Y-15872460D03*
D17*
X-6075680Y-33913440D03*
D18*
X-6075680Y-36413440D03*
D17*
X-6050280Y-52026180D03*
D18*
X-6050280Y-54526180D03*
D17*
X-1430000Y6180000D03*
X-1430000Y3680000D03*
X-1513840Y-13372460D03*
X-1513840Y-15872460D03*
X-1699260Y-33913440D03*
X-1699260Y-36413440D03*
X-1402080Y-51995700D03*
X-1402080Y-54495700D03*
X51648360Y-27544400D03*
X51648360Y-25044400D03*
X51650900Y-14492600D03*
X51650900Y-16992600D03*
X45400000Y-14500000D03*
X45400000Y-12000000D03*
D20*
X-56000000Y-8920000D03*
X-56000000Y-14000000D03*
D21*
X-56000000Y-19080000D03*
D20*
X-56000000Y8860000D03*
X-56000000Y3780000D03*
D21*
X-56000000Y-1300000D03*
D20*
X33290000Y-56150000D03*
X38370000Y-56150000D03*
D21*
X43450000Y-56150000D03*
D20*
X49790000Y-56000000D03*
X54870000Y-56000000D03*
D21*
X59950000Y-56000000D03*
D20*
X78150000Y-60010000D03*
X78150000Y-54930000D03*
D21*
X78150000Y-49850000D03*
D20*
X78100000Y-44010000D03*
X78100000Y-38930000D03*
D21*
X78100000Y-33850000D03*
D20*
X78350000Y-15260000D03*
X78350000Y-10180000D03*
D21*
X78350000Y-5100000D03*
D20*
X78300000Y740000D03*
X78300000Y5820000D03*
D21*
X78300000Y10900000D03*
D10*
X14390000Y2160000D03*
X16930000Y2160000D03*
X19470000Y2160000D03*
X22010000Y2160000D03*
X24550000Y2160000D03*
X27090000Y2160000D03*
X29630000Y2160000D03*
X32170000Y2160000D03*
X34710000Y2160000D03*
D11*
X37250000Y2160000D03*
D20*
X16920000Y-56200000D03*
X22000000Y-56200000D03*
D21*
X27080000Y-56200000D03*
D10*
X44250000Y-35150000D03*
X41710000Y-35150000D03*
X39170000Y-35150000D03*
X36630000Y-35150000D03*
X34090000Y-35150000D03*
D11*
X31550000Y-35150000D03*
D22*
X34700000Y13770000D03*
X1660000Y13600000D03*
X13950000Y6990000D03*
X7410000Y-11080000D03*
X7370000Y-19900000D03*
X6170000Y-22730000D03*
X6160000Y-13030000D03*
X4820000Y-20060000D03*
X4810000Y-10690000D03*
X3560000Y-11980000D03*
X3570000Y-21190000D03*
X2360000Y-12790000D03*
X2430000Y-22460000D03*
D23*
X-11500000Y10450000D02*
X-11500000Y7910000D01*
X-11500000Y-8953500D02*
X-11500000Y-11493500D01*
X-11500000Y-28000000D02*
X-11500000Y-30540000D01*
X-11500000Y-46900000D02*
X-11500000Y-49440000D01*
D24*
X-12702081Y-30540000D02*
X-15250000Y-33087919D01*
X-11500000Y-30540000D02*
X-12702081Y-30540000D01*
X-15250000Y-33087919D02*
X-15250000Y-43150000D01*
X-15250000Y-43150000D02*
X-11500000Y-46900000D01*
X-12702081Y-28000000D02*
X-15100000Y-25602081D01*
X-11500000Y-28000000D02*
X-12702081Y-28000000D01*
X-15100000Y-15093500D02*
X-11500000Y-11493500D01*
X-15100000Y-25602081D02*
X-15100000Y-15093500D01*
X-12349999Y-8103501D02*
X-12349999Y-8050001D01*
X-11500000Y-8953500D02*
X-12349999Y-8103501D01*
X-12349999Y-8050001D02*
X-15450000Y-4950000D01*
X-15450000Y3960000D02*
X-11500000Y7910000D01*
X-15450000Y-4950000D02*
X-15450000Y3960000D01*
D23*
X45407400Y-14492600D02*
X45400000Y-14500000D01*
X51650900Y-14492600D02*
X45407400Y-14492600D01*
X-11080000Y-27580000D02*
X-11500000Y-28000000D01*
X29000000Y-27580000D02*
X-6655480Y-27580000D01*
X-9615480Y-30540000D02*
X-11500000Y-30540000D01*
X-6655480Y-27580000D02*
X-9615480Y-30540000D01*
X20310000Y-25115360D02*
X19250660Y-26174700D01*
X19250660Y-26174700D02*
X-7513320Y-26174700D01*
X-7513320Y-26174700D02*
X-10241280Y-28902660D01*
X-10597340Y-28902660D02*
X-11500000Y-28000000D01*
X-10241280Y-28902660D02*
X-10597340Y-28902660D01*
X-6075680Y-28159800D02*
X-6655480Y-27580000D01*
X-6075680Y-33913440D02*
X-6075680Y-28159800D01*
X-1699260Y-33913440D02*
X-6075680Y-33913440D01*
X-9621040Y-13372460D02*
X-11500000Y-11493500D01*
X-5900420Y-13372460D02*
X-9621040Y-13372460D01*
X-5900420Y-13372460D02*
X-1513840Y-13372460D01*
X-11500000Y-49440000D02*
X-11500000Y-49934980D01*
X-9408800Y-52026180D02*
X-6050280Y-52026180D01*
X-11500000Y-49934980D02*
X-9408800Y-52026180D01*
X-1432560Y-52026180D02*
X-1402080Y-51995700D01*
X-6050280Y-52026180D02*
X-1432560Y-52026180D01*
X-9790000Y6200000D02*
X-11500000Y7910000D01*
X-5900000Y6200000D02*
X-9790000Y6200000D01*
X32222440Y-14759940D02*
X27614880Y-14759940D01*
X24973440Y-17401380D02*
X20310000Y-17401380D01*
X27614880Y-14759940D02*
X24973440Y-17401380D01*
X20310000Y-17401380D02*
X20310000Y-25115360D01*
X-1008380Y-51602000D02*
X-1402080Y-51995700D01*
X-1402080Y-51995700D02*
X-1402080Y-42496420D01*
X-1450000Y6200000D02*
X-1430000Y6180000D01*
X-5900000Y6200000D02*
X-1450000Y6200000D01*
X59808740Y-14492600D02*
X51650900Y-14492600D01*
X78350000Y-15260000D02*
X60576140Y-15260000D01*
X60576140Y-15260000D02*
X59808740Y-14492600D01*
X1596580Y-42496420D02*
X3674000Y-40419000D01*
X-1402080Y-42496420D02*
X1596580Y-42496420D01*
X54825900Y-55955900D02*
X54870000Y-56000000D01*
D25*
X46620000Y-47410000D02*
X46620000Y-50020000D01*
X46620000Y-50020000D02*
X48800000Y-52200000D01*
X51070000Y-52200000D02*
X54870000Y-56000000D01*
X48800000Y-52200000D02*
X51070000Y-52200000D01*
X33780000Y-47540000D02*
X33780000Y-50317940D01*
X33780000Y-50317940D02*
X35938460Y-52476400D01*
X35938460Y-52476400D02*
X38326060Y-52476400D01*
X38370000Y-52520340D02*
X38370000Y-56150000D01*
X38326060Y-52476400D02*
X38370000Y-52520340D01*
D23*
X36421360Y-44831360D02*
X36460000Y-44870000D01*
X36421360Y-40619220D02*
X36421360Y-44831360D01*
X39000000Y-44900000D02*
X39038640Y-44938640D01*
X38961360Y-44831360D02*
X39000000Y-44870000D01*
X38961360Y-40619220D02*
X38961360Y-44831360D01*
X-11500000Y-38000000D02*
X-11500000Y-40540000D01*
X-1699260Y-36413440D02*
X-6075680Y-36413440D01*
X-7662240Y-38000000D02*
X-6075680Y-36413440D01*
X-11500000Y-38000000D02*
X-7662240Y-38000000D01*
X2208440Y-36413440D02*
X3674000Y-37879000D01*
X-1699260Y-36413440D02*
X2208440Y-36413440D01*
X31341360Y-44831360D02*
X31380000Y-44870000D01*
X31341360Y-40619220D02*
X31341360Y-44831360D01*
X33881360Y-44831360D02*
X33920000Y-44870000D01*
X33881360Y-40619220D02*
X33881360Y-44831360D01*
X41561360Y-44761360D02*
X41600000Y-44800000D01*
X41501360Y-44831360D02*
X41540000Y-44870000D01*
X41501360Y-40619220D02*
X41501360Y-44831360D01*
X46780000Y-32620000D02*
X44250000Y-35150000D01*
X46780000Y-30780000D02*
X46780000Y-32620000D01*
X44240000Y-30780000D02*
X44240000Y-31507880D01*
X41710000Y-34037880D02*
X41710000Y-35150000D01*
X44240000Y-31507880D02*
X41710000Y-34037880D01*
X39170000Y-33310000D02*
X39170000Y-35150000D01*
X41700000Y-30780000D02*
X39170000Y-33310000D01*
X36630000Y-33410000D02*
X36630000Y-35150000D01*
X34000000Y-30780000D02*
X36630000Y-33410000D01*
X34090000Y-34099998D02*
X34090000Y-35150000D01*
X31500000Y-30780000D02*
X31500000Y-31509998D01*
X31500000Y-31509998D02*
X34090000Y-34099998D01*
D26*
X32222440Y-12219940D02*
X32222440Y-7726680D01*
X32222440Y-7726680D02*
X32677100Y-7272020D01*
X32677100Y-7272020D02*
X54086760Y-7272020D01*
X54086760Y-3853240D02*
X54100000Y-3840000D01*
X54086760Y-7272020D02*
X54086760Y-3853240D01*
D23*
X78280000Y5800000D02*
X78300000Y5820000D01*
X71540000Y5800000D02*
X78280000Y5800000D01*
X71540000Y390000D02*
X71540000Y5800000D01*
X71527919Y377919D02*
X71540000Y390000D01*
X68680000Y-3850000D02*
X68800000Y-3730000D01*
X65472081Y-3850000D02*
X68680000Y-3850000D01*
X64260000Y-3840000D02*
X65462081Y-3840000D01*
X65462081Y-3840000D02*
X65472081Y-3850000D01*
X71497919Y377919D02*
X71580000Y460000D01*
X68700000Y-3850000D02*
X68700000Y377919D01*
X68700000Y377919D02*
X71497919Y377919D01*
X78330000Y-10200000D02*
X78350000Y-10180000D01*
X71540000Y-10200000D02*
X78330000Y-10200000D01*
X71540000Y-6690000D02*
X71540000Y-10200000D01*
X61900000Y-6650000D02*
X71620000Y-6650000D01*
X61750000Y-6500000D02*
X61900000Y-6650000D01*
X61750000Y-5072081D02*
X61750000Y-6500000D01*
X61720000Y-3840000D02*
X61720000Y-5042081D01*
X61720000Y-5042081D02*
X61750000Y-5072081D01*
X-11500000Y-18953500D02*
X-11500000Y-21493500D01*
X-8418960Y-15872460D02*
X-11500000Y-18953500D01*
X-5900420Y-15872460D02*
X-8418960Y-15872460D01*
X-5900420Y-15872460D02*
X-1513840Y-15872460D01*
X-11500000Y450000D02*
X-11500000Y-2090000D01*
X-5900000Y3700000D02*
X-9901700Y3700000D01*
X-11500000Y2101700D02*
X-11500000Y450000D01*
X-9901700Y3700000D02*
X-11500000Y2101700D01*
X350000Y2160000D02*
X14390000Y2160000D01*
X-1450000Y3700000D02*
X-1430000Y3680000D01*
X-5900000Y3700000D02*
X-1450000Y3700000D01*
X-1170000Y3680000D02*
X350000Y2160000D01*
X-1430000Y3680000D02*
X-1170000Y3680000D01*
X-11500000Y-56900000D02*
X-11500000Y-59440000D01*
X-9126180Y-54526180D02*
X-11500000Y-56900000D01*
X-6050280Y-54526180D02*
X-9126180Y-54526180D01*
X-1432560Y-54526180D02*
X-1402080Y-54495700D01*
X-6050280Y-54526180D02*
X-1432560Y-54526180D01*
X78300000Y10900000D02*
X82150000Y10900000D01*
X82150000Y10900000D02*
X82150000Y-5100000D01*
X82150000Y-5100000D02*
X78350000Y-5100000D01*
X78100000Y-33850000D02*
X81700000Y-33850000D01*
X82150000Y-33400000D02*
X81700000Y-33850000D01*
X82150000Y-5100000D02*
X82150000Y-33400000D01*
X82150000Y-33400000D02*
X82150000Y-49850000D01*
X82150000Y-49850000D02*
X78150000Y-49850000D01*
X82150000Y-62010000D02*
X82150000Y-49850000D01*
X81390000Y-62770000D02*
X82150000Y-62010000D01*
X78868002Y-62770000D02*
X81390000Y-62770000D01*
X78808002Y-62830000D02*
X78868002Y-62770000D01*
X81010000Y-62830000D02*
X81100000Y-62740000D01*
X1760000Y-62830000D02*
X81010000Y-62830000D01*
X-1402080Y-54495700D02*
X-1402080Y-59667920D01*
X-1402080Y-59667920D02*
X1760000Y-62830000D01*
X46500000Y-1280000D02*
X46480000Y-1300000D01*
X46500000Y6500000D02*
X46500000Y-1280000D01*
X49040000Y-1280000D02*
X49020000Y-1300000D01*
X49040000Y6500000D02*
X49040000Y-1280000D01*
X51580000Y-1280000D02*
X51560000Y-1300000D01*
X51580000Y6500000D02*
X51580000Y-1280000D01*
X54120000Y-1280000D02*
X54100000Y-1300000D01*
X54120000Y6500000D02*
X54120000Y-1280000D01*
X56660000Y-1280000D02*
X56640000Y-1300000D01*
X56660000Y6500000D02*
X56660000Y-1280000D01*
X59200000Y-1280000D02*
X59180000Y-1300000D01*
X59200000Y6500000D02*
X59200000Y-1280000D01*
D26*
X1830000Y13770000D02*
X1660000Y13600000D01*
X34700000Y13770000D02*
X1830000Y13770000D01*
D23*
X29000000Y-32600000D02*
X31550000Y-35150000D01*
X29000000Y-30780000D02*
X29000000Y-32600000D01*
X16000000Y-56160000D02*
X16090000Y-56250000D01*
X16090000Y-56250000D02*
X16090000Y-51290000D01*
X16140000Y-51200000D02*
X16140000Y-47870000D01*
X20800000Y-51521360D02*
X25577740Y-51521360D01*
X27000000Y-52800000D02*
X27000000Y-56272240D01*
X25543600Y-51521360D02*
X26800000Y-52777760D01*
X18680000Y-49385500D02*
X18680000Y-47410000D01*
X20800000Y-51400000D02*
X18664140Y-49264140D01*
D25*
X59888120Y-55938120D02*
X59950000Y-56000000D01*
X59950000Y-53700000D02*
X59950000Y-56000000D01*
X59650000Y-53400000D02*
X59950000Y-53700000D01*
X54200000Y-50400000D02*
X57200000Y-53400000D01*
X49600000Y-50400000D02*
X54200000Y-50400000D01*
X49160000Y-49960000D02*
X49600000Y-50400000D01*
X57200000Y-53400000D02*
X59650000Y-53400000D01*
X49160000Y-47410000D02*
X49160000Y-49960000D01*
X36320000Y-47540000D02*
X36320000Y-49601660D01*
X36320000Y-49601660D02*
X37566600Y-50848260D01*
X37566600Y-50848260D02*
X43474640Y-50848260D01*
X43474640Y-56125360D02*
X43450000Y-56150000D01*
X43474640Y-50848260D02*
X43474640Y-56125360D01*
D23*
X68900000Y-52324480D02*
X68932540Y-52357020D01*
X68900000Y-38150000D02*
X68900000Y-52324480D01*
D26*
X68970000Y5830000D02*
X68970000Y10770000D01*
X69000000Y5800000D02*
X68970000Y5830000D01*
X14870000Y6160000D02*
X14850000Y6140000D01*
X14870000Y6160000D02*
X14780000Y6160000D01*
X14780000Y6160000D02*
X13950000Y6990000D01*
X42310000Y6160000D02*
X14870000Y6160000D01*
X42370000Y6220000D02*
X42310000Y6160000D01*
X42370000Y10750000D02*
X42370000Y6220000D01*
X68970000Y10720000D02*
X68940000Y10750000D01*
X68940000Y10750000D02*
X42370000Y10750000D01*
D23*
X28801360Y-44831360D02*
X28840000Y-44870000D01*
X28801360Y-40619220D02*
X28801360Y-44831360D01*
X-39160000Y-13750000D02*
X-39020000Y-13890000D01*
X-43000000Y-13750000D02*
X-39160000Y-13750000D01*
X-45570000Y-13780000D02*
X-45540000Y-13750000D01*
X-45570000Y-16450000D02*
X-45570000Y-13780000D01*
X41380000Y-1280000D02*
X41400000Y-1300000D01*
X38840000Y-1280000D02*
X38860000Y-1300000D01*
X36300000Y-1280000D02*
X36320000Y-1300000D01*
X33760000Y-1280000D02*
X33780000Y-1300000D01*
X31220000Y-1280000D02*
X31240000Y-1300000D01*
D26*
X7410000Y-11080000D02*
X7370000Y-11120000D01*
X7370000Y-11120000D02*
X7370000Y-19900000D01*
X6170000Y-22730000D02*
X6170000Y-13040000D01*
X6170000Y-13040000D02*
X6160000Y-13030000D01*
X4820000Y-20060000D02*
X4810000Y-20050000D01*
X4810000Y-20050000D02*
X4810000Y-10690000D01*
X3560000Y-11980000D02*
X3560000Y-21180000D01*
X3560000Y-21180000D02*
X3570000Y-21190000D01*
X2360000Y-12790000D02*
X2380000Y-12810000D01*
X2380000Y-12810000D02*
X2380000Y-22410000D01*
X2380000Y-22410000D02*
X2430000Y-22460000D01*
D23*
X-29500000Y10450000D02*
X-29500000Y7910000D01*
X-29500000Y-8953500D02*
X-29500000Y-11493500D01*
X-29500000Y-28000000D02*
X-29500000Y-30540000D01*
X-29500000Y-46900000D02*
X-29500000Y-49440000D01*
D24*
X-21090000Y7910000D02*
X-21150000Y7850000D01*
X-21156500Y-11493500D02*
X-21150000Y-11500000D01*
X-21156500Y-30406500D02*
X-21290000Y-30540000D01*
D27*
X-21156500Y-30406500D02*
X-21156500Y-46893500D01*
D24*
X-21156500Y-46893500D02*
X-21163000Y-46900000D01*
X-23810000Y-30240000D02*
X-23810000Y-30540000D01*
X-26050000Y-28000000D02*
X-23810000Y-30240000D01*
X-29500000Y-28000000D02*
X-26050000Y-28000000D01*
X-21290000Y-30540000D02*
X-23810000Y-30540000D01*
X-23810000Y-30540000D02*
X-29500000Y-30540000D01*
X-23510000Y-11493500D02*
X-21956500Y-11493500D01*
D27*
X-29500000Y-11493500D02*
X-21956500Y-11493500D01*
X-21956500Y-11493500D02*
X-21156500Y-11493500D01*
D24*
X-23510000Y7910000D02*
X-22210000Y7910000D01*
D27*
X-29500000Y7910000D02*
X-22210000Y7910000D01*
X-22210000Y7910000D02*
X-21090000Y7910000D01*
D24*
X-26050000Y-8953500D02*
X-26046500Y-8950000D01*
X-29500000Y-8953500D02*
X-26050000Y-8953500D01*
X-26046500Y-8950000D02*
X-23350000Y-8950000D01*
X-20650000Y8150000D02*
X-21150000Y7650000D01*
X-20650000Y10450000D02*
X-20650000Y8150000D01*
X-29500000Y10450000D02*
X-20650000Y10450000D01*
D27*
X-21150000Y7850000D02*
X-21150000Y7650000D01*
X-21150000Y7650000D02*
X-21150000Y-11500000D01*
D24*
X-22900000Y-28000000D02*
X-21156500Y-26256500D01*
X-26050000Y-28000000D02*
X-22900000Y-28000000D01*
D27*
X-21156500Y-11493500D02*
X-21156500Y-26256500D01*
X-21156500Y-26256500D02*
X-21156500Y-30406500D01*
X-56000000Y-13900000D02*
X-55900000Y-14000000D01*
X-56000000Y-8920000D02*
X-56000000Y-13900000D01*
X-55900000Y-18980000D02*
X-56000000Y-19080000D01*
X-55900000Y-14000000D02*
X-55900000Y-18980000D01*
D24*
X-29500000Y-49440000D02*
X-28297919Y-49440000D01*
X-28297919Y-49440000D02*
X-28287919Y-49450000D01*
X-23703000Y-49440000D02*
X-21156500Y-46893500D01*
X-29500000Y-49440000D02*
X-23703000Y-49440000D01*
D27*
X-21163000Y-46900000D02*
X-29500000Y-46900000D01*
D23*
X-39080000Y-16450000D02*
X-39020000Y-16390000D01*
X-43030000Y-16450000D02*
X-39080000Y-16450000D01*
D27*
X-47600000Y-36750000D02*
X-47000000Y-36750000D01*
X-30450000Y-47050000D02*
X-30000000Y-46600000D01*
X-30000000Y-46600000D02*
X-30000000Y-49140000D01*
X-30000000Y-49140000D02*
X-20950000Y-49140000D01*
X-20950000Y-47113000D02*
X-21163000Y-46900000D01*
X-20950000Y-49140000D02*
X-20950000Y-47113000D01*
D23*
X-34396500Y-16390000D02*
X-29500000Y-11493500D01*
X-39020000Y-16390000D02*
X-34396500Y-16390000D01*
D27*
X-30000000Y8210000D02*
X-30000000Y10750000D01*
X-30000000Y-27700000D02*
X-30000000Y-30240000D01*
X-56000000Y-19080000D02*
X-60680000Y-19080000D01*
X-60680000Y-19080000D02*
X-60600000Y-19160000D01*
X-60600000Y-19160000D02*
X-60600000Y-31400000D01*
X-60600000Y-31400000D02*
X-56440000Y-35560000D01*
X-49060000Y-35560000D02*
X-47590000Y-37030000D01*
X-56440000Y-35560000D02*
X-49060000Y-35560000D01*
X-47590000Y-37030000D02*
X-46720000Y-37030000D01*
X-40030000Y-37030000D02*
X-38990000Y-38070000D01*
X-47590000Y-37030000D02*
X-40030000Y-37030000D01*
X-38990000Y-38070000D02*
X-38990000Y-39680000D01*
X-32070000Y-46600000D02*
X-30000000Y-46600000D01*
X-38990000Y-38070000D02*
X-36510000Y-38070000D01*
X-30000000Y-31560000D02*
X-30000000Y-30240000D01*
X-36510000Y-38070000D02*
X-30000000Y-31560000D01*
X-38990000Y-38070000D02*
X-36140000Y-38070000D01*
X-36140000Y-38070000D02*
X-35170000Y-39040000D01*
X-35170000Y-40700000D02*
X-36570000Y-42100000D01*
X-35170000Y-39040000D02*
X-35170000Y-40700000D01*
X-38990000Y-39680000D02*
X-36570000Y-42100000D01*
X-36570000Y-42100000D02*
X-32070000Y-46600000D01*
D23*
X-30000000Y-49140000D02*
X-30000000Y-49820000D01*
X-36760000Y-56580000D02*
X-36760000Y-60240000D01*
X-30000000Y-49820000D02*
X-36760000Y-56580000D01*
X-56300000Y-2100000D02*
X-57000000Y-1400000D01*
D27*
X-47600000Y-29750000D02*
X-44510000Y-29750000D01*
X-30000000Y-22193500D02*
X-30000000Y-19653500D01*
X-40030000Y-30030000D02*
X-38990000Y-31070000D01*
X-36953500Y-22193500D02*
X-36953500Y-23153500D01*
X-47590000Y-30030000D02*
X-43830000Y-30030000D01*
X-43830000Y-30030000D02*
X-40030000Y-30030000D01*
X-39810000Y-26010000D02*
X-43830000Y-30030000D01*
X-36953500Y-23153500D02*
X-39810000Y-26010000D01*
X-38990000Y-31070000D02*
X-38990000Y-29070000D01*
X-36953500Y-22193500D02*
X-32113500Y-22193500D01*
X-32113500Y-22193500D02*
X-30000000Y-22193500D01*
X-35800000Y-27880000D02*
X-38990000Y-31070000D01*
X-35800000Y-25880000D02*
X-35800000Y-27880000D01*
X-35800000Y-25880000D02*
X-32113500Y-22193500D01*
X-38990000Y-29070000D02*
X-35800000Y-25880000D01*
X-44790000Y-30030000D02*
X-36953500Y-22193500D01*
X-47590000Y-30030000D02*
X-44790000Y-30030000D01*
D25*
X46860000Y-44630000D02*
X46620000Y-44870000D01*
X46860000Y-40600000D02*
X46860000Y-44630000D01*
X49400000Y-40600000D02*
X49400000Y-44630000D01*
X51940000Y-44630000D02*
X51700000Y-44870000D01*
X51940000Y-40600000D02*
X51940000Y-44630000D01*
X54480000Y-44630000D02*
X54240000Y-44870000D01*
X54480000Y-40600000D02*
X54480000Y-44630000D01*
X57020000Y-44630000D02*
X56780000Y-44870000D01*
X57020000Y-40600000D02*
X57020000Y-44630000D01*
X59560000Y-44630000D02*
X59320000Y-44870000D01*
X59560000Y-40600000D02*
X59560000Y-44630000D01*
M02*
