G04 #@! TF.GenerationSoftware,KiCad,Pcbnew,(5.1.4-0-10_14)*
G04 #@! TF.CreationDate,2019-10-14T13:09:17-04:00*
G04 #@! TF.ProjectId,Robot,526f626f-742e-46b6-9963-61645f706362,rev?*
G04 #@! TF.SameCoordinates,Original*
G04 #@! TF.FileFunction,Copper,L2,Bot*
G04 #@! TF.FilePolarity,Positive*
%FSLAX46Y46*%
G04 Gerber Fmt 4.6, Leading zero omitted, Abs format (unit mm)*
G04 Created by KiCad (PCBNEW (5.1.4-0-10_14)) date 2019-10-14 13:09:17*
%MOMM*%
%LPD*%
G04 APERTURE LIST*
%ADD10R,1.700000X1.700000*%
%ADD11C,1.700000*%
%ADD12C,1.600000*%
%ADD13R,1.600000X1.600000*%
%ADD14O,1.700000X1.700000*%
%ADD15O,1.400000X1.400000*%
%ADD16C,1.400000*%
%ADD17C,3.000000*%
%ADD18C,4.000000*%
%ADD19C,2.600000*%
%ADD20R,2.600000X2.600000*%
%ADD21C,1.700000*%
%ADD22C,2.600000*%
%ADD23C,4.000000*%
%ADD24C,1.000000*%
%ADD25C,0.600000*%
G04 APERTURE END LIST*
D10*
X-36700000Y-46350000D03*
X-36700000Y-59050000D03*
D11*
X12690000Y-38050000D03*
X15230000Y-38050000D03*
X17770000Y-38050000D03*
X20310000Y-38050000D03*
X22850000Y-38050000D03*
X2530000Y-12650000D03*
X5070000Y-12650000D03*
X7610000Y-12650000D03*
X10150000Y-12650000D03*
X12690000Y-12650000D03*
X15230000Y-12650000D03*
X17770000Y-12650000D03*
X20310000Y-12650000D03*
D10*
X22850000Y-12650000D03*
D12*
X-5900000Y6200000D03*
D13*
X-5900000Y3700000D03*
D14*
X14615160Y-41516300D03*
X17155160Y-41516300D03*
X19695160Y-41516300D03*
X22235160Y-41516300D03*
D10*
X24775160Y-41516300D03*
D15*
X74932540Y-54897020D03*
D16*
X74932540Y-52357020D03*
D15*
X77440000Y-38150000D03*
D16*
X74900000Y-38150000D03*
D15*
X77540000Y-10200000D03*
D16*
X75000000Y-10200000D03*
D15*
X77540000Y5800000D03*
D16*
X75000000Y5800000D03*
D11*
X-11000000Y-250000D03*
D14*
X-11000000Y-2790000D03*
X-30000000Y-2790000D03*
D11*
X-30000000Y-250000D03*
D14*
X-11000000Y8210000D03*
D11*
X-11000000Y10750000D03*
D14*
X-30000000Y8210000D03*
D10*
X-30000000Y10750000D03*
D11*
X-11000000Y-19653500D03*
D14*
X-11000000Y-22193500D03*
X-30000000Y-22193500D03*
D11*
X-30000000Y-19653500D03*
D14*
X-11000000Y-11193500D03*
D11*
X-11000000Y-8653500D03*
D14*
X-30000000Y-11193500D03*
D10*
X-30000000Y-8653500D03*
D11*
X-11000000Y-38700000D03*
D14*
X-11000000Y-41240000D03*
X-30000000Y-41240000D03*
D11*
X-30000000Y-38700000D03*
D14*
X-11000000Y-30240000D03*
D11*
X-11000000Y-27700000D03*
D14*
X-30000000Y-30240000D03*
D10*
X-30000000Y-27700000D03*
D11*
X-11000000Y-57600000D03*
D14*
X-11000000Y-60140000D03*
X-30000000Y-60140000D03*
D11*
X-30000000Y-57600000D03*
D14*
X-11000000Y-49140000D03*
D11*
X-11000000Y-46600000D03*
D14*
X-30000000Y-49140000D03*
D10*
X-30000000Y-46600000D03*
D11*
X46780000Y-30780000D03*
X44240000Y-30780000D03*
X41700000Y-30780000D03*
X34000000Y-30780000D03*
X31500000Y-30780000D03*
X29000000Y-30780000D03*
X46780000Y-27580000D03*
X44240000Y-27580000D03*
X41700000Y-27580000D03*
X39160000Y-27580000D03*
X36620000Y-27580000D03*
X34080000Y-27580000D03*
X31540000Y-27580000D03*
X29000000Y-27580000D03*
X46780000Y-25040000D03*
X44240000Y-25040000D03*
X41700000Y-25040000D03*
X39160000Y-25040000D03*
X36620000Y-25040000D03*
X34080000Y-25040000D03*
X31540000Y-25040000D03*
X29000000Y-25040000D03*
X46780000Y-22500000D03*
X44240000Y-22500000D03*
X41700000Y-22500000D03*
X39160000Y-22500000D03*
X36620000Y-22500000D03*
X34080000Y-22500000D03*
X31540000Y-22500000D03*
X29000000Y-22500000D03*
X15540000Y-47410000D03*
X15540000Y-44870000D03*
X18080000Y-47410000D03*
X18080000Y-44870000D03*
X20620000Y-47410000D03*
X20620000Y-44870000D03*
X23160000Y-47410000D03*
X23160000Y-44870000D03*
X25700000Y-47410000D03*
X25700000Y-44870000D03*
X28240000Y-47410000D03*
X28240000Y-44870000D03*
X30780000Y-47410000D03*
X30780000Y-44870000D03*
X33320000Y-47410000D03*
X33320000Y-44870000D03*
X35860000Y-47410000D03*
X35860000Y-44870000D03*
X38400000Y-47410000D03*
X38400000Y-44870000D03*
X40940000Y-47410000D03*
X40940000Y-44870000D03*
X43480000Y-47410000D03*
X43480000Y-44870000D03*
X46020000Y-47410000D03*
X46020000Y-44870000D03*
X48560000Y-47410000D03*
X48560000Y-44870000D03*
X51100000Y-47410000D03*
X51100000Y-44870000D03*
X53640000Y-47410000D03*
X53640000Y-44870000D03*
X56180000Y-47410000D03*
X56180000Y-44870000D03*
X58720000Y-47410000D03*
X58720000Y-44870000D03*
X61260000Y-47410000D03*
X61260000Y-44870000D03*
X63800000Y-47410000D03*
D10*
X63800000Y-44870000D03*
D15*
X32222440Y-14759940D03*
D16*
X32222440Y-12219940D03*
D15*
X5067300Y-9037320D03*
D16*
X5067300Y-6497320D03*
D15*
X2532380Y-9047480D03*
D16*
X2532380Y-6507480D03*
D14*
X28201360Y-40619220D03*
X30741360Y-40619220D03*
X33281360Y-40619220D03*
X35821360Y-40619220D03*
X38361360Y-40619220D03*
D10*
X40901360Y-40619220D03*
D14*
X28680000Y6500000D03*
X31220000Y6500000D03*
X33760000Y6500000D03*
X36300000Y6500000D03*
X38840000Y6500000D03*
D10*
X41380000Y6500000D03*
D14*
X46500000Y6500000D03*
X49040000Y6500000D03*
X51580000Y6500000D03*
X54120000Y6500000D03*
X56660000Y6500000D03*
D10*
X59200000Y6500000D03*
D12*
X-5900420Y-13372460D03*
D13*
X-5900420Y-15872460D03*
D12*
X-6075680Y-33913440D03*
D13*
X-6075680Y-36413440D03*
D12*
X-6050280Y-52026180D03*
D13*
X-6050280Y-54526180D03*
D12*
X-300000Y6200000D03*
X-300000Y3700000D03*
X-1513840Y-13372460D03*
X-1513840Y-15872460D03*
X-1699260Y-33913440D03*
X-1699260Y-36413440D03*
X-1402080Y-51995700D03*
X-1402080Y-54495700D03*
X65244340Y-32979360D03*
X67744340Y-32979360D03*
X51648360Y-27544400D03*
X51648360Y-25044400D03*
X51650900Y-14492600D03*
X51650900Y-16992600D03*
X45400000Y-14500000D03*
X45400000Y-12000000D03*
X20350000Y-9000000D03*
X22850000Y-9000000D03*
D14*
X-37650000Y-2110000D03*
D10*
X-37650000Y-4650000D03*
D14*
X1674620Y-39419720D03*
D10*
X1674620Y-36879720D03*
D17*
X-53100000Y-39750000D03*
X-53100000Y-26750000D03*
D18*
X-47600000Y-36750000D03*
X-47600000Y-29750000D03*
D11*
X64260000Y-1300000D03*
X64260000Y-3840000D03*
X61720000Y-1300000D03*
X61720000Y-3840000D03*
X59180000Y-1300000D03*
X59180000Y-3840000D03*
X56640000Y-1300000D03*
X56640000Y-3840000D03*
X54100000Y-1300000D03*
X54100000Y-3840000D03*
X51560000Y-1300000D03*
X51560000Y-3840000D03*
X49020000Y-1300000D03*
X49020000Y-3840000D03*
X46480000Y-1300000D03*
X46480000Y-3840000D03*
X43940000Y-1300000D03*
X43940000Y-3840000D03*
X41400000Y-1300000D03*
X41400000Y-3840000D03*
X38860000Y-1300000D03*
X38860000Y-3840000D03*
X36320000Y-1300000D03*
X36320000Y-3840000D03*
X33780000Y-1300000D03*
X33780000Y-3840000D03*
X31240000Y-1300000D03*
X31240000Y-3840000D03*
X28700000Y-1300000D03*
X28700000Y-3840000D03*
X26160000Y-1300000D03*
X26160000Y-3840000D03*
X23620000Y-1300000D03*
X23620000Y-3840000D03*
X21080000Y-1300000D03*
X21080000Y-3840000D03*
X18540000Y-1300000D03*
X18540000Y-3840000D03*
X16000000Y-1300000D03*
D10*
X16000000Y-3840000D03*
D19*
X-56000000Y-8920000D03*
X-56000000Y-14000000D03*
D20*
X-56000000Y-19080000D03*
D19*
X-56000000Y8860000D03*
X-56000000Y3780000D03*
D20*
X-56000000Y-1300000D03*
D19*
X33290000Y-56150000D03*
X38370000Y-56150000D03*
D20*
X43450000Y-56150000D03*
D19*
X49790000Y-56000000D03*
X54870000Y-56000000D03*
D20*
X59950000Y-56000000D03*
D19*
X84150000Y-60010000D03*
X84150000Y-54930000D03*
D20*
X84150000Y-49850000D03*
D19*
X84100000Y-44010000D03*
X84100000Y-38930000D03*
D20*
X84100000Y-33850000D03*
D19*
X84350000Y-15260000D03*
X84350000Y-10180000D03*
D20*
X84350000Y-5100000D03*
D19*
X84300000Y740000D03*
X84300000Y5820000D03*
D20*
X84300000Y10900000D03*
D14*
X92650000Y-36160000D03*
X92650000Y-33620000D03*
X92650000Y-31080000D03*
X92650000Y-28540000D03*
X92650000Y-26000000D03*
X92650000Y-23460000D03*
X92650000Y-20920000D03*
X92650000Y-18380000D03*
X92650000Y-15840000D03*
D10*
X92650000Y-13300000D03*
D19*
X16090000Y-56250000D03*
X21170000Y-56250000D03*
D20*
X26250000Y-56250000D03*
D14*
X44250000Y-35150000D03*
X41710000Y-35150000D03*
X39170000Y-35150000D03*
X36630000Y-35150000D03*
X34090000Y-35150000D03*
D10*
X31550000Y-35150000D03*
D21*
X-56300000Y-2100000D02*
X-57000000Y-1400000D01*
X-11500000Y10450000D02*
X-11500000Y7910000D01*
X-11500000Y-8953500D02*
X-11500000Y-11493500D01*
X-11500000Y-28000000D02*
X-11500000Y-30540000D01*
X-11500000Y-46900000D02*
X-11500000Y-49440000D01*
X-5900000Y6200000D02*
X-300000Y6200000D01*
D22*
X-12702081Y-30540000D02*
X-15250000Y-33087919D01*
X-11500000Y-30540000D02*
X-12702081Y-30540000D01*
X-15250000Y-33087919D02*
X-15250000Y-43150000D01*
X-15250000Y-43150000D02*
X-11500000Y-46900000D01*
X-12702081Y-28000000D02*
X-15100000Y-25602081D01*
X-11500000Y-28000000D02*
X-12702081Y-28000000D01*
X-15100000Y-15093500D02*
X-11500000Y-11493500D01*
X-15100000Y-25602081D02*
X-15100000Y-15093500D01*
X-12349999Y-8103501D02*
X-12349999Y-8050001D01*
X-11500000Y-8953500D02*
X-12349999Y-8103501D01*
X-12349999Y-8050001D02*
X-15450000Y-4950000D01*
X-15450000Y3960000D02*
X-11500000Y7910000D01*
X-15450000Y-4950000D02*
X-15450000Y3960000D01*
D21*
X45407400Y-14492600D02*
X45400000Y-14500000D01*
X51650900Y-14492600D02*
X45407400Y-14492600D01*
X-11080000Y-27580000D02*
X-11500000Y-28000000D01*
X20310000Y-12650000D02*
X20310000Y-12922002D01*
X29000000Y-27580000D02*
X-6655480Y-27580000D01*
X-9615480Y-30540000D02*
X-11500000Y-30540000D01*
X-6655480Y-27580000D02*
X-9615480Y-30540000D01*
X20310000Y-25115360D02*
X19250660Y-26174700D01*
X19250660Y-26174700D02*
X-7513320Y-26174700D01*
X-7513320Y-26174700D02*
X-10241280Y-28902660D01*
X-10597340Y-28902660D02*
X-11500000Y-28000000D01*
X-10241280Y-28902660D02*
X-10597340Y-28902660D01*
X-6075680Y-28159800D02*
X-6655480Y-27580000D01*
X-6075680Y-33913440D02*
X-6075680Y-28159800D01*
X-1699260Y-33913440D02*
X-6075680Y-33913440D01*
X-9621040Y-13372460D02*
X-11500000Y-11493500D01*
X-5900420Y-13372460D02*
X-9621040Y-13372460D01*
X-5900420Y-13372460D02*
X-1513840Y-13372460D01*
X-11500000Y-49440000D02*
X-11500000Y-49934980D01*
X-9408800Y-52026180D02*
X-6050280Y-52026180D01*
X-11500000Y-49934980D02*
X-9408800Y-52026180D01*
X-1432560Y-52026180D02*
X-1402080Y-51995700D01*
X-6050280Y-52026180D02*
X-1432560Y-52026180D01*
X-9790000Y6200000D02*
X-11500000Y7910000D01*
X-5900000Y6200000D02*
X-9790000Y6200000D01*
X32222440Y-14759940D02*
X27614880Y-14759940D01*
X24973440Y-17401380D02*
X20310000Y-17401380D01*
X27614880Y-14759940D02*
X24973440Y-17401380D01*
X20310000Y-12650000D02*
X20310000Y-17401380D01*
X20310000Y-17401380D02*
X20310000Y-25115360D01*
X20350000Y-12610000D02*
X20310000Y-12650000D01*
X20350000Y-9000000D02*
X20350000Y-12610000D01*
X84350000Y-15260000D02*
X60576140Y-15260000D01*
X59808740Y-14492600D02*
X51650900Y-14492600D01*
X60576140Y-15260000D02*
X59808740Y-14492600D01*
X65244340Y-32979360D02*
X52092860Y-32979360D01*
X51648360Y-32534860D02*
X52092860Y-32979360D01*
X51648360Y-27544400D02*
X51648360Y-32534860D01*
X-1008380Y-51602000D02*
X-1402080Y-51995700D01*
X-1402080Y-42496420D02*
X1674620Y-39419720D01*
X-1402080Y-51995700D02*
X-1402080Y-42496420D01*
X-29500000Y10450000D02*
X-29500000Y7910000D01*
X-29500000Y-8953500D02*
X-29500000Y-11493500D01*
X-29500000Y-28000000D02*
X-29500000Y-30540000D01*
X-29500000Y-46900000D02*
X-29500000Y-49440000D01*
D22*
X-21090000Y7910000D02*
X-21150000Y7850000D01*
X-21156500Y-11493500D02*
X-21150000Y-11500000D01*
X-21156500Y-30406500D02*
X-21290000Y-30540000D01*
D23*
X-21156500Y-30406500D02*
X-21156500Y-46893500D01*
X-21163000Y-46900000D02*
X-29500000Y-46900000D01*
D22*
X-21156500Y-46893500D02*
X-21163000Y-46900000D01*
D23*
X-30290000Y-29750000D02*
X-29500000Y-30540000D01*
X-47600000Y-29750000D02*
X-30290000Y-29750000D01*
D22*
X-23810000Y-30240000D02*
X-23810000Y-30540000D01*
X-26050000Y-28000000D02*
X-23810000Y-30240000D01*
X-29500000Y-28000000D02*
X-26050000Y-28000000D01*
X-21290000Y-30540000D02*
X-23810000Y-30540000D01*
X-23810000Y-30540000D02*
X-29500000Y-30540000D01*
X-23510000Y-11493500D02*
X-21956500Y-11493500D01*
D23*
X-29500000Y-11493500D02*
X-21956500Y-11493500D01*
X-21956500Y-11493500D02*
X-21156500Y-11493500D01*
D22*
X-23510000Y7910000D02*
X-22210000Y7910000D01*
D23*
X-29500000Y7910000D02*
X-22210000Y7910000D01*
X-22210000Y7910000D02*
X-21090000Y7910000D01*
D22*
X-26050000Y-8953500D02*
X-26046500Y-8950000D01*
X-29500000Y-8953500D02*
X-26050000Y-8953500D01*
X-26046500Y-8950000D02*
X-23350000Y-8950000D01*
X-20650000Y8150000D02*
X-21150000Y7650000D01*
X-20650000Y10450000D02*
X-20650000Y8150000D01*
X-29500000Y10450000D02*
X-20650000Y10450000D01*
D23*
X-21150000Y7850000D02*
X-21150000Y7650000D01*
X-21150000Y7650000D02*
X-21150000Y-11500000D01*
D22*
X-22900000Y-28000000D02*
X-21156500Y-26256500D01*
X-26050000Y-28000000D02*
X-22900000Y-28000000D01*
D23*
X-21156500Y-11493500D02*
X-21156500Y-26256500D01*
X-21156500Y-26256500D02*
X-21156500Y-30406500D01*
D22*
X-28297919Y-49440000D02*
X-28287919Y-49450000D01*
X-29500000Y-49440000D02*
X-28297919Y-49440000D01*
X-23703000Y-49440000D02*
X-21156500Y-46893500D01*
X-29500000Y-49440000D02*
X-23703000Y-49440000D01*
D23*
X-56000000Y-13900000D02*
X-55900000Y-14000000D01*
X-56000000Y-8920000D02*
X-56000000Y-13900000D01*
X-55900000Y-18980000D02*
X-56000000Y-19080000D01*
X-55900000Y-14000000D02*
X-55900000Y-18980000D01*
X-47600000Y-19100000D02*
X-47600000Y-29750000D01*
X-56000000Y-19080000D02*
X-47620000Y-19080000D01*
X-47620000Y-19080000D02*
X-47600000Y-19100000D01*
D22*
X-33000000Y-46400000D02*
X-36700000Y-46350000D01*
X-29500000Y-46900000D02*
X-33000000Y-46400000D01*
D21*
X38840000Y-1280000D02*
X38860000Y-1300000D01*
X38840000Y6500000D02*
X38840000Y-1280000D01*
X46000000Y-47327998D02*
X46000000Y-47600000D01*
X54825900Y-55955900D02*
X54870000Y-56000000D01*
D24*
X46480000Y-47540000D02*
X46480000Y-52200080D01*
X46480000Y-52200080D02*
X46512480Y-52232560D01*
X46480000Y-52200080D02*
X46480000Y-59918060D01*
X46480000Y-59918060D02*
X46546580Y-59984640D01*
X46546580Y-59984640D02*
X54818280Y-59984640D01*
X54870000Y-59932920D02*
X54870000Y-56000000D01*
X54818280Y-59984640D02*
X54870000Y-59932920D01*
X33780000Y-47540000D02*
X33780000Y-50317940D01*
X33780000Y-50317940D02*
X35938460Y-52476400D01*
X35938460Y-52476400D02*
X38326060Y-52476400D01*
X38370000Y-52520340D02*
X38370000Y-56150000D01*
X38326060Y-52476400D02*
X38370000Y-52520340D01*
X19695160Y-43615160D02*
X21080000Y-45000000D01*
X19695160Y-41516300D02*
X19695160Y-43615160D01*
X22235160Y-43615160D02*
X23620000Y-45000000D01*
X22235160Y-41516300D02*
X22235160Y-43615160D01*
D21*
X35821360Y-44831360D02*
X35860000Y-44870000D01*
X35821360Y-40619220D02*
X35821360Y-44831360D01*
X38400000Y-44900000D02*
X38438640Y-44938640D01*
X38361360Y-44831360D02*
X38400000Y-44870000D01*
X38361360Y-40619220D02*
X38361360Y-44831360D01*
X-11500000Y-38000000D02*
X-11500000Y-40540000D01*
X-1699260Y-36413440D02*
X-6075680Y-36413440D01*
X-7662240Y-38000000D02*
X-6075680Y-36413440D01*
X-11500000Y-38000000D02*
X-7662240Y-38000000D01*
X1208340Y-36413440D02*
X1674620Y-36879720D01*
X-1699260Y-36413440D02*
X1208340Y-36413440D01*
X28700000Y6480000D02*
X28680000Y6500000D01*
X28700000Y-1300000D02*
X28700000Y6480000D01*
X31220000Y-1280000D02*
X31240000Y-1300000D01*
X31220000Y6500000D02*
X31220000Y-1280000D01*
X33760000Y-1280000D02*
X33780000Y-1300000D01*
X33760000Y6500000D02*
X33760000Y-1280000D01*
X36300000Y-1280000D02*
X36320000Y-1300000D01*
X36300000Y6500000D02*
X36300000Y-1280000D01*
X41380000Y-1280000D02*
X41400000Y-1300000D01*
X41380000Y6500000D02*
X41380000Y-1280000D01*
D24*
X14615160Y-43615160D02*
X16000000Y-45000000D01*
X14615160Y-41516300D02*
X14615160Y-43615160D01*
X17155160Y-43615160D02*
X18540000Y-45000000D01*
X17155160Y-41516300D02*
X17155160Y-43615160D01*
X24775160Y-43615160D02*
X26160000Y-45000000D01*
X24775160Y-41516300D02*
X24775160Y-43615160D01*
D21*
X30741360Y-44831360D02*
X30780000Y-44870000D01*
X30741360Y-40619220D02*
X30741360Y-44831360D01*
X33281360Y-44831360D02*
X33320000Y-44870000D01*
X33281360Y-40619220D02*
X33281360Y-44831360D01*
X40961360Y-44761360D02*
X41000000Y-44800000D01*
X40901360Y-44831360D02*
X40940000Y-44870000D01*
X40901360Y-40619220D02*
X40901360Y-44831360D01*
X46780000Y-32620000D02*
X44250000Y-35150000D01*
X46780000Y-30780000D02*
X46780000Y-32620000D01*
X44240000Y-30780000D02*
X44240000Y-31507880D01*
X41710000Y-34037880D02*
X41710000Y-35150000D01*
X44240000Y-31507880D02*
X41710000Y-34037880D01*
X39170000Y-33310000D02*
X39170000Y-35150000D01*
X41700000Y-30780000D02*
X39170000Y-33310000D01*
X36630000Y-33410000D02*
X36630000Y-35150000D01*
X34000000Y-30780000D02*
X36630000Y-33410000D01*
X34090000Y-34099998D02*
X34090000Y-35150000D01*
X31500000Y-30780000D02*
X31500000Y-31509998D01*
X31500000Y-31509998D02*
X34090000Y-34099998D01*
X-29510000Y-2100000D02*
X-29500000Y-2090000D01*
D25*
X32222440Y-12219940D02*
X32222440Y-7726680D01*
X32222440Y-7726680D02*
X32677100Y-7272020D01*
X32677100Y-7272020D02*
X54086760Y-7272020D01*
X54086760Y-3853240D02*
X54100000Y-3840000D01*
X54086760Y-7272020D02*
X54086760Y-3853240D01*
D21*
X84280000Y5800000D02*
X84300000Y5820000D01*
X77540000Y5800000D02*
X84280000Y5800000D01*
X69700000Y377919D02*
X77527919Y377919D01*
X77540000Y390000D02*
X77540000Y5800000D01*
X77527919Y377919D02*
X77540000Y390000D01*
X65462081Y-3840000D02*
X65472081Y-3850000D01*
X64260000Y-3840000D02*
X65462081Y-3840000D01*
X65472081Y-3850000D02*
X69700000Y-3850000D01*
X69700000Y-3850000D02*
X69700000Y377919D01*
X84330000Y-10200000D02*
X84350000Y-10180000D01*
X77540000Y-10200000D02*
X84330000Y-10200000D01*
X61720000Y-5042081D02*
X61750000Y-5072081D01*
X61720000Y-3840000D02*
X61720000Y-5042081D01*
X61750000Y-5072081D02*
X61750000Y-6500000D01*
X61750000Y-6500000D02*
X61900000Y-6650000D01*
X61900000Y-6650000D02*
X77500000Y-6650000D01*
X77540000Y-6690000D02*
X77540000Y-10200000D01*
X77500000Y-6650000D02*
X77540000Y-6690000D01*
X-11500000Y-18953500D02*
X-11500000Y-21493500D01*
X-8418960Y-15872460D02*
X-11500000Y-18953500D01*
X-5900420Y-15872460D02*
X-8418960Y-15872460D01*
X-5900420Y-15872460D02*
X-1513840Y-15872460D01*
X22850000Y-9000000D02*
X22850000Y-12650000D01*
X-11500000Y-56900000D02*
X-11500000Y-59440000D01*
X-9126180Y-54526180D02*
X-11500000Y-56900000D01*
X-6050280Y-54526180D02*
X-9126180Y-54526180D01*
X-1432560Y-54526180D02*
X-1402080Y-54495700D01*
X-6050280Y-54526180D02*
X-1432560Y-54526180D01*
D24*
X92650000Y-50950820D02*
X92588080Y-51012740D01*
X92650000Y-36160000D02*
X92650000Y-50950820D01*
X92588080Y-51012740D02*
X92588080Y-62557660D01*
X92588080Y-62557660D02*
X92207080Y-62938660D01*
X92207080Y-62938660D02*
X1529080Y-62938660D01*
X-1402080Y-60007500D02*
X-1402080Y-54495700D01*
X1529080Y-62938660D02*
X-1402080Y-60007500D01*
D21*
X-11500000Y450000D02*
X-11500000Y-2090000D01*
X-5900000Y3700000D02*
X-300000Y3700000D01*
X831370Y3700000D02*
X881370Y3650000D01*
X-300000Y3700000D02*
X831370Y3700000D01*
X881370Y3650000D02*
X8150000Y3650000D01*
X15400000Y10900000D02*
X84300000Y10900000D01*
X8150000Y3650000D02*
X15400000Y10900000D01*
X84300000Y10900000D02*
X88150000Y10900000D01*
X88150000Y10900000D02*
X88150000Y-5100000D01*
X88150000Y-5100000D02*
X84350000Y-5100000D01*
X84100000Y-33850000D02*
X87700000Y-33850000D01*
X88150000Y-33400000D02*
X87700000Y-33850000D01*
X88150000Y-5100000D02*
X88150000Y-33400000D01*
X88150000Y-33400000D02*
X88150000Y-49850000D01*
X88150000Y-49850000D02*
X84150000Y-49850000D01*
X-5900000Y3700000D02*
X-9901700Y3700000D01*
X-11500000Y2101700D02*
X-11500000Y450000D01*
X-9901700Y3700000D02*
X-11500000Y2101700D01*
X46500000Y-1280000D02*
X46480000Y-1300000D01*
X46500000Y6500000D02*
X46500000Y-1280000D01*
X49040000Y-1280000D02*
X49020000Y-1300000D01*
X49040000Y6500000D02*
X49040000Y-1280000D01*
X51580000Y-1280000D02*
X51560000Y-1300000D01*
X51580000Y6500000D02*
X51580000Y-1280000D01*
X54120000Y-1280000D02*
X54100000Y-1300000D01*
X54120000Y6500000D02*
X54120000Y-1280000D01*
X56660000Y-1280000D02*
X56640000Y-1300000D01*
X56660000Y6500000D02*
X56660000Y-1280000D01*
X59200000Y-1280000D02*
X59180000Y-1300000D01*
X59200000Y6500000D02*
X59200000Y-1280000D01*
X29000000Y-32600000D02*
X31550000Y-35150000D01*
X29000000Y-30780000D02*
X29000000Y-32600000D01*
X2532380Y-12647620D02*
X2530000Y-12650000D01*
X2532380Y-9047480D02*
X2532380Y-12647620D01*
X5067300Y-12647300D02*
X5070000Y-12650000D01*
X5067300Y-9037320D02*
X5067300Y-12647300D01*
X16000000Y-56160000D02*
X16090000Y-56250000D01*
X16090000Y-56250000D02*
X16090000Y-51290000D01*
X15540000Y-50740000D02*
X15540000Y-47410000D01*
X16090000Y-51290000D02*
X15540000Y-50740000D01*
X20215860Y-51521360D02*
X24993600Y-51521360D01*
X26250000Y-52777760D02*
X26250000Y-56250000D01*
X24993600Y-51521360D02*
X26250000Y-52777760D01*
X18080000Y-49385500D02*
X18080000Y-47410000D01*
X20215860Y-51521360D02*
X18080000Y-49385500D01*
D24*
X49020000Y-47540000D02*
X49020000Y-53132260D01*
X49020000Y-53132260D02*
X49100740Y-53213000D01*
X49100740Y-53213000D02*
X59888120Y-53213000D01*
X59888120Y-55938120D02*
X59950000Y-56000000D01*
X59888120Y-53213000D02*
X59888120Y-55938120D01*
X36320000Y-47540000D02*
X36320000Y-49601660D01*
X36320000Y-49601660D02*
X37566600Y-50848260D01*
X37566600Y-50848260D02*
X43474640Y-50848260D01*
X43474640Y-56125360D02*
X43450000Y-56150000D01*
X43474640Y-50848260D02*
X43474640Y-56125360D01*
D25*
X51560000Y-3840000D02*
X51560000Y-5894800D01*
X51560000Y-5894800D02*
X51351180Y-6103620D01*
X5461000Y-6103620D02*
X5067300Y-6497320D01*
X51351180Y-6103620D02*
X5461000Y-6103620D01*
D21*
X2542540Y-6497320D02*
X2532380Y-6507480D01*
X5067300Y-6497320D02*
X2542540Y-6497320D01*
X67744340Y-32979360D02*
X74703940Y-32979360D01*
X74900000Y-33175420D02*
X74900000Y-38150000D01*
X74703940Y-32979360D02*
X74900000Y-33175420D01*
X74900000Y-52324480D02*
X74932540Y-52357020D01*
X74900000Y-38150000D02*
X74900000Y-52324480D01*
X28201360Y-44831360D02*
X28240000Y-44870000D01*
X28201360Y-40619220D02*
X28201360Y-44831360D01*
M02*
