G04 #@! TF.GenerationSoftware,KiCad,Pcbnew,(5.1.4-0-10_14)*
G04 #@! TF.CreationDate,2019-10-14T13:09:17-04:00*
G04 #@! TF.ProjectId,Robot,526f626f-742e-46b6-9963-61645f706362,rev?*
G04 #@! TF.SameCoordinates,Original*
G04 #@! TF.FileFunction,Paste,Top*
G04 #@! TF.FilePolarity,Positive*
%FSLAX46Y46*%
G04 Gerber Fmt 4.6, Leading zero omitted, Abs format (unit mm)*
G04 Created by KiCad (PCBNEW (5.1.4-0-10_14)) date 2019-10-14 13:09:17*
%MOMM*%
%LPD*%
G04 APERTURE LIST*
%ADD10C,0.100000*%
%ADD11C,0.600000*%
%ADD12R,0.450000X1.450000*%
G04 APERTURE END LIST*
D10*
G36*
X73139703Y-19120722D02*
G01*
X73154264Y-19122882D01*
X73168543Y-19126459D01*
X73182403Y-19131418D01*
X73195710Y-19137712D01*
X73208336Y-19145280D01*
X73220159Y-19154048D01*
X73231066Y-19163934D01*
X73240952Y-19174841D01*
X73249720Y-19186664D01*
X73257288Y-19199290D01*
X73263582Y-19212597D01*
X73268541Y-19226457D01*
X73272118Y-19240736D01*
X73274278Y-19255297D01*
X73275000Y-19270000D01*
X73275000Y-19570000D01*
X73274278Y-19584703D01*
X73272118Y-19599264D01*
X73268541Y-19613543D01*
X73263582Y-19627403D01*
X73257288Y-19640710D01*
X73249720Y-19653336D01*
X73240952Y-19665159D01*
X73231066Y-19676066D01*
X73220159Y-19685952D01*
X73208336Y-19694720D01*
X73195710Y-19702288D01*
X73182403Y-19708582D01*
X73168543Y-19713541D01*
X73154264Y-19717118D01*
X73139703Y-19719278D01*
X73125000Y-19720000D01*
X71375000Y-19720000D01*
X71360297Y-19719278D01*
X71345736Y-19717118D01*
X71331457Y-19713541D01*
X71317597Y-19708582D01*
X71304290Y-19702288D01*
X71291664Y-19694720D01*
X71279841Y-19685952D01*
X71268934Y-19676066D01*
X71259048Y-19665159D01*
X71250280Y-19653336D01*
X71242712Y-19640710D01*
X71236418Y-19627403D01*
X71231459Y-19613543D01*
X71227882Y-19599264D01*
X71225722Y-19584703D01*
X71225000Y-19570000D01*
X71225000Y-19270000D01*
X71225722Y-19255297D01*
X71227882Y-19240736D01*
X71231459Y-19226457D01*
X71236418Y-19212597D01*
X71242712Y-19199290D01*
X71250280Y-19186664D01*
X71259048Y-19174841D01*
X71268934Y-19163934D01*
X71279841Y-19154048D01*
X71291664Y-19145280D01*
X71304290Y-19137712D01*
X71317597Y-19131418D01*
X71331457Y-19126459D01*
X71345736Y-19122882D01*
X71360297Y-19120722D01*
X71375000Y-19120000D01*
X73125000Y-19120000D01*
X73139703Y-19120722D01*
X73139703Y-19120722D01*
G37*
D11*
X72250000Y-19420000D03*
D10*
G36*
X73139703Y-20390722D02*
G01*
X73154264Y-20392882D01*
X73168543Y-20396459D01*
X73182403Y-20401418D01*
X73195710Y-20407712D01*
X73208336Y-20415280D01*
X73220159Y-20424048D01*
X73231066Y-20433934D01*
X73240952Y-20444841D01*
X73249720Y-20456664D01*
X73257288Y-20469290D01*
X73263582Y-20482597D01*
X73268541Y-20496457D01*
X73272118Y-20510736D01*
X73274278Y-20525297D01*
X73275000Y-20540000D01*
X73275000Y-20840000D01*
X73274278Y-20854703D01*
X73272118Y-20869264D01*
X73268541Y-20883543D01*
X73263582Y-20897403D01*
X73257288Y-20910710D01*
X73249720Y-20923336D01*
X73240952Y-20935159D01*
X73231066Y-20946066D01*
X73220159Y-20955952D01*
X73208336Y-20964720D01*
X73195710Y-20972288D01*
X73182403Y-20978582D01*
X73168543Y-20983541D01*
X73154264Y-20987118D01*
X73139703Y-20989278D01*
X73125000Y-20990000D01*
X71375000Y-20990000D01*
X71360297Y-20989278D01*
X71345736Y-20987118D01*
X71331457Y-20983541D01*
X71317597Y-20978582D01*
X71304290Y-20972288D01*
X71291664Y-20964720D01*
X71279841Y-20955952D01*
X71268934Y-20946066D01*
X71259048Y-20935159D01*
X71250280Y-20923336D01*
X71242712Y-20910710D01*
X71236418Y-20897403D01*
X71231459Y-20883543D01*
X71227882Y-20869264D01*
X71225722Y-20854703D01*
X71225000Y-20840000D01*
X71225000Y-20540000D01*
X71225722Y-20525297D01*
X71227882Y-20510736D01*
X71231459Y-20496457D01*
X71236418Y-20482597D01*
X71242712Y-20469290D01*
X71250280Y-20456664D01*
X71259048Y-20444841D01*
X71268934Y-20433934D01*
X71279841Y-20424048D01*
X71291664Y-20415280D01*
X71304290Y-20407712D01*
X71317597Y-20401418D01*
X71331457Y-20396459D01*
X71345736Y-20392882D01*
X71360297Y-20390722D01*
X71375000Y-20390000D01*
X73125000Y-20390000D01*
X73139703Y-20390722D01*
X73139703Y-20390722D01*
G37*
D11*
X72250000Y-20690000D03*
D10*
G36*
X73139703Y-21660722D02*
G01*
X73154264Y-21662882D01*
X73168543Y-21666459D01*
X73182403Y-21671418D01*
X73195710Y-21677712D01*
X73208336Y-21685280D01*
X73220159Y-21694048D01*
X73231066Y-21703934D01*
X73240952Y-21714841D01*
X73249720Y-21726664D01*
X73257288Y-21739290D01*
X73263582Y-21752597D01*
X73268541Y-21766457D01*
X73272118Y-21780736D01*
X73274278Y-21795297D01*
X73275000Y-21810000D01*
X73275000Y-22110000D01*
X73274278Y-22124703D01*
X73272118Y-22139264D01*
X73268541Y-22153543D01*
X73263582Y-22167403D01*
X73257288Y-22180710D01*
X73249720Y-22193336D01*
X73240952Y-22205159D01*
X73231066Y-22216066D01*
X73220159Y-22225952D01*
X73208336Y-22234720D01*
X73195710Y-22242288D01*
X73182403Y-22248582D01*
X73168543Y-22253541D01*
X73154264Y-22257118D01*
X73139703Y-22259278D01*
X73125000Y-22260000D01*
X71375000Y-22260000D01*
X71360297Y-22259278D01*
X71345736Y-22257118D01*
X71331457Y-22253541D01*
X71317597Y-22248582D01*
X71304290Y-22242288D01*
X71291664Y-22234720D01*
X71279841Y-22225952D01*
X71268934Y-22216066D01*
X71259048Y-22205159D01*
X71250280Y-22193336D01*
X71242712Y-22180710D01*
X71236418Y-22167403D01*
X71231459Y-22153543D01*
X71227882Y-22139264D01*
X71225722Y-22124703D01*
X71225000Y-22110000D01*
X71225000Y-21810000D01*
X71225722Y-21795297D01*
X71227882Y-21780736D01*
X71231459Y-21766457D01*
X71236418Y-21752597D01*
X71242712Y-21739290D01*
X71250280Y-21726664D01*
X71259048Y-21714841D01*
X71268934Y-21703934D01*
X71279841Y-21694048D01*
X71291664Y-21685280D01*
X71304290Y-21677712D01*
X71317597Y-21671418D01*
X71331457Y-21666459D01*
X71345736Y-21662882D01*
X71360297Y-21660722D01*
X71375000Y-21660000D01*
X73125000Y-21660000D01*
X73139703Y-21660722D01*
X73139703Y-21660722D01*
G37*
D11*
X72250000Y-21960000D03*
D10*
G36*
X73139703Y-22930722D02*
G01*
X73154264Y-22932882D01*
X73168543Y-22936459D01*
X73182403Y-22941418D01*
X73195710Y-22947712D01*
X73208336Y-22955280D01*
X73220159Y-22964048D01*
X73231066Y-22973934D01*
X73240952Y-22984841D01*
X73249720Y-22996664D01*
X73257288Y-23009290D01*
X73263582Y-23022597D01*
X73268541Y-23036457D01*
X73272118Y-23050736D01*
X73274278Y-23065297D01*
X73275000Y-23080000D01*
X73275000Y-23380000D01*
X73274278Y-23394703D01*
X73272118Y-23409264D01*
X73268541Y-23423543D01*
X73263582Y-23437403D01*
X73257288Y-23450710D01*
X73249720Y-23463336D01*
X73240952Y-23475159D01*
X73231066Y-23486066D01*
X73220159Y-23495952D01*
X73208336Y-23504720D01*
X73195710Y-23512288D01*
X73182403Y-23518582D01*
X73168543Y-23523541D01*
X73154264Y-23527118D01*
X73139703Y-23529278D01*
X73125000Y-23530000D01*
X71375000Y-23530000D01*
X71360297Y-23529278D01*
X71345736Y-23527118D01*
X71331457Y-23523541D01*
X71317597Y-23518582D01*
X71304290Y-23512288D01*
X71291664Y-23504720D01*
X71279841Y-23495952D01*
X71268934Y-23486066D01*
X71259048Y-23475159D01*
X71250280Y-23463336D01*
X71242712Y-23450710D01*
X71236418Y-23437403D01*
X71231459Y-23423543D01*
X71227882Y-23409264D01*
X71225722Y-23394703D01*
X71225000Y-23380000D01*
X71225000Y-23080000D01*
X71225722Y-23065297D01*
X71227882Y-23050736D01*
X71231459Y-23036457D01*
X71236418Y-23022597D01*
X71242712Y-23009290D01*
X71250280Y-22996664D01*
X71259048Y-22984841D01*
X71268934Y-22973934D01*
X71279841Y-22964048D01*
X71291664Y-22955280D01*
X71304290Y-22947712D01*
X71317597Y-22941418D01*
X71331457Y-22936459D01*
X71345736Y-22932882D01*
X71360297Y-22930722D01*
X71375000Y-22930000D01*
X73125000Y-22930000D01*
X73139703Y-22930722D01*
X73139703Y-22930722D01*
G37*
D11*
X72250000Y-23230000D03*
D10*
G36*
X73139703Y-24200722D02*
G01*
X73154264Y-24202882D01*
X73168543Y-24206459D01*
X73182403Y-24211418D01*
X73195710Y-24217712D01*
X73208336Y-24225280D01*
X73220159Y-24234048D01*
X73231066Y-24243934D01*
X73240952Y-24254841D01*
X73249720Y-24266664D01*
X73257288Y-24279290D01*
X73263582Y-24292597D01*
X73268541Y-24306457D01*
X73272118Y-24320736D01*
X73274278Y-24335297D01*
X73275000Y-24350000D01*
X73275000Y-24650000D01*
X73274278Y-24664703D01*
X73272118Y-24679264D01*
X73268541Y-24693543D01*
X73263582Y-24707403D01*
X73257288Y-24720710D01*
X73249720Y-24733336D01*
X73240952Y-24745159D01*
X73231066Y-24756066D01*
X73220159Y-24765952D01*
X73208336Y-24774720D01*
X73195710Y-24782288D01*
X73182403Y-24788582D01*
X73168543Y-24793541D01*
X73154264Y-24797118D01*
X73139703Y-24799278D01*
X73125000Y-24800000D01*
X71375000Y-24800000D01*
X71360297Y-24799278D01*
X71345736Y-24797118D01*
X71331457Y-24793541D01*
X71317597Y-24788582D01*
X71304290Y-24782288D01*
X71291664Y-24774720D01*
X71279841Y-24765952D01*
X71268934Y-24756066D01*
X71259048Y-24745159D01*
X71250280Y-24733336D01*
X71242712Y-24720710D01*
X71236418Y-24707403D01*
X71231459Y-24693543D01*
X71227882Y-24679264D01*
X71225722Y-24664703D01*
X71225000Y-24650000D01*
X71225000Y-24350000D01*
X71225722Y-24335297D01*
X71227882Y-24320736D01*
X71231459Y-24306457D01*
X71236418Y-24292597D01*
X71242712Y-24279290D01*
X71250280Y-24266664D01*
X71259048Y-24254841D01*
X71268934Y-24243934D01*
X71279841Y-24234048D01*
X71291664Y-24225280D01*
X71304290Y-24217712D01*
X71317597Y-24211418D01*
X71331457Y-24206459D01*
X71345736Y-24202882D01*
X71360297Y-24200722D01*
X71375000Y-24200000D01*
X73125000Y-24200000D01*
X73139703Y-24200722D01*
X73139703Y-24200722D01*
G37*
D11*
X72250000Y-24500000D03*
D10*
G36*
X73139703Y-25470722D02*
G01*
X73154264Y-25472882D01*
X73168543Y-25476459D01*
X73182403Y-25481418D01*
X73195710Y-25487712D01*
X73208336Y-25495280D01*
X73220159Y-25504048D01*
X73231066Y-25513934D01*
X73240952Y-25524841D01*
X73249720Y-25536664D01*
X73257288Y-25549290D01*
X73263582Y-25562597D01*
X73268541Y-25576457D01*
X73272118Y-25590736D01*
X73274278Y-25605297D01*
X73275000Y-25620000D01*
X73275000Y-25920000D01*
X73274278Y-25934703D01*
X73272118Y-25949264D01*
X73268541Y-25963543D01*
X73263582Y-25977403D01*
X73257288Y-25990710D01*
X73249720Y-26003336D01*
X73240952Y-26015159D01*
X73231066Y-26026066D01*
X73220159Y-26035952D01*
X73208336Y-26044720D01*
X73195710Y-26052288D01*
X73182403Y-26058582D01*
X73168543Y-26063541D01*
X73154264Y-26067118D01*
X73139703Y-26069278D01*
X73125000Y-26070000D01*
X71375000Y-26070000D01*
X71360297Y-26069278D01*
X71345736Y-26067118D01*
X71331457Y-26063541D01*
X71317597Y-26058582D01*
X71304290Y-26052288D01*
X71291664Y-26044720D01*
X71279841Y-26035952D01*
X71268934Y-26026066D01*
X71259048Y-26015159D01*
X71250280Y-26003336D01*
X71242712Y-25990710D01*
X71236418Y-25977403D01*
X71231459Y-25963543D01*
X71227882Y-25949264D01*
X71225722Y-25934703D01*
X71225000Y-25920000D01*
X71225000Y-25620000D01*
X71225722Y-25605297D01*
X71227882Y-25590736D01*
X71231459Y-25576457D01*
X71236418Y-25562597D01*
X71242712Y-25549290D01*
X71250280Y-25536664D01*
X71259048Y-25524841D01*
X71268934Y-25513934D01*
X71279841Y-25504048D01*
X71291664Y-25495280D01*
X71304290Y-25487712D01*
X71317597Y-25481418D01*
X71331457Y-25476459D01*
X71345736Y-25472882D01*
X71360297Y-25470722D01*
X71375000Y-25470000D01*
X73125000Y-25470000D01*
X73139703Y-25470722D01*
X73139703Y-25470722D01*
G37*
D11*
X72250000Y-25770000D03*
D10*
G36*
X73139703Y-26740722D02*
G01*
X73154264Y-26742882D01*
X73168543Y-26746459D01*
X73182403Y-26751418D01*
X73195710Y-26757712D01*
X73208336Y-26765280D01*
X73220159Y-26774048D01*
X73231066Y-26783934D01*
X73240952Y-26794841D01*
X73249720Y-26806664D01*
X73257288Y-26819290D01*
X73263582Y-26832597D01*
X73268541Y-26846457D01*
X73272118Y-26860736D01*
X73274278Y-26875297D01*
X73275000Y-26890000D01*
X73275000Y-27190000D01*
X73274278Y-27204703D01*
X73272118Y-27219264D01*
X73268541Y-27233543D01*
X73263582Y-27247403D01*
X73257288Y-27260710D01*
X73249720Y-27273336D01*
X73240952Y-27285159D01*
X73231066Y-27296066D01*
X73220159Y-27305952D01*
X73208336Y-27314720D01*
X73195710Y-27322288D01*
X73182403Y-27328582D01*
X73168543Y-27333541D01*
X73154264Y-27337118D01*
X73139703Y-27339278D01*
X73125000Y-27340000D01*
X71375000Y-27340000D01*
X71360297Y-27339278D01*
X71345736Y-27337118D01*
X71331457Y-27333541D01*
X71317597Y-27328582D01*
X71304290Y-27322288D01*
X71291664Y-27314720D01*
X71279841Y-27305952D01*
X71268934Y-27296066D01*
X71259048Y-27285159D01*
X71250280Y-27273336D01*
X71242712Y-27260710D01*
X71236418Y-27247403D01*
X71231459Y-27233543D01*
X71227882Y-27219264D01*
X71225722Y-27204703D01*
X71225000Y-27190000D01*
X71225000Y-26890000D01*
X71225722Y-26875297D01*
X71227882Y-26860736D01*
X71231459Y-26846457D01*
X71236418Y-26832597D01*
X71242712Y-26819290D01*
X71250280Y-26806664D01*
X71259048Y-26794841D01*
X71268934Y-26783934D01*
X71279841Y-26774048D01*
X71291664Y-26765280D01*
X71304290Y-26757712D01*
X71317597Y-26751418D01*
X71331457Y-26746459D01*
X71345736Y-26742882D01*
X71360297Y-26740722D01*
X71375000Y-26740000D01*
X73125000Y-26740000D01*
X73139703Y-26740722D01*
X73139703Y-26740722D01*
G37*
D11*
X72250000Y-27040000D03*
D10*
G36*
X73139703Y-28010722D02*
G01*
X73154264Y-28012882D01*
X73168543Y-28016459D01*
X73182403Y-28021418D01*
X73195710Y-28027712D01*
X73208336Y-28035280D01*
X73220159Y-28044048D01*
X73231066Y-28053934D01*
X73240952Y-28064841D01*
X73249720Y-28076664D01*
X73257288Y-28089290D01*
X73263582Y-28102597D01*
X73268541Y-28116457D01*
X73272118Y-28130736D01*
X73274278Y-28145297D01*
X73275000Y-28160000D01*
X73275000Y-28460000D01*
X73274278Y-28474703D01*
X73272118Y-28489264D01*
X73268541Y-28503543D01*
X73263582Y-28517403D01*
X73257288Y-28530710D01*
X73249720Y-28543336D01*
X73240952Y-28555159D01*
X73231066Y-28566066D01*
X73220159Y-28575952D01*
X73208336Y-28584720D01*
X73195710Y-28592288D01*
X73182403Y-28598582D01*
X73168543Y-28603541D01*
X73154264Y-28607118D01*
X73139703Y-28609278D01*
X73125000Y-28610000D01*
X71375000Y-28610000D01*
X71360297Y-28609278D01*
X71345736Y-28607118D01*
X71331457Y-28603541D01*
X71317597Y-28598582D01*
X71304290Y-28592288D01*
X71291664Y-28584720D01*
X71279841Y-28575952D01*
X71268934Y-28566066D01*
X71259048Y-28555159D01*
X71250280Y-28543336D01*
X71242712Y-28530710D01*
X71236418Y-28517403D01*
X71231459Y-28503543D01*
X71227882Y-28489264D01*
X71225722Y-28474703D01*
X71225000Y-28460000D01*
X71225000Y-28160000D01*
X71225722Y-28145297D01*
X71227882Y-28130736D01*
X71231459Y-28116457D01*
X71236418Y-28102597D01*
X71242712Y-28089290D01*
X71250280Y-28076664D01*
X71259048Y-28064841D01*
X71268934Y-28053934D01*
X71279841Y-28044048D01*
X71291664Y-28035280D01*
X71304290Y-28027712D01*
X71317597Y-28021418D01*
X71331457Y-28016459D01*
X71345736Y-28012882D01*
X71360297Y-28010722D01*
X71375000Y-28010000D01*
X73125000Y-28010000D01*
X73139703Y-28010722D01*
X73139703Y-28010722D01*
G37*
D11*
X72250000Y-28310000D03*
D10*
G36*
X73139703Y-29280722D02*
G01*
X73154264Y-29282882D01*
X73168543Y-29286459D01*
X73182403Y-29291418D01*
X73195710Y-29297712D01*
X73208336Y-29305280D01*
X73220159Y-29314048D01*
X73231066Y-29323934D01*
X73240952Y-29334841D01*
X73249720Y-29346664D01*
X73257288Y-29359290D01*
X73263582Y-29372597D01*
X73268541Y-29386457D01*
X73272118Y-29400736D01*
X73274278Y-29415297D01*
X73275000Y-29430000D01*
X73275000Y-29730000D01*
X73274278Y-29744703D01*
X73272118Y-29759264D01*
X73268541Y-29773543D01*
X73263582Y-29787403D01*
X73257288Y-29800710D01*
X73249720Y-29813336D01*
X73240952Y-29825159D01*
X73231066Y-29836066D01*
X73220159Y-29845952D01*
X73208336Y-29854720D01*
X73195710Y-29862288D01*
X73182403Y-29868582D01*
X73168543Y-29873541D01*
X73154264Y-29877118D01*
X73139703Y-29879278D01*
X73125000Y-29880000D01*
X71375000Y-29880000D01*
X71360297Y-29879278D01*
X71345736Y-29877118D01*
X71331457Y-29873541D01*
X71317597Y-29868582D01*
X71304290Y-29862288D01*
X71291664Y-29854720D01*
X71279841Y-29845952D01*
X71268934Y-29836066D01*
X71259048Y-29825159D01*
X71250280Y-29813336D01*
X71242712Y-29800710D01*
X71236418Y-29787403D01*
X71231459Y-29773543D01*
X71227882Y-29759264D01*
X71225722Y-29744703D01*
X71225000Y-29730000D01*
X71225000Y-29430000D01*
X71225722Y-29415297D01*
X71227882Y-29400736D01*
X71231459Y-29386457D01*
X71236418Y-29372597D01*
X71242712Y-29359290D01*
X71250280Y-29346664D01*
X71259048Y-29334841D01*
X71268934Y-29323934D01*
X71279841Y-29314048D01*
X71291664Y-29305280D01*
X71304290Y-29297712D01*
X71317597Y-29291418D01*
X71331457Y-29286459D01*
X71345736Y-29282882D01*
X71360297Y-29280722D01*
X71375000Y-29280000D01*
X73125000Y-29280000D01*
X73139703Y-29280722D01*
X73139703Y-29280722D01*
G37*
D11*
X72250000Y-29580000D03*
D10*
G36*
X63839703Y-29280722D02*
G01*
X63854264Y-29282882D01*
X63868543Y-29286459D01*
X63882403Y-29291418D01*
X63895710Y-29297712D01*
X63908336Y-29305280D01*
X63920159Y-29314048D01*
X63931066Y-29323934D01*
X63940952Y-29334841D01*
X63949720Y-29346664D01*
X63957288Y-29359290D01*
X63963582Y-29372597D01*
X63968541Y-29386457D01*
X63972118Y-29400736D01*
X63974278Y-29415297D01*
X63975000Y-29430000D01*
X63975000Y-29730000D01*
X63974278Y-29744703D01*
X63972118Y-29759264D01*
X63968541Y-29773543D01*
X63963582Y-29787403D01*
X63957288Y-29800710D01*
X63949720Y-29813336D01*
X63940952Y-29825159D01*
X63931066Y-29836066D01*
X63920159Y-29845952D01*
X63908336Y-29854720D01*
X63895710Y-29862288D01*
X63882403Y-29868582D01*
X63868543Y-29873541D01*
X63854264Y-29877118D01*
X63839703Y-29879278D01*
X63825000Y-29880000D01*
X62075000Y-29880000D01*
X62060297Y-29879278D01*
X62045736Y-29877118D01*
X62031457Y-29873541D01*
X62017597Y-29868582D01*
X62004290Y-29862288D01*
X61991664Y-29854720D01*
X61979841Y-29845952D01*
X61968934Y-29836066D01*
X61959048Y-29825159D01*
X61950280Y-29813336D01*
X61942712Y-29800710D01*
X61936418Y-29787403D01*
X61931459Y-29773543D01*
X61927882Y-29759264D01*
X61925722Y-29744703D01*
X61925000Y-29730000D01*
X61925000Y-29430000D01*
X61925722Y-29415297D01*
X61927882Y-29400736D01*
X61931459Y-29386457D01*
X61936418Y-29372597D01*
X61942712Y-29359290D01*
X61950280Y-29346664D01*
X61959048Y-29334841D01*
X61968934Y-29323934D01*
X61979841Y-29314048D01*
X61991664Y-29305280D01*
X62004290Y-29297712D01*
X62017597Y-29291418D01*
X62031457Y-29286459D01*
X62045736Y-29282882D01*
X62060297Y-29280722D01*
X62075000Y-29280000D01*
X63825000Y-29280000D01*
X63839703Y-29280722D01*
X63839703Y-29280722D01*
G37*
D11*
X62950000Y-29580000D03*
D10*
G36*
X63839703Y-28010722D02*
G01*
X63854264Y-28012882D01*
X63868543Y-28016459D01*
X63882403Y-28021418D01*
X63895710Y-28027712D01*
X63908336Y-28035280D01*
X63920159Y-28044048D01*
X63931066Y-28053934D01*
X63940952Y-28064841D01*
X63949720Y-28076664D01*
X63957288Y-28089290D01*
X63963582Y-28102597D01*
X63968541Y-28116457D01*
X63972118Y-28130736D01*
X63974278Y-28145297D01*
X63975000Y-28160000D01*
X63975000Y-28460000D01*
X63974278Y-28474703D01*
X63972118Y-28489264D01*
X63968541Y-28503543D01*
X63963582Y-28517403D01*
X63957288Y-28530710D01*
X63949720Y-28543336D01*
X63940952Y-28555159D01*
X63931066Y-28566066D01*
X63920159Y-28575952D01*
X63908336Y-28584720D01*
X63895710Y-28592288D01*
X63882403Y-28598582D01*
X63868543Y-28603541D01*
X63854264Y-28607118D01*
X63839703Y-28609278D01*
X63825000Y-28610000D01*
X62075000Y-28610000D01*
X62060297Y-28609278D01*
X62045736Y-28607118D01*
X62031457Y-28603541D01*
X62017597Y-28598582D01*
X62004290Y-28592288D01*
X61991664Y-28584720D01*
X61979841Y-28575952D01*
X61968934Y-28566066D01*
X61959048Y-28555159D01*
X61950280Y-28543336D01*
X61942712Y-28530710D01*
X61936418Y-28517403D01*
X61931459Y-28503543D01*
X61927882Y-28489264D01*
X61925722Y-28474703D01*
X61925000Y-28460000D01*
X61925000Y-28160000D01*
X61925722Y-28145297D01*
X61927882Y-28130736D01*
X61931459Y-28116457D01*
X61936418Y-28102597D01*
X61942712Y-28089290D01*
X61950280Y-28076664D01*
X61959048Y-28064841D01*
X61968934Y-28053934D01*
X61979841Y-28044048D01*
X61991664Y-28035280D01*
X62004290Y-28027712D01*
X62017597Y-28021418D01*
X62031457Y-28016459D01*
X62045736Y-28012882D01*
X62060297Y-28010722D01*
X62075000Y-28010000D01*
X63825000Y-28010000D01*
X63839703Y-28010722D01*
X63839703Y-28010722D01*
G37*
D11*
X62950000Y-28310000D03*
D10*
G36*
X63839703Y-26740722D02*
G01*
X63854264Y-26742882D01*
X63868543Y-26746459D01*
X63882403Y-26751418D01*
X63895710Y-26757712D01*
X63908336Y-26765280D01*
X63920159Y-26774048D01*
X63931066Y-26783934D01*
X63940952Y-26794841D01*
X63949720Y-26806664D01*
X63957288Y-26819290D01*
X63963582Y-26832597D01*
X63968541Y-26846457D01*
X63972118Y-26860736D01*
X63974278Y-26875297D01*
X63975000Y-26890000D01*
X63975000Y-27190000D01*
X63974278Y-27204703D01*
X63972118Y-27219264D01*
X63968541Y-27233543D01*
X63963582Y-27247403D01*
X63957288Y-27260710D01*
X63949720Y-27273336D01*
X63940952Y-27285159D01*
X63931066Y-27296066D01*
X63920159Y-27305952D01*
X63908336Y-27314720D01*
X63895710Y-27322288D01*
X63882403Y-27328582D01*
X63868543Y-27333541D01*
X63854264Y-27337118D01*
X63839703Y-27339278D01*
X63825000Y-27340000D01*
X62075000Y-27340000D01*
X62060297Y-27339278D01*
X62045736Y-27337118D01*
X62031457Y-27333541D01*
X62017597Y-27328582D01*
X62004290Y-27322288D01*
X61991664Y-27314720D01*
X61979841Y-27305952D01*
X61968934Y-27296066D01*
X61959048Y-27285159D01*
X61950280Y-27273336D01*
X61942712Y-27260710D01*
X61936418Y-27247403D01*
X61931459Y-27233543D01*
X61927882Y-27219264D01*
X61925722Y-27204703D01*
X61925000Y-27190000D01*
X61925000Y-26890000D01*
X61925722Y-26875297D01*
X61927882Y-26860736D01*
X61931459Y-26846457D01*
X61936418Y-26832597D01*
X61942712Y-26819290D01*
X61950280Y-26806664D01*
X61959048Y-26794841D01*
X61968934Y-26783934D01*
X61979841Y-26774048D01*
X61991664Y-26765280D01*
X62004290Y-26757712D01*
X62017597Y-26751418D01*
X62031457Y-26746459D01*
X62045736Y-26742882D01*
X62060297Y-26740722D01*
X62075000Y-26740000D01*
X63825000Y-26740000D01*
X63839703Y-26740722D01*
X63839703Y-26740722D01*
G37*
D11*
X62950000Y-27040000D03*
D10*
G36*
X63839703Y-25470722D02*
G01*
X63854264Y-25472882D01*
X63868543Y-25476459D01*
X63882403Y-25481418D01*
X63895710Y-25487712D01*
X63908336Y-25495280D01*
X63920159Y-25504048D01*
X63931066Y-25513934D01*
X63940952Y-25524841D01*
X63949720Y-25536664D01*
X63957288Y-25549290D01*
X63963582Y-25562597D01*
X63968541Y-25576457D01*
X63972118Y-25590736D01*
X63974278Y-25605297D01*
X63975000Y-25620000D01*
X63975000Y-25920000D01*
X63974278Y-25934703D01*
X63972118Y-25949264D01*
X63968541Y-25963543D01*
X63963582Y-25977403D01*
X63957288Y-25990710D01*
X63949720Y-26003336D01*
X63940952Y-26015159D01*
X63931066Y-26026066D01*
X63920159Y-26035952D01*
X63908336Y-26044720D01*
X63895710Y-26052288D01*
X63882403Y-26058582D01*
X63868543Y-26063541D01*
X63854264Y-26067118D01*
X63839703Y-26069278D01*
X63825000Y-26070000D01*
X62075000Y-26070000D01*
X62060297Y-26069278D01*
X62045736Y-26067118D01*
X62031457Y-26063541D01*
X62017597Y-26058582D01*
X62004290Y-26052288D01*
X61991664Y-26044720D01*
X61979841Y-26035952D01*
X61968934Y-26026066D01*
X61959048Y-26015159D01*
X61950280Y-26003336D01*
X61942712Y-25990710D01*
X61936418Y-25977403D01*
X61931459Y-25963543D01*
X61927882Y-25949264D01*
X61925722Y-25934703D01*
X61925000Y-25920000D01*
X61925000Y-25620000D01*
X61925722Y-25605297D01*
X61927882Y-25590736D01*
X61931459Y-25576457D01*
X61936418Y-25562597D01*
X61942712Y-25549290D01*
X61950280Y-25536664D01*
X61959048Y-25524841D01*
X61968934Y-25513934D01*
X61979841Y-25504048D01*
X61991664Y-25495280D01*
X62004290Y-25487712D01*
X62017597Y-25481418D01*
X62031457Y-25476459D01*
X62045736Y-25472882D01*
X62060297Y-25470722D01*
X62075000Y-25470000D01*
X63825000Y-25470000D01*
X63839703Y-25470722D01*
X63839703Y-25470722D01*
G37*
D11*
X62950000Y-25770000D03*
D10*
G36*
X63839703Y-24200722D02*
G01*
X63854264Y-24202882D01*
X63868543Y-24206459D01*
X63882403Y-24211418D01*
X63895710Y-24217712D01*
X63908336Y-24225280D01*
X63920159Y-24234048D01*
X63931066Y-24243934D01*
X63940952Y-24254841D01*
X63949720Y-24266664D01*
X63957288Y-24279290D01*
X63963582Y-24292597D01*
X63968541Y-24306457D01*
X63972118Y-24320736D01*
X63974278Y-24335297D01*
X63975000Y-24350000D01*
X63975000Y-24650000D01*
X63974278Y-24664703D01*
X63972118Y-24679264D01*
X63968541Y-24693543D01*
X63963582Y-24707403D01*
X63957288Y-24720710D01*
X63949720Y-24733336D01*
X63940952Y-24745159D01*
X63931066Y-24756066D01*
X63920159Y-24765952D01*
X63908336Y-24774720D01*
X63895710Y-24782288D01*
X63882403Y-24788582D01*
X63868543Y-24793541D01*
X63854264Y-24797118D01*
X63839703Y-24799278D01*
X63825000Y-24800000D01*
X62075000Y-24800000D01*
X62060297Y-24799278D01*
X62045736Y-24797118D01*
X62031457Y-24793541D01*
X62017597Y-24788582D01*
X62004290Y-24782288D01*
X61991664Y-24774720D01*
X61979841Y-24765952D01*
X61968934Y-24756066D01*
X61959048Y-24745159D01*
X61950280Y-24733336D01*
X61942712Y-24720710D01*
X61936418Y-24707403D01*
X61931459Y-24693543D01*
X61927882Y-24679264D01*
X61925722Y-24664703D01*
X61925000Y-24650000D01*
X61925000Y-24350000D01*
X61925722Y-24335297D01*
X61927882Y-24320736D01*
X61931459Y-24306457D01*
X61936418Y-24292597D01*
X61942712Y-24279290D01*
X61950280Y-24266664D01*
X61959048Y-24254841D01*
X61968934Y-24243934D01*
X61979841Y-24234048D01*
X61991664Y-24225280D01*
X62004290Y-24217712D01*
X62017597Y-24211418D01*
X62031457Y-24206459D01*
X62045736Y-24202882D01*
X62060297Y-24200722D01*
X62075000Y-24200000D01*
X63825000Y-24200000D01*
X63839703Y-24200722D01*
X63839703Y-24200722D01*
G37*
D11*
X62950000Y-24500000D03*
D10*
G36*
X63839703Y-22930722D02*
G01*
X63854264Y-22932882D01*
X63868543Y-22936459D01*
X63882403Y-22941418D01*
X63895710Y-22947712D01*
X63908336Y-22955280D01*
X63920159Y-22964048D01*
X63931066Y-22973934D01*
X63940952Y-22984841D01*
X63949720Y-22996664D01*
X63957288Y-23009290D01*
X63963582Y-23022597D01*
X63968541Y-23036457D01*
X63972118Y-23050736D01*
X63974278Y-23065297D01*
X63975000Y-23080000D01*
X63975000Y-23380000D01*
X63974278Y-23394703D01*
X63972118Y-23409264D01*
X63968541Y-23423543D01*
X63963582Y-23437403D01*
X63957288Y-23450710D01*
X63949720Y-23463336D01*
X63940952Y-23475159D01*
X63931066Y-23486066D01*
X63920159Y-23495952D01*
X63908336Y-23504720D01*
X63895710Y-23512288D01*
X63882403Y-23518582D01*
X63868543Y-23523541D01*
X63854264Y-23527118D01*
X63839703Y-23529278D01*
X63825000Y-23530000D01*
X62075000Y-23530000D01*
X62060297Y-23529278D01*
X62045736Y-23527118D01*
X62031457Y-23523541D01*
X62017597Y-23518582D01*
X62004290Y-23512288D01*
X61991664Y-23504720D01*
X61979841Y-23495952D01*
X61968934Y-23486066D01*
X61959048Y-23475159D01*
X61950280Y-23463336D01*
X61942712Y-23450710D01*
X61936418Y-23437403D01*
X61931459Y-23423543D01*
X61927882Y-23409264D01*
X61925722Y-23394703D01*
X61925000Y-23380000D01*
X61925000Y-23080000D01*
X61925722Y-23065297D01*
X61927882Y-23050736D01*
X61931459Y-23036457D01*
X61936418Y-23022597D01*
X61942712Y-23009290D01*
X61950280Y-22996664D01*
X61959048Y-22984841D01*
X61968934Y-22973934D01*
X61979841Y-22964048D01*
X61991664Y-22955280D01*
X62004290Y-22947712D01*
X62017597Y-22941418D01*
X62031457Y-22936459D01*
X62045736Y-22932882D01*
X62060297Y-22930722D01*
X62075000Y-22930000D01*
X63825000Y-22930000D01*
X63839703Y-22930722D01*
X63839703Y-22930722D01*
G37*
D11*
X62950000Y-23230000D03*
D10*
G36*
X63839703Y-21660722D02*
G01*
X63854264Y-21662882D01*
X63868543Y-21666459D01*
X63882403Y-21671418D01*
X63895710Y-21677712D01*
X63908336Y-21685280D01*
X63920159Y-21694048D01*
X63931066Y-21703934D01*
X63940952Y-21714841D01*
X63949720Y-21726664D01*
X63957288Y-21739290D01*
X63963582Y-21752597D01*
X63968541Y-21766457D01*
X63972118Y-21780736D01*
X63974278Y-21795297D01*
X63975000Y-21810000D01*
X63975000Y-22110000D01*
X63974278Y-22124703D01*
X63972118Y-22139264D01*
X63968541Y-22153543D01*
X63963582Y-22167403D01*
X63957288Y-22180710D01*
X63949720Y-22193336D01*
X63940952Y-22205159D01*
X63931066Y-22216066D01*
X63920159Y-22225952D01*
X63908336Y-22234720D01*
X63895710Y-22242288D01*
X63882403Y-22248582D01*
X63868543Y-22253541D01*
X63854264Y-22257118D01*
X63839703Y-22259278D01*
X63825000Y-22260000D01*
X62075000Y-22260000D01*
X62060297Y-22259278D01*
X62045736Y-22257118D01*
X62031457Y-22253541D01*
X62017597Y-22248582D01*
X62004290Y-22242288D01*
X61991664Y-22234720D01*
X61979841Y-22225952D01*
X61968934Y-22216066D01*
X61959048Y-22205159D01*
X61950280Y-22193336D01*
X61942712Y-22180710D01*
X61936418Y-22167403D01*
X61931459Y-22153543D01*
X61927882Y-22139264D01*
X61925722Y-22124703D01*
X61925000Y-22110000D01*
X61925000Y-21810000D01*
X61925722Y-21795297D01*
X61927882Y-21780736D01*
X61931459Y-21766457D01*
X61936418Y-21752597D01*
X61942712Y-21739290D01*
X61950280Y-21726664D01*
X61959048Y-21714841D01*
X61968934Y-21703934D01*
X61979841Y-21694048D01*
X61991664Y-21685280D01*
X62004290Y-21677712D01*
X62017597Y-21671418D01*
X62031457Y-21666459D01*
X62045736Y-21662882D01*
X62060297Y-21660722D01*
X62075000Y-21660000D01*
X63825000Y-21660000D01*
X63839703Y-21660722D01*
X63839703Y-21660722D01*
G37*
D11*
X62950000Y-21960000D03*
D10*
G36*
X63839703Y-20390722D02*
G01*
X63854264Y-20392882D01*
X63868543Y-20396459D01*
X63882403Y-20401418D01*
X63895710Y-20407712D01*
X63908336Y-20415280D01*
X63920159Y-20424048D01*
X63931066Y-20433934D01*
X63940952Y-20444841D01*
X63949720Y-20456664D01*
X63957288Y-20469290D01*
X63963582Y-20482597D01*
X63968541Y-20496457D01*
X63972118Y-20510736D01*
X63974278Y-20525297D01*
X63975000Y-20540000D01*
X63975000Y-20840000D01*
X63974278Y-20854703D01*
X63972118Y-20869264D01*
X63968541Y-20883543D01*
X63963582Y-20897403D01*
X63957288Y-20910710D01*
X63949720Y-20923336D01*
X63940952Y-20935159D01*
X63931066Y-20946066D01*
X63920159Y-20955952D01*
X63908336Y-20964720D01*
X63895710Y-20972288D01*
X63882403Y-20978582D01*
X63868543Y-20983541D01*
X63854264Y-20987118D01*
X63839703Y-20989278D01*
X63825000Y-20990000D01*
X62075000Y-20990000D01*
X62060297Y-20989278D01*
X62045736Y-20987118D01*
X62031457Y-20983541D01*
X62017597Y-20978582D01*
X62004290Y-20972288D01*
X61991664Y-20964720D01*
X61979841Y-20955952D01*
X61968934Y-20946066D01*
X61959048Y-20935159D01*
X61950280Y-20923336D01*
X61942712Y-20910710D01*
X61936418Y-20897403D01*
X61931459Y-20883543D01*
X61927882Y-20869264D01*
X61925722Y-20854703D01*
X61925000Y-20840000D01*
X61925000Y-20540000D01*
X61925722Y-20525297D01*
X61927882Y-20510736D01*
X61931459Y-20496457D01*
X61936418Y-20482597D01*
X61942712Y-20469290D01*
X61950280Y-20456664D01*
X61959048Y-20444841D01*
X61968934Y-20433934D01*
X61979841Y-20424048D01*
X61991664Y-20415280D01*
X62004290Y-20407712D01*
X62017597Y-20401418D01*
X62031457Y-20396459D01*
X62045736Y-20392882D01*
X62060297Y-20390722D01*
X62075000Y-20390000D01*
X63825000Y-20390000D01*
X63839703Y-20390722D01*
X63839703Y-20390722D01*
G37*
D11*
X62950000Y-20690000D03*
D10*
G36*
X63839703Y-19120722D02*
G01*
X63854264Y-19122882D01*
X63868543Y-19126459D01*
X63882403Y-19131418D01*
X63895710Y-19137712D01*
X63908336Y-19145280D01*
X63920159Y-19154048D01*
X63931066Y-19163934D01*
X63940952Y-19174841D01*
X63949720Y-19186664D01*
X63957288Y-19199290D01*
X63963582Y-19212597D01*
X63968541Y-19226457D01*
X63972118Y-19240736D01*
X63974278Y-19255297D01*
X63975000Y-19270000D01*
X63975000Y-19570000D01*
X63974278Y-19584703D01*
X63972118Y-19599264D01*
X63968541Y-19613543D01*
X63963582Y-19627403D01*
X63957288Y-19640710D01*
X63949720Y-19653336D01*
X63940952Y-19665159D01*
X63931066Y-19676066D01*
X63920159Y-19685952D01*
X63908336Y-19694720D01*
X63895710Y-19702288D01*
X63882403Y-19708582D01*
X63868543Y-19713541D01*
X63854264Y-19717118D01*
X63839703Y-19719278D01*
X63825000Y-19720000D01*
X62075000Y-19720000D01*
X62060297Y-19719278D01*
X62045736Y-19717118D01*
X62031457Y-19713541D01*
X62017597Y-19708582D01*
X62004290Y-19702288D01*
X61991664Y-19694720D01*
X61979841Y-19685952D01*
X61968934Y-19676066D01*
X61959048Y-19665159D01*
X61950280Y-19653336D01*
X61942712Y-19640710D01*
X61936418Y-19627403D01*
X61931459Y-19613543D01*
X61927882Y-19599264D01*
X61925722Y-19584703D01*
X61925000Y-19570000D01*
X61925000Y-19270000D01*
X61925722Y-19255297D01*
X61927882Y-19240736D01*
X61931459Y-19226457D01*
X61936418Y-19212597D01*
X61942712Y-19199290D01*
X61950280Y-19186664D01*
X61959048Y-19174841D01*
X61968934Y-19163934D01*
X61979841Y-19154048D01*
X61991664Y-19145280D01*
X62004290Y-19137712D01*
X62017597Y-19131418D01*
X62031457Y-19126459D01*
X62045736Y-19122882D01*
X62060297Y-19120722D01*
X62075000Y-19120000D01*
X63825000Y-19120000D01*
X63839703Y-19120722D01*
X63839703Y-19120722D01*
G37*
D11*
X62950000Y-19420000D03*
D12*
X41425000Y-16950000D03*
X40775000Y-16950000D03*
X40125000Y-16950000D03*
X39475000Y-16950000D03*
X38825000Y-16950000D03*
X38175000Y-16950000D03*
X37525000Y-16950000D03*
X36875000Y-16950000D03*
X36225000Y-16950000D03*
X35575000Y-16950000D03*
X35575000Y-11050000D03*
X36225000Y-11050000D03*
X36875000Y-11050000D03*
X37525000Y-11050000D03*
X38175000Y-11050000D03*
X38825000Y-11050000D03*
X39475000Y-11050000D03*
X40125000Y-11050000D03*
X40775000Y-11050000D03*
X41425000Y-11050000D03*
M02*
