G04 #@! TF.GenerationSoftware,KiCad,Pcbnew,(5.1.4-0-10_14)*
G04 #@! TF.CreationDate,2019-10-14T13:10:31-04:00*
G04 #@! TF.ProjectId,Robot,526f626f-742e-46b6-9963-61645f706362,rev?*
G04 #@! TF.SameCoordinates,Original*
G04 #@! TF.FileFunction,Copper,L1,Top*
G04 #@! TF.FilePolarity,Positive*
%FSLAX46Y46*%
G04 Gerber Fmt 4.6, Leading zero omitted, Abs format (unit mm)*
G04 Created by KiCad (PCBNEW (5.1.4-0-10_14)) date 2019-10-14 13:10:31*
%MOMM*%
%LPD*%
G04 APERTURE LIST*
%ADD10R,1.700000X1.700000*%
%ADD11C,1.700000*%
%ADD12C,1.600000*%
%ADD13R,1.600000X1.600000*%
%ADD14O,1.700000X1.700000*%
%ADD15C,0.100000*%
%ADD16C,0.600000*%
%ADD17O,1.400000X1.400000*%
%ADD18C,1.400000*%
%ADD19R,0.450000X1.450000*%
%ADD20C,3.000000*%
%ADD21C,4.000000*%
%ADD22C,2.600000*%
%ADD23R,2.600000X2.600000*%
%ADD24C,1.700000*%
%ADD25C,4.000000*%
%ADD26C,2.600000*%
%ADD27C,0.450000*%
%ADD28C,0.600000*%
%ADD29C,1.000000*%
G04 APERTURE END LIST*
D10*
X-36700000Y-46350000D03*
X-36700000Y-59050000D03*
D11*
X12690000Y-38050000D03*
X15230000Y-38050000D03*
X17770000Y-38050000D03*
X20310000Y-38050000D03*
X22850000Y-38050000D03*
X2530000Y-12650000D03*
X5070000Y-12650000D03*
X7610000Y-12650000D03*
X10150000Y-12650000D03*
X12690000Y-12650000D03*
X15230000Y-12650000D03*
X17770000Y-12650000D03*
X20310000Y-12650000D03*
D10*
X22850000Y-12650000D03*
D12*
X-5900000Y6200000D03*
D13*
X-5900000Y3700000D03*
D14*
X14615160Y-41516300D03*
X17155160Y-41516300D03*
X19695160Y-41516300D03*
X22235160Y-41516300D03*
D10*
X24775160Y-41516300D03*
D15*
G36*
X73139703Y-19120722D02*
G01*
X73154264Y-19122882D01*
X73168543Y-19126459D01*
X73182403Y-19131418D01*
X73195710Y-19137712D01*
X73208336Y-19145280D01*
X73220159Y-19154048D01*
X73231066Y-19163934D01*
X73240952Y-19174841D01*
X73249720Y-19186664D01*
X73257288Y-19199290D01*
X73263582Y-19212597D01*
X73268541Y-19226457D01*
X73272118Y-19240736D01*
X73274278Y-19255297D01*
X73275000Y-19270000D01*
X73275000Y-19570000D01*
X73274278Y-19584703D01*
X73272118Y-19599264D01*
X73268541Y-19613543D01*
X73263582Y-19627403D01*
X73257288Y-19640710D01*
X73249720Y-19653336D01*
X73240952Y-19665159D01*
X73231066Y-19676066D01*
X73220159Y-19685952D01*
X73208336Y-19694720D01*
X73195710Y-19702288D01*
X73182403Y-19708582D01*
X73168543Y-19713541D01*
X73154264Y-19717118D01*
X73139703Y-19719278D01*
X73125000Y-19720000D01*
X71375000Y-19720000D01*
X71360297Y-19719278D01*
X71345736Y-19717118D01*
X71331457Y-19713541D01*
X71317597Y-19708582D01*
X71304290Y-19702288D01*
X71291664Y-19694720D01*
X71279841Y-19685952D01*
X71268934Y-19676066D01*
X71259048Y-19665159D01*
X71250280Y-19653336D01*
X71242712Y-19640710D01*
X71236418Y-19627403D01*
X71231459Y-19613543D01*
X71227882Y-19599264D01*
X71225722Y-19584703D01*
X71225000Y-19570000D01*
X71225000Y-19270000D01*
X71225722Y-19255297D01*
X71227882Y-19240736D01*
X71231459Y-19226457D01*
X71236418Y-19212597D01*
X71242712Y-19199290D01*
X71250280Y-19186664D01*
X71259048Y-19174841D01*
X71268934Y-19163934D01*
X71279841Y-19154048D01*
X71291664Y-19145280D01*
X71304290Y-19137712D01*
X71317597Y-19131418D01*
X71331457Y-19126459D01*
X71345736Y-19122882D01*
X71360297Y-19120722D01*
X71375000Y-19120000D01*
X73125000Y-19120000D01*
X73139703Y-19120722D01*
X73139703Y-19120722D01*
G37*
D16*
X72250000Y-19420000D03*
D15*
G36*
X73139703Y-20390722D02*
G01*
X73154264Y-20392882D01*
X73168543Y-20396459D01*
X73182403Y-20401418D01*
X73195710Y-20407712D01*
X73208336Y-20415280D01*
X73220159Y-20424048D01*
X73231066Y-20433934D01*
X73240952Y-20444841D01*
X73249720Y-20456664D01*
X73257288Y-20469290D01*
X73263582Y-20482597D01*
X73268541Y-20496457D01*
X73272118Y-20510736D01*
X73274278Y-20525297D01*
X73275000Y-20540000D01*
X73275000Y-20840000D01*
X73274278Y-20854703D01*
X73272118Y-20869264D01*
X73268541Y-20883543D01*
X73263582Y-20897403D01*
X73257288Y-20910710D01*
X73249720Y-20923336D01*
X73240952Y-20935159D01*
X73231066Y-20946066D01*
X73220159Y-20955952D01*
X73208336Y-20964720D01*
X73195710Y-20972288D01*
X73182403Y-20978582D01*
X73168543Y-20983541D01*
X73154264Y-20987118D01*
X73139703Y-20989278D01*
X73125000Y-20990000D01*
X71375000Y-20990000D01*
X71360297Y-20989278D01*
X71345736Y-20987118D01*
X71331457Y-20983541D01*
X71317597Y-20978582D01*
X71304290Y-20972288D01*
X71291664Y-20964720D01*
X71279841Y-20955952D01*
X71268934Y-20946066D01*
X71259048Y-20935159D01*
X71250280Y-20923336D01*
X71242712Y-20910710D01*
X71236418Y-20897403D01*
X71231459Y-20883543D01*
X71227882Y-20869264D01*
X71225722Y-20854703D01*
X71225000Y-20840000D01*
X71225000Y-20540000D01*
X71225722Y-20525297D01*
X71227882Y-20510736D01*
X71231459Y-20496457D01*
X71236418Y-20482597D01*
X71242712Y-20469290D01*
X71250280Y-20456664D01*
X71259048Y-20444841D01*
X71268934Y-20433934D01*
X71279841Y-20424048D01*
X71291664Y-20415280D01*
X71304290Y-20407712D01*
X71317597Y-20401418D01*
X71331457Y-20396459D01*
X71345736Y-20392882D01*
X71360297Y-20390722D01*
X71375000Y-20390000D01*
X73125000Y-20390000D01*
X73139703Y-20390722D01*
X73139703Y-20390722D01*
G37*
D16*
X72250000Y-20690000D03*
D15*
G36*
X73139703Y-21660722D02*
G01*
X73154264Y-21662882D01*
X73168543Y-21666459D01*
X73182403Y-21671418D01*
X73195710Y-21677712D01*
X73208336Y-21685280D01*
X73220159Y-21694048D01*
X73231066Y-21703934D01*
X73240952Y-21714841D01*
X73249720Y-21726664D01*
X73257288Y-21739290D01*
X73263582Y-21752597D01*
X73268541Y-21766457D01*
X73272118Y-21780736D01*
X73274278Y-21795297D01*
X73275000Y-21810000D01*
X73275000Y-22110000D01*
X73274278Y-22124703D01*
X73272118Y-22139264D01*
X73268541Y-22153543D01*
X73263582Y-22167403D01*
X73257288Y-22180710D01*
X73249720Y-22193336D01*
X73240952Y-22205159D01*
X73231066Y-22216066D01*
X73220159Y-22225952D01*
X73208336Y-22234720D01*
X73195710Y-22242288D01*
X73182403Y-22248582D01*
X73168543Y-22253541D01*
X73154264Y-22257118D01*
X73139703Y-22259278D01*
X73125000Y-22260000D01*
X71375000Y-22260000D01*
X71360297Y-22259278D01*
X71345736Y-22257118D01*
X71331457Y-22253541D01*
X71317597Y-22248582D01*
X71304290Y-22242288D01*
X71291664Y-22234720D01*
X71279841Y-22225952D01*
X71268934Y-22216066D01*
X71259048Y-22205159D01*
X71250280Y-22193336D01*
X71242712Y-22180710D01*
X71236418Y-22167403D01*
X71231459Y-22153543D01*
X71227882Y-22139264D01*
X71225722Y-22124703D01*
X71225000Y-22110000D01*
X71225000Y-21810000D01*
X71225722Y-21795297D01*
X71227882Y-21780736D01*
X71231459Y-21766457D01*
X71236418Y-21752597D01*
X71242712Y-21739290D01*
X71250280Y-21726664D01*
X71259048Y-21714841D01*
X71268934Y-21703934D01*
X71279841Y-21694048D01*
X71291664Y-21685280D01*
X71304290Y-21677712D01*
X71317597Y-21671418D01*
X71331457Y-21666459D01*
X71345736Y-21662882D01*
X71360297Y-21660722D01*
X71375000Y-21660000D01*
X73125000Y-21660000D01*
X73139703Y-21660722D01*
X73139703Y-21660722D01*
G37*
D16*
X72250000Y-21960000D03*
D15*
G36*
X73139703Y-22930722D02*
G01*
X73154264Y-22932882D01*
X73168543Y-22936459D01*
X73182403Y-22941418D01*
X73195710Y-22947712D01*
X73208336Y-22955280D01*
X73220159Y-22964048D01*
X73231066Y-22973934D01*
X73240952Y-22984841D01*
X73249720Y-22996664D01*
X73257288Y-23009290D01*
X73263582Y-23022597D01*
X73268541Y-23036457D01*
X73272118Y-23050736D01*
X73274278Y-23065297D01*
X73275000Y-23080000D01*
X73275000Y-23380000D01*
X73274278Y-23394703D01*
X73272118Y-23409264D01*
X73268541Y-23423543D01*
X73263582Y-23437403D01*
X73257288Y-23450710D01*
X73249720Y-23463336D01*
X73240952Y-23475159D01*
X73231066Y-23486066D01*
X73220159Y-23495952D01*
X73208336Y-23504720D01*
X73195710Y-23512288D01*
X73182403Y-23518582D01*
X73168543Y-23523541D01*
X73154264Y-23527118D01*
X73139703Y-23529278D01*
X73125000Y-23530000D01*
X71375000Y-23530000D01*
X71360297Y-23529278D01*
X71345736Y-23527118D01*
X71331457Y-23523541D01*
X71317597Y-23518582D01*
X71304290Y-23512288D01*
X71291664Y-23504720D01*
X71279841Y-23495952D01*
X71268934Y-23486066D01*
X71259048Y-23475159D01*
X71250280Y-23463336D01*
X71242712Y-23450710D01*
X71236418Y-23437403D01*
X71231459Y-23423543D01*
X71227882Y-23409264D01*
X71225722Y-23394703D01*
X71225000Y-23380000D01*
X71225000Y-23080000D01*
X71225722Y-23065297D01*
X71227882Y-23050736D01*
X71231459Y-23036457D01*
X71236418Y-23022597D01*
X71242712Y-23009290D01*
X71250280Y-22996664D01*
X71259048Y-22984841D01*
X71268934Y-22973934D01*
X71279841Y-22964048D01*
X71291664Y-22955280D01*
X71304290Y-22947712D01*
X71317597Y-22941418D01*
X71331457Y-22936459D01*
X71345736Y-22932882D01*
X71360297Y-22930722D01*
X71375000Y-22930000D01*
X73125000Y-22930000D01*
X73139703Y-22930722D01*
X73139703Y-22930722D01*
G37*
D16*
X72250000Y-23230000D03*
D15*
G36*
X73139703Y-24200722D02*
G01*
X73154264Y-24202882D01*
X73168543Y-24206459D01*
X73182403Y-24211418D01*
X73195710Y-24217712D01*
X73208336Y-24225280D01*
X73220159Y-24234048D01*
X73231066Y-24243934D01*
X73240952Y-24254841D01*
X73249720Y-24266664D01*
X73257288Y-24279290D01*
X73263582Y-24292597D01*
X73268541Y-24306457D01*
X73272118Y-24320736D01*
X73274278Y-24335297D01*
X73275000Y-24350000D01*
X73275000Y-24650000D01*
X73274278Y-24664703D01*
X73272118Y-24679264D01*
X73268541Y-24693543D01*
X73263582Y-24707403D01*
X73257288Y-24720710D01*
X73249720Y-24733336D01*
X73240952Y-24745159D01*
X73231066Y-24756066D01*
X73220159Y-24765952D01*
X73208336Y-24774720D01*
X73195710Y-24782288D01*
X73182403Y-24788582D01*
X73168543Y-24793541D01*
X73154264Y-24797118D01*
X73139703Y-24799278D01*
X73125000Y-24800000D01*
X71375000Y-24800000D01*
X71360297Y-24799278D01*
X71345736Y-24797118D01*
X71331457Y-24793541D01*
X71317597Y-24788582D01*
X71304290Y-24782288D01*
X71291664Y-24774720D01*
X71279841Y-24765952D01*
X71268934Y-24756066D01*
X71259048Y-24745159D01*
X71250280Y-24733336D01*
X71242712Y-24720710D01*
X71236418Y-24707403D01*
X71231459Y-24693543D01*
X71227882Y-24679264D01*
X71225722Y-24664703D01*
X71225000Y-24650000D01*
X71225000Y-24350000D01*
X71225722Y-24335297D01*
X71227882Y-24320736D01*
X71231459Y-24306457D01*
X71236418Y-24292597D01*
X71242712Y-24279290D01*
X71250280Y-24266664D01*
X71259048Y-24254841D01*
X71268934Y-24243934D01*
X71279841Y-24234048D01*
X71291664Y-24225280D01*
X71304290Y-24217712D01*
X71317597Y-24211418D01*
X71331457Y-24206459D01*
X71345736Y-24202882D01*
X71360297Y-24200722D01*
X71375000Y-24200000D01*
X73125000Y-24200000D01*
X73139703Y-24200722D01*
X73139703Y-24200722D01*
G37*
D16*
X72250000Y-24500000D03*
D15*
G36*
X73139703Y-25470722D02*
G01*
X73154264Y-25472882D01*
X73168543Y-25476459D01*
X73182403Y-25481418D01*
X73195710Y-25487712D01*
X73208336Y-25495280D01*
X73220159Y-25504048D01*
X73231066Y-25513934D01*
X73240952Y-25524841D01*
X73249720Y-25536664D01*
X73257288Y-25549290D01*
X73263582Y-25562597D01*
X73268541Y-25576457D01*
X73272118Y-25590736D01*
X73274278Y-25605297D01*
X73275000Y-25620000D01*
X73275000Y-25920000D01*
X73274278Y-25934703D01*
X73272118Y-25949264D01*
X73268541Y-25963543D01*
X73263582Y-25977403D01*
X73257288Y-25990710D01*
X73249720Y-26003336D01*
X73240952Y-26015159D01*
X73231066Y-26026066D01*
X73220159Y-26035952D01*
X73208336Y-26044720D01*
X73195710Y-26052288D01*
X73182403Y-26058582D01*
X73168543Y-26063541D01*
X73154264Y-26067118D01*
X73139703Y-26069278D01*
X73125000Y-26070000D01*
X71375000Y-26070000D01*
X71360297Y-26069278D01*
X71345736Y-26067118D01*
X71331457Y-26063541D01*
X71317597Y-26058582D01*
X71304290Y-26052288D01*
X71291664Y-26044720D01*
X71279841Y-26035952D01*
X71268934Y-26026066D01*
X71259048Y-26015159D01*
X71250280Y-26003336D01*
X71242712Y-25990710D01*
X71236418Y-25977403D01*
X71231459Y-25963543D01*
X71227882Y-25949264D01*
X71225722Y-25934703D01*
X71225000Y-25920000D01*
X71225000Y-25620000D01*
X71225722Y-25605297D01*
X71227882Y-25590736D01*
X71231459Y-25576457D01*
X71236418Y-25562597D01*
X71242712Y-25549290D01*
X71250280Y-25536664D01*
X71259048Y-25524841D01*
X71268934Y-25513934D01*
X71279841Y-25504048D01*
X71291664Y-25495280D01*
X71304290Y-25487712D01*
X71317597Y-25481418D01*
X71331457Y-25476459D01*
X71345736Y-25472882D01*
X71360297Y-25470722D01*
X71375000Y-25470000D01*
X73125000Y-25470000D01*
X73139703Y-25470722D01*
X73139703Y-25470722D01*
G37*
D16*
X72250000Y-25770000D03*
D15*
G36*
X73139703Y-26740722D02*
G01*
X73154264Y-26742882D01*
X73168543Y-26746459D01*
X73182403Y-26751418D01*
X73195710Y-26757712D01*
X73208336Y-26765280D01*
X73220159Y-26774048D01*
X73231066Y-26783934D01*
X73240952Y-26794841D01*
X73249720Y-26806664D01*
X73257288Y-26819290D01*
X73263582Y-26832597D01*
X73268541Y-26846457D01*
X73272118Y-26860736D01*
X73274278Y-26875297D01*
X73275000Y-26890000D01*
X73275000Y-27190000D01*
X73274278Y-27204703D01*
X73272118Y-27219264D01*
X73268541Y-27233543D01*
X73263582Y-27247403D01*
X73257288Y-27260710D01*
X73249720Y-27273336D01*
X73240952Y-27285159D01*
X73231066Y-27296066D01*
X73220159Y-27305952D01*
X73208336Y-27314720D01*
X73195710Y-27322288D01*
X73182403Y-27328582D01*
X73168543Y-27333541D01*
X73154264Y-27337118D01*
X73139703Y-27339278D01*
X73125000Y-27340000D01*
X71375000Y-27340000D01*
X71360297Y-27339278D01*
X71345736Y-27337118D01*
X71331457Y-27333541D01*
X71317597Y-27328582D01*
X71304290Y-27322288D01*
X71291664Y-27314720D01*
X71279841Y-27305952D01*
X71268934Y-27296066D01*
X71259048Y-27285159D01*
X71250280Y-27273336D01*
X71242712Y-27260710D01*
X71236418Y-27247403D01*
X71231459Y-27233543D01*
X71227882Y-27219264D01*
X71225722Y-27204703D01*
X71225000Y-27190000D01*
X71225000Y-26890000D01*
X71225722Y-26875297D01*
X71227882Y-26860736D01*
X71231459Y-26846457D01*
X71236418Y-26832597D01*
X71242712Y-26819290D01*
X71250280Y-26806664D01*
X71259048Y-26794841D01*
X71268934Y-26783934D01*
X71279841Y-26774048D01*
X71291664Y-26765280D01*
X71304290Y-26757712D01*
X71317597Y-26751418D01*
X71331457Y-26746459D01*
X71345736Y-26742882D01*
X71360297Y-26740722D01*
X71375000Y-26740000D01*
X73125000Y-26740000D01*
X73139703Y-26740722D01*
X73139703Y-26740722D01*
G37*
D16*
X72250000Y-27040000D03*
D15*
G36*
X73139703Y-28010722D02*
G01*
X73154264Y-28012882D01*
X73168543Y-28016459D01*
X73182403Y-28021418D01*
X73195710Y-28027712D01*
X73208336Y-28035280D01*
X73220159Y-28044048D01*
X73231066Y-28053934D01*
X73240952Y-28064841D01*
X73249720Y-28076664D01*
X73257288Y-28089290D01*
X73263582Y-28102597D01*
X73268541Y-28116457D01*
X73272118Y-28130736D01*
X73274278Y-28145297D01*
X73275000Y-28160000D01*
X73275000Y-28460000D01*
X73274278Y-28474703D01*
X73272118Y-28489264D01*
X73268541Y-28503543D01*
X73263582Y-28517403D01*
X73257288Y-28530710D01*
X73249720Y-28543336D01*
X73240952Y-28555159D01*
X73231066Y-28566066D01*
X73220159Y-28575952D01*
X73208336Y-28584720D01*
X73195710Y-28592288D01*
X73182403Y-28598582D01*
X73168543Y-28603541D01*
X73154264Y-28607118D01*
X73139703Y-28609278D01*
X73125000Y-28610000D01*
X71375000Y-28610000D01*
X71360297Y-28609278D01*
X71345736Y-28607118D01*
X71331457Y-28603541D01*
X71317597Y-28598582D01*
X71304290Y-28592288D01*
X71291664Y-28584720D01*
X71279841Y-28575952D01*
X71268934Y-28566066D01*
X71259048Y-28555159D01*
X71250280Y-28543336D01*
X71242712Y-28530710D01*
X71236418Y-28517403D01*
X71231459Y-28503543D01*
X71227882Y-28489264D01*
X71225722Y-28474703D01*
X71225000Y-28460000D01*
X71225000Y-28160000D01*
X71225722Y-28145297D01*
X71227882Y-28130736D01*
X71231459Y-28116457D01*
X71236418Y-28102597D01*
X71242712Y-28089290D01*
X71250280Y-28076664D01*
X71259048Y-28064841D01*
X71268934Y-28053934D01*
X71279841Y-28044048D01*
X71291664Y-28035280D01*
X71304290Y-28027712D01*
X71317597Y-28021418D01*
X71331457Y-28016459D01*
X71345736Y-28012882D01*
X71360297Y-28010722D01*
X71375000Y-28010000D01*
X73125000Y-28010000D01*
X73139703Y-28010722D01*
X73139703Y-28010722D01*
G37*
D16*
X72250000Y-28310000D03*
D15*
G36*
X73139703Y-29280722D02*
G01*
X73154264Y-29282882D01*
X73168543Y-29286459D01*
X73182403Y-29291418D01*
X73195710Y-29297712D01*
X73208336Y-29305280D01*
X73220159Y-29314048D01*
X73231066Y-29323934D01*
X73240952Y-29334841D01*
X73249720Y-29346664D01*
X73257288Y-29359290D01*
X73263582Y-29372597D01*
X73268541Y-29386457D01*
X73272118Y-29400736D01*
X73274278Y-29415297D01*
X73275000Y-29430000D01*
X73275000Y-29730000D01*
X73274278Y-29744703D01*
X73272118Y-29759264D01*
X73268541Y-29773543D01*
X73263582Y-29787403D01*
X73257288Y-29800710D01*
X73249720Y-29813336D01*
X73240952Y-29825159D01*
X73231066Y-29836066D01*
X73220159Y-29845952D01*
X73208336Y-29854720D01*
X73195710Y-29862288D01*
X73182403Y-29868582D01*
X73168543Y-29873541D01*
X73154264Y-29877118D01*
X73139703Y-29879278D01*
X73125000Y-29880000D01*
X71375000Y-29880000D01*
X71360297Y-29879278D01*
X71345736Y-29877118D01*
X71331457Y-29873541D01*
X71317597Y-29868582D01*
X71304290Y-29862288D01*
X71291664Y-29854720D01*
X71279841Y-29845952D01*
X71268934Y-29836066D01*
X71259048Y-29825159D01*
X71250280Y-29813336D01*
X71242712Y-29800710D01*
X71236418Y-29787403D01*
X71231459Y-29773543D01*
X71227882Y-29759264D01*
X71225722Y-29744703D01*
X71225000Y-29730000D01*
X71225000Y-29430000D01*
X71225722Y-29415297D01*
X71227882Y-29400736D01*
X71231459Y-29386457D01*
X71236418Y-29372597D01*
X71242712Y-29359290D01*
X71250280Y-29346664D01*
X71259048Y-29334841D01*
X71268934Y-29323934D01*
X71279841Y-29314048D01*
X71291664Y-29305280D01*
X71304290Y-29297712D01*
X71317597Y-29291418D01*
X71331457Y-29286459D01*
X71345736Y-29282882D01*
X71360297Y-29280722D01*
X71375000Y-29280000D01*
X73125000Y-29280000D01*
X73139703Y-29280722D01*
X73139703Y-29280722D01*
G37*
D16*
X72250000Y-29580000D03*
D15*
G36*
X63839703Y-29280722D02*
G01*
X63854264Y-29282882D01*
X63868543Y-29286459D01*
X63882403Y-29291418D01*
X63895710Y-29297712D01*
X63908336Y-29305280D01*
X63920159Y-29314048D01*
X63931066Y-29323934D01*
X63940952Y-29334841D01*
X63949720Y-29346664D01*
X63957288Y-29359290D01*
X63963582Y-29372597D01*
X63968541Y-29386457D01*
X63972118Y-29400736D01*
X63974278Y-29415297D01*
X63975000Y-29430000D01*
X63975000Y-29730000D01*
X63974278Y-29744703D01*
X63972118Y-29759264D01*
X63968541Y-29773543D01*
X63963582Y-29787403D01*
X63957288Y-29800710D01*
X63949720Y-29813336D01*
X63940952Y-29825159D01*
X63931066Y-29836066D01*
X63920159Y-29845952D01*
X63908336Y-29854720D01*
X63895710Y-29862288D01*
X63882403Y-29868582D01*
X63868543Y-29873541D01*
X63854264Y-29877118D01*
X63839703Y-29879278D01*
X63825000Y-29880000D01*
X62075000Y-29880000D01*
X62060297Y-29879278D01*
X62045736Y-29877118D01*
X62031457Y-29873541D01*
X62017597Y-29868582D01*
X62004290Y-29862288D01*
X61991664Y-29854720D01*
X61979841Y-29845952D01*
X61968934Y-29836066D01*
X61959048Y-29825159D01*
X61950280Y-29813336D01*
X61942712Y-29800710D01*
X61936418Y-29787403D01*
X61931459Y-29773543D01*
X61927882Y-29759264D01*
X61925722Y-29744703D01*
X61925000Y-29730000D01*
X61925000Y-29430000D01*
X61925722Y-29415297D01*
X61927882Y-29400736D01*
X61931459Y-29386457D01*
X61936418Y-29372597D01*
X61942712Y-29359290D01*
X61950280Y-29346664D01*
X61959048Y-29334841D01*
X61968934Y-29323934D01*
X61979841Y-29314048D01*
X61991664Y-29305280D01*
X62004290Y-29297712D01*
X62017597Y-29291418D01*
X62031457Y-29286459D01*
X62045736Y-29282882D01*
X62060297Y-29280722D01*
X62075000Y-29280000D01*
X63825000Y-29280000D01*
X63839703Y-29280722D01*
X63839703Y-29280722D01*
G37*
D16*
X62950000Y-29580000D03*
D15*
G36*
X63839703Y-28010722D02*
G01*
X63854264Y-28012882D01*
X63868543Y-28016459D01*
X63882403Y-28021418D01*
X63895710Y-28027712D01*
X63908336Y-28035280D01*
X63920159Y-28044048D01*
X63931066Y-28053934D01*
X63940952Y-28064841D01*
X63949720Y-28076664D01*
X63957288Y-28089290D01*
X63963582Y-28102597D01*
X63968541Y-28116457D01*
X63972118Y-28130736D01*
X63974278Y-28145297D01*
X63975000Y-28160000D01*
X63975000Y-28460000D01*
X63974278Y-28474703D01*
X63972118Y-28489264D01*
X63968541Y-28503543D01*
X63963582Y-28517403D01*
X63957288Y-28530710D01*
X63949720Y-28543336D01*
X63940952Y-28555159D01*
X63931066Y-28566066D01*
X63920159Y-28575952D01*
X63908336Y-28584720D01*
X63895710Y-28592288D01*
X63882403Y-28598582D01*
X63868543Y-28603541D01*
X63854264Y-28607118D01*
X63839703Y-28609278D01*
X63825000Y-28610000D01*
X62075000Y-28610000D01*
X62060297Y-28609278D01*
X62045736Y-28607118D01*
X62031457Y-28603541D01*
X62017597Y-28598582D01*
X62004290Y-28592288D01*
X61991664Y-28584720D01*
X61979841Y-28575952D01*
X61968934Y-28566066D01*
X61959048Y-28555159D01*
X61950280Y-28543336D01*
X61942712Y-28530710D01*
X61936418Y-28517403D01*
X61931459Y-28503543D01*
X61927882Y-28489264D01*
X61925722Y-28474703D01*
X61925000Y-28460000D01*
X61925000Y-28160000D01*
X61925722Y-28145297D01*
X61927882Y-28130736D01*
X61931459Y-28116457D01*
X61936418Y-28102597D01*
X61942712Y-28089290D01*
X61950280Y-28076664D01*
X61959048Y-28064841D01*
X61968934Y-28053934D01*
X61979841Y-28044048D01*
X61991664Y-28035280D01*
X62004290Y-28027712D01*
X62017597Y-28021418D01*
X62031457Y-28016459D01*
X62045736Y-28012882D01*
X62060297Y-28010722D01*
X62075000Y-28010000D01*
X63825000Y-28010000D01*
X63839703Y-28010722D01*
X63839703Y-28010722D01*
G37*
D16*
X62950000Y-28310000D03*
D15*
G36*
X63839703Y-26740722D02*
G01*
X63854264Y-26742882D01*
X63868543Y-26746459D01*
X63882403Y-26751418D01*
X63895710Y-26757712D01*
X63908336Y-26765280D01*
X63920159Y-26774048D01*
X63931066Y-26783934D01*
X63940952Y-26794841D01*
X63949720Y-26806664D01*
X63957288Y-26819290D01*
X63963582Y-26832597D01*
X63968541Y-26846457D01*
X63972118Y-26860736D01*
X63974278Y-26875297D01*
X63975000Y-26890000D01*
X63975000Y-27190000D01*
X63974278Y-27204703D01*
X63972118Y-27219264D01*
X63968541Y-27233543D01*
X63963582Y-27247403D01*
X63957288Y-27260710D01*
X63949720Y-27273336D01*
X63940952Y-27285159D01*
X63931066Y-27296066D01*
X63920159Y-27305952D01*
X63908336Y-27314720D01*
X63895710Y-27322288D01*
X63882403Y-27328582D01*
X63868543Y-27333541D01*
X63854264Y-27337118D01*
X63839703Y-27339278D01*
X63825000Y-27340000D01*
X62075000Y-27340000D01*
X62060297Y-27339278D01*
X62045736Y-27337118D01*
X62031457Y-27333541D01*
X62017597Y-27328582D01*
X62004290Y-27322288D01*
X61991664Y-27314720D01*
X61979841Y-27305952D01*
X61968934Y-27296066D01*
X61959048Y-27285159D01*
X61950280Y-27273336D01*
X61942712Y-27260710D01*
X61936418Y-27247403D01*
X61931459Y-27233543D01*
X61927882Y-27219264D01*
X61925722Y-27204703D01*
X61925000Y-27190000D01*
X61925000Y-26890000D01*
X61925722Y-26875297D01*
X61927882Y-26860736D01*
X61931459Y-26846457D01*
X61936418Y-26832597D01*
X61942712Y-26819290D01*
X61950280Y-26806664D01*
X61959048Y-26794841D01*
X61968934Y-26783934D01*
X61979841Y-26774048D01*
X61991664Y-26765280D01*
X62004290Y-26757712D01*
X62017597Y-26751418D01*
X62031457Y-26746459D01*
X62045736Y-26742882D01*
X62060297Y-26740722D01*
X62075000Y-26740000D01*
X63825000Y-26740000D01*
X63839703Y-26740722D01*
X63839703Y-26740722D01*
G37*
D16*
X62950000Y-27040000D03*
D15*
G36*
X63839703Y-25470722D02*
G01*
X63854264Y-25472882D01*
X63868543Y-25476459D01*
X63882403Y-25481418D01*
X63895710Y-25487712D01*
X63908336Y-25495280D01*
X63920159Y-25504048D01*
X63931066Y-25513934D01*
X63940952Y-25524841D01*
X63949720Y-25536664D01*
X63957288Y-25549290D01*
X63963582Y-25562597D01*
X63968541Y-25576457D01*
X63972118Y-25590736D01*
X63974278Y-25605297D01*
X63975000Y-25620000D01*
X63975000Y-25920000D01*
X63974278Y-25934703D01*
X63972118Y-25949264D01*
X63968541Y-25963543D01*
X63963582Y-25977403D01*
X63957288Y-25990710D01*
X63949720Y-26003336D01*
X63940952Y-26015159D01*
X63931066Y-26026066D01*
X63920159Y-26035952D01*
X63908336Y-26044720D01*
X63895710Y-26052288D01*
X63882403Y-26058582D01*
X63868543Y-26063541D01*
X63854264Y-26067118D01*
X63839703Y-26069278D01*
X63825000Y-26070000D01*
X62075000Y-26070000D01*
X62060297Y-26069278D01*
X62045736Y-26067118D01*
X62031457Y-26063541D01*
X62017597Y-26058582D01*
X62004290Y-26052288D01*
X61991664Y-26044720D01*
X61979841Y-26035952D01*
X61968934Y-26026066D01*
X61959048Y-26015159D01*
X61950280Y-26003336D01*
X61942712Y-25990710D01*
X61936418Y-25977403D01*
X61931459Y-25963543D01*
X61927882Y-25949264D01*
X61925722Y-25934703D01*
X61925000Y-25920000D01*
X61925000Y-25620000D01*
X61925722Y-25605297D01*
X61927882Y-25590736D01*
X61931459Y-25576457D01*
X61936418Y-25562597D01*
X61942712Y-25549290D01*
X61950280Y-25536664D01*
X61959048Y-25524841D01*
X61968934Y-25513934D01*
X61979841Y-25504048D01*
X61991664Y-25495280D01*
X62004290Y-25487712D01*
X62017597Y-25481418D01*
X62031457Y-25476459D01*
X62045736Y-25472882D01*
X62060297Y-25470722D01*
X62075000Y-25470000D01*
X63825000Y-25470000D01*
X63839703Y-25470722D01*
X63839703Y-25470722D01*
G37*
D16*
X62950000Y-25770000D03*
D15*
G36*
X63839703Y-24200722D02*
G01*
X63854264Y-24202882D01*
X63868543Y-24206459D01*
X63882403Y-24211418D01*
X63895710Y-24217712D01*
X63908336Y-24225280D01*
X63920159Y-24234048D01*
X63931066Y-24243934D01*
X63940952Y-24254841D01*
X63949720Y-24266664D01*
X63957288Y-24279290D01*
X63963582Y-24292597D01*
X63968541Y-24306457D01*
X63972118Y-24320736D01*
X63974278Y-24335297D01*
X63975000Y-24350000D01*
X63975000Y-24650000D01*
X63974278Y-24664703D01*
X63972118Y-24679264D01*
X63968541Y-24693543D01*
X63963582Y-24707403D01*
X63957288Y-24720710D01*
X63949720Y-24733336D01*
X63940952Y-24745159D01*
X63931066Y-24756066D01*
X63920159Y-24765952D01*
X63908336Y-24774720D01*
X63895710Y-24782288D01*
X63882403Y-24788582D01*
X63868543Y-24793541D01*
X63854264Y-24797118D01*
X63839703Y-24799278D01*
X63825000Y-24800000D01*
X62075000Y-24800000D01*
X62060297Y-24799278D01*
X62045736Y-24797118D01*
X62031457Y-24793541D01*
X62017597Y-24788582D01*
X62004290Y-24782288D01*
X61991664Y-24774720D01*
X61979841Y-24765952D01*
X61968934Y-24756066D01*
X61959048Y-24745159D01*
X61950280Y-24733336D01*
X61942712Y-24720710D01*
X61936418Y-24707403D01*
X61931459Y-24693543D01*
X61927882Y-24679264D01*
X61925722Y-24664703D01*
X61925000Y-24650000D01*
X61925000Y-24350000D01*
X61925722Y-24335297D01*
X61927882Y-24320736D01*
X61931459Y-24306457D01*
X61936418Y-24292597D01*
X61942712Y-24279290D01*
X61950280Y-24266664D01*
X61959048Y-24254841D01*
X61968934Y-24243934D01*
X61979841Y-24234048D01*
X61991664Y-24225280D01*
X62004290Y-24217712D01*
X62017597Y-24211418D01*
X62031457Y-24206459D01*
X62045736Y-24202882D01*
X62060297Y-24200722D01*
X62075000Y-24200000D01*
X63825000Y-24200000D01*
X63839703Y-24200722D01*
X63839703Y-24200722D01*
G37*
D16*
X62950000Y-24500000D03*
D15*
G36*
X63839703Y-22930722D02*
G01*
X63854264Y-22932882D01*
X63868543Y-22936459D01*
X63882403Y-22941418D01*
X63895710Y-22947712D01*
X63908336Y-22955280D01*
X63920159Y-22964048D01*
X63931066Y-22973934D01*
X63940952Y-22984841D01*
X63949720Y-22996664D01*
X63957288Y-23009290D01*
X63963582Y-23022597D01*
X63968541Y-23036457D01*
X63972118Y-23050736D01*
X63974278Y-23065297D01*
X63975000Y-23080000D01*
X63975000Y-23380000D01*
X63974278Y-23394703D01*
X63972118Y-23409264D01*
X63968541Y-23423543D01*
X63963582Y-23437403D01*
X63957288Y-23450710D01*
X63949720Y-23463336D01*
X63940952Y-23475159D01*
X63931066Y-23486066D01*
X63920159Y-23495952D01*
X63908336Y-23504720D01*
X63895710Y-23512288D01*
X63882403Y-23518582D01*
X63868543Y-23523541D01*
X63854264Y-23527118D01*
X63839703Y-23529278D01*
X63825000Y-23530000D01*
X62075000Y-23530000D01*
X62060297Y-23529278D01*
X62045736Y-23527118D01*
X62031457Y-23523541D01*
X62017597Y-23518582D01*
X62004290Y-23512288D01*
X61991664Y-23504720D01*
X61979841Y-23495952D01*
X61968934Y-23486066D01*
X61959048Y-23475159D01*
X61950280Y-23463336D01*
X61942712Y-23450710D01*
X61936418Y-23437403D01*
X61931459Y-23423543D01*
X61927882Y-23409264D01*
X61925722Y-23394703D01*
X61925000Y-23380000D01*
X61925000Y-23080000D01*
X61925722Y-23065297D01*
X61927882Y-23050736D01*
X61931459Y-23036457D01*
X61936418Y-23022597D01*
X61942712Y-23009290D01*
X61950280Y-22996664D01*
X61959048Y-22984841D01*
X61968934Y-22973934D01*
X61979841Y-22964048D01*
X61991664Y-22955280D01*
X62004290Y-22947712D01*
X62017597Y-22941418D01*
X62031457Y-22936459D01*
X62045736Y-22932882D01*
X62060297Y-22930722D01*
X62075000Y-22930000D01*
X63825000Y-22930000D01*
X63839703Y-22930722D01*
X63839703Y-22930722D01*
G37*
D16*
X62950000Y-23230000D03*
D15*
G36*
X63839703Y-21660722D02*
G01*
X63854264Y-21662882D01*
X63868543Y-21666459D01*
X63882403Y-21671418D01*
X63895710Y-21677712D01*
X63908336Y-21685280D01*
X63920159Y-21694048D01*
X63931066Y-21703934D01*
X63940952Y-21714841D01*
X63949720Y-21726664D01*
X63957288Y-21739290D01*
X63963582Y-21752597D01*
X63968541Y-21766457D01*
X63972118Y-21780736D01*
X63974278Y-21795297D01*
X63975000Y-21810000D01*
X63975000Y-22110000D01*
X63974278Y-22124703D01*
X63972118Y-22139264D01*
X63968541Y-22153543D01*
X63963582Y-22167403D01*
X63957288Y-22180710D01*
X63949720Y-22193336D01*
X63940952Y-22205159D01*
X63931066Y-22216066D01*
X63920159Y-22225952D01*
X63908336Y-22234720D01*
X63895710Y-22242288D01*
X63882403Y-22248582D01*
X63868543Y-22253541D01*
X63854264Y-22257118D01*
X63839703Y-22259278D01*
X63825000Y-22260000D01*
X62075000Y-22260000D01*
X62060297Y-22259278D01*
X62045736Y-22257118D01*
X62031457Y-22253541D01*
X62017597Y-22248582D01*
X62004290Y-22242288D01*
X61991664Y-22234720D01*
X61979841Y-22225952D01*
X61968934Y-22216066D01*
X61959048Y-22205159D01*
X61950280Y-22193336D01*
X61942712Y-22180710D01*
X61936418Y-22167403D01*
X61931459Y-22153543D01*
X61927882Y-22139264D01*
X61925722Y-22124703D01*
X61925000Y-22110000D01*
X61925000Y-21810000D01*
X61925722Y-21795297D01*
X61927882Y-21780736D01*
X61931459Y-21766457D01*
X61936418Y-21752597D01*
X61942712Y-21739290D01*
X61950280Y-21726664D01*
X61959048Y-21714841D01*
X61968934Y-21703934D01*
X61979841Y-21694048D01*
X61991664Y-21685280D01*
X62004290Y-21677712D01*
X62017597Y-21671418D01*
X62031457Y-21666459D01*
X62045736Y-21662882D01*
X62060297Y-21660722D01*
X62075000Y-21660000D01*
X63825000Y-21660000D01*
X63839703Y-21660722D01*
X63839703Y-21660722D01*
G37*
D16*
X62950000Y-21960000D03*
D15*
G36*
X63839703Y-20390722D02*
G01*
X63854264Y-20392882D01*
X63868543Y-20396459D01*
X63882403Y-20401418D01*
X63895710Y-20407712D01*
X63908336Y-20415280D01*
X63920159Y-20424048D01*
X63931066Y-20433934D01*
X63940952Y-20444841D01*
X63949720Y-20456664D01*
X63957288Y-20469290D01*
X63963582Y-20482597D01*
X63968541Y-20496457D01*
X63972118Y-20510736D01*
X63974278Y-20525297D01*
X63975000Y-20540000D01*
X63975000Y-20840000D01*
X63974278Y-20854703D01*
X63972118Y-20869264D01*
X63968541Y-20883543D01*
X63963582Y-20897403D01*
X63957288Y-20910710D01*
X63949720Y-20923336D01*
X63940952Y-20935159D01*
X63931066Y-20946066D01*
X63920159Y-20955952D01*
X63908336Y-20964720D01*
X63895710Y-20972288D01*
X63882403Y-20978582D01*
X63868543Y-20983541D01*
X63854264Y-20987118D01*
X63839703Y-20989278D01*
X63825000Y-20990000D01*
X62075000Y-20990000D01*
X62060297Y-20989278D01*
X62045736Y-20987118D01*
X62031457Y-20983541D01*
X62017597Y-20978582D01*
X62004290Y-20972288D01*
X61991664Y-20964720D01*
X61979841Y-20955952D01*
X61968934Y-20946066D01*
X61959048Y-20935159D01*
X61950280Y-20923336D01*
X61942712Y-20910710D01*
X61936418Y-20897403D01*
X61931459Y-20883543D01*
X61927882Y-20869264D01*
X61925722Y-20854703D01*
X61925000Y-20840000D01*
X61925000Y-20540000D01*
X61925722Y-20525297D01*
X61927882Y-20510736D01*
X61931459Y-20496457D01*
X61936418Y-20482597D01*
X61942712Y-20469290D01*
X61950280Y-20456664D01*
X61959048Y-20444841D01*
X61968934Y-20433934D01*
X61979841Y-20424048D01*
X61991664Y-20415280D01*
X62004290Y-20407712D01*
X62017597Y-20401418D01*
X62031457Y-20396459D01*
X62045736Y-20392882D01*
X62060297Y-20390722D01*
X62075000Y-20390000D01*
X63825000Y-20390000D01*
X63839703Y-20390722D01*
X63839703Y-20390722D01*
G37*
D16*
X62950000Y-20690000D03*
D15*
G36*
X63839703Y-19120722D02*
G01*
X63854264Y-19122882D01*
X63868543Y-19126459D01*
X63882403Y-19131418D01*
X63895710Y-19137712D01*
X63908336Y-19145280D01*
X63920159Y-19154048D01*
X63931066Y-19163934D01*
X63940952Y-19174841D01*
X63949720Y-19186664D01*
X63957288Y-19199290D01*
X63963582Y-19212597D01*
X63968541Y-19226457D01*
X63972118Y-19240736D01*
X63974278Y-19255297D01*
X63975000Y-19270000D01*
X63975000Y-19570000D01*
X63974278Y-19584703D01*
X63972118Y-19599264D01*
X63968541Y-19613543D01*
X63963582Y-19627403D01*
X63957288Y-19640710D01*
X63949720Y-19653336D01*
X63940952Y-19665159D01*
X63931066Y-19676066D01*
X63920159Y-19685952D01*
X63908336Y-19694720D01*
X63895710Y-19702288D01*
X63882403Y-19708582D01*
X63868543Y-19713541D01*
X63854264Y-19717118D01*
X63839703Y-19719278D01*
X63825000Y-19720000D01*
X62075000Y-19720000D01*
X62060297Y-19719278D01*
X62045736Y-19717118D01*
X62031457Y-19713541D01*
X62017597Y-19708582D01*
X62004290Y-19702288D01*
X61991664Y-19694720D01*
X61979841Y-19685952D01*
X61968934Y-19676066D01*
X61959048Y-19665159D01*
X61950280Y-19653336D01*
X61942712Y-19640710D01*
X61936418Y-19627403D01*
X61931459Y-19613543D01*
X61927882Y-19599264D01*
X61925722Y-19584703D01*
X61925000Y-19570000D01*
X61925000Y-19270000D01*
X61925722Y-19255297D01*
X61927882Y-19240736D01*
X61931459Y-19226457D01*
X61936418Y-19212597D01*
X61942712Y-19199290D01*
X61950280Y-19186664D01*
X61959048Y-19174841D01*
X61968934Y-19163934D01*
X61979841Y-19154048D01*
X61991664Y-19145280D01*
X62004290Y-19137712D01*
X62017597Y-19131418D01*
X62031457Y-19126459D01*
X62045736Y-19122882D01*
X62060297Y-19120722D01*
X62075000Y-19120000D01*
X63825000Y-19120000D01*
X63839703Y-19120722D01*
X63839703Y-19120722D01*
G37*
D16*
X62950000Y-19420000D03*
D17*
X74932540Y-54897020D03*
D18*
X74932540Y-52357020D03*
D17*
X77440000Y-38150000D03*
D18*
X74900000Y-38150000D03*
D17*
X77540000Y-10200000D03*
D18*
X75000000Y-10200000D03*
D17*
X77540000Y5800000D03*
D18*
X75000000Y5800000D03*
D19*
X41425000Y-16950000D03*
X40775000Y-16950000D03*
X40125000Y-16950000D03*
X39475000Y-16950000D03*
X38825000Y-16950000D03*
X38175000Y-16950000D03*
X37525000Y-16950000D03*
X36875000Y-16950000D03*
X36225000Y-16950000D03*
X35575000Y-16950000D03*
X35575000Y-11050000D03*
X36225000Y-11050000D03*
X36875000Y-11050000D03*
X37525000Y-11050000D03*
X38175000Y-11050000D03*
X38825000Y-11050000D03*
X39475000Y-11050000D03*
X40125000Y-11050000D03*
X40775000Y-11050000D03*
X41425000Y-11050000D03*
D11*
X-11000000Y-250000D03*
D14*
X-11000000Y-2790000D03*
X-30000000Y-2790000D03*
D11*
X-30000000Y-250000D03*
D14*
X-11000000Y8210000D03*
D11*
X-11000000Y10750000D03*
D14*
X-30000000Y8210000D03*
D10*
X-30000000Y10750000D03*
D11*
X-11000000Y-19653500D03*
D14*
X-11000000Y-22193500D03*
X-30000000Y-22193500D03*
D11*
X-30000000Y-19653500D03*
D14*
X-11000000Y-11193500D03*
D11*
X-11000000Y-8653500D03*
D14*
X-30000000Y-11193500D03*
D10*
X-30000000Y-8653500D03*
D11*
X-11000000Y-38700000D03*
D14*
X-11000000Y-41240000D03*
X-30000000Y-41240000D03*
D11*
X-30000000Y-38700000D03*
D14*
X-11000000Y-30240000D03*
D11*
X-11000000Y-27700000D03*
D14*
X-30000000Y-30240000D03*
D10*
X-30000000Y-27700000D03*
D11*
X-11000000Y-57600000D03*
D14*
X-11000000Y-60140000D03*
X-30000000Y-60140000D03*
D11*
X-30000000Y-57600000D03*
D14*
X-11000000Y-49140000D03*
D11*
X-11000000Y-46600000D03*
D14*
X-30000000Y-49140000D03*
D10*
X-30000000Y-46600000D03*
D11*
X46780000Y-30780000D03*
X44240000Y-30780000D03*
X41700000Y-30780000D03*
X34000000Y-30780000D03*
X31500000Y-30780000D03*
X29000000Y-30780000D03*
X46780000Y-27580000D03*
X44240000Y-27580000D03*
X41700000Y-27580000D03*
X39160000Y-27580000D03*
X36620000Y-27580000D03*
X34080000Y-27580000D03*
X31540000Y-27580000D03*
X29000000Y-27580000D03*
X46780000Y-25040000D03*
X44240000Y-25040000D03*
X41700000Y-25040000D03*
X39160000Y-25040000D03*
X36620000Y-25040000D03*
X34080000Y-25040000D03*
X31540000Y-25040000D03*
X29000000Y-25040000D03*
X46780000Y-22500000D03*
X44240000Y-22500000D03*
X41700000Y-22500000D03*
X39160000Y-22500000D03*
X36620000Y-22500000D03*
X34080000Y-22500000D03*
X31540000Y-22500000D03*
X29000000Y-22500000D03*
X15540000Y-47410000D03*
X15540000Y-44870000D03*
X18080000Y-47410000D03*
X18080000Y-44870000D03*
X20620000Y-47410000D03*
X20620000Y-44870000D03*
X23160000Y-47410000D03*
X23160000Y-44870000D03*
X25700000Y-47410000D03*
X25700000Y-44870000D03*
X28240000Y-47410000D03*
X28240000Y-44870000D03*
X30780000Y-47410000D03*
X30780000Y-44870000D03*
X33320000Y-47410000D03*
X33320000Y-44870000D03*
X35860000Y-47410000D03*
X35860000Y-44870000D03*
X38400000Y-47410000D03*
X38400000Y-44870000D03*
X40940000Y-47410000D03*
X40940000Y-44870000D03*
X43480000Y-47410000D03*
X43480000Y-44870000D03*
X46020000Y-47410000D03*
X46020000Y-44870000D03*
X48560000Y-47410000D03*
X48560000Y-44870000D03*
X51100000Y-47410000D03*
X51100000Y-44870000D03*
X53640000Y-47410000D03*
X53640000Y-44870000D03*
X56180000Y-47410000D03*
X56180000Y-44870000D03*
X58720000Y-47410000D03*
X58720000Y-44870000D03*
X61260000Y-47410000D03*
X61260000Y-44870000D03*
X63800000Y-47410000D03*
D10*
X63800000Y-44870000D03*
D17*
X32222440Y-14759940D03*
D18*
X32222440Y-12219940D03*
D17*
X5067300Y-9037320D03*
D18*
X5067300Y-6497320D03*
D17*
X2532380Y-9047480D03*
D18*
X2532380Y-6507480D03*
D14*
X28201360Y-40619220D03*
X30741360Y-40619220D03*
X33281360Y-40619220D03*
X35821360Y-40619220D03*
X38361360Y-40619220D03*
D10*
X40901360Y-40619220D03*
D14*
X28680000Y6500000D03*
X31220000Y6500000D03*
X33760000Y6500000D03*
X36300000Y6500000D03*
X38840000Y6500000D03*
D10*
X41380000Y6500000D03*
D14*
X46500000Y6500000D03*
X49040000Y6500000D03*
X51580000Y6500000D03*
X54120000Y6500000D03*
X56660000Y6500000D03*
D10*
X59200000Y6500000D03*
D12*
X-5900420Y-13372460D03*
D13*
X-5900420Y-15872460D03*
D12*
X-6075680Y-33913440D03*
D13*
X-6075680Y-36413440D03*
D12*
X-6050280Y-52026180D03*
D13*
X-6050280Y-54526180D03*
D12*
X-300000Y6200000D03*
X-300000Y3700000D03*
X-1513840Y-13372460D03*
X-1513840Y-15872460D03*
X-1699260Y-33913440D03*
X-1699260Y-36413440D03*
X-1402080Y-51995700D03*
X-1402080Y-54495700D03*
X65244340Y-32979360D03*
X67744340Y-32979360D03*
X51648360Y-27544400D03*
X51648360Y-25044400D03*
X51650900Y-14492600D03*
X51650900Y-16992600D03*
X45400000Y-14500000D03*
X45400000Y-12000000D03*
X20350000Y-9000000D03*
X22850000Y-9000000D03*
D14*
X-37650000Y-2110000D03*
D10*
X-37650000Y-4650000D03*
D14*
X1674620Y-39419720D03*
D10*
X1674620Y-36879720D03*
D20*
X-53100000Y-39750000D03*
X-53100000Y-26750000D03*
D21*
X-47600000Y-36750000D03*
X-47600000Y-29750000D03*
D11*
X64260000Y-1300000D03*
X64260000Y-3840000D03*
X61720000Y-1300000D03*
X61720000Y-3840000D03*
X59180000Y-1300000D03*
X59180000Y-3840000D03*
X56640000Y-1300000D03*
X56640000Y-3840000D03*
X54100000Y-1300000D03*
X54100000Y-3840000D03*
X51560000Y-1300000D03*
X51560000Y-3840000D03*
X49020000Y-1300000D03*
X49020000Y-3840000D03*
X46480000Y-1300000D03*
X46480000Y-3840000D03*
X43940000Y-1300000D03*
X43940000Y-3840000D03*
X41400000Y-1300000D03*
X41400000Y-3840000D03*
X38860000Y-1300000D03*
X38860000Y-3840000D03*
X36320000Y-1300000D03*
X36320000Y-3840000D03*
X33780000Y-1300000D03*
X33780000Y-3840000D03*
X31240000Y-1300000D03*
X31240000Y-3840000D03*
X28700000Y-1300000D03*
X28700000Y-3840000D03*
X26160000Y-1300000D03*
X26160000Y-3840000D03*
X23620000Y-1300000D03*
X23620000Y-3840000D03*
X21080000Y-1300000D03*
X21080000Y-3840000D03*
X18540000Y-1300000D03*
X18540000Y-3840000D03*
X16000000Y-1300000D03*
D10*
X16000000Y-3840000D03*
D22*
X-56000000Y-8920000D03*
X-56000000Y-14000000D03*
D23*
X-56000000Y-19080000D03*
D22*
X-56000000Y8860000D03*
X-56000000Y3780000D03*
D23*
X-56000000Y-1300000D03*
D22*
X33290000Y-56150000D03*
X38370000Y-56150000D03*
D23*
X43450000Y-56150000D03*
D22*
X49790000Y-56000000D03*
X54870000Y-56000000D03*
D23*
X59950000Y-56000000D03*
D22*
X84150000Y-60010000D03*
X84150000Y-54930000D03*
D23*
X84150000Y-49850000D03*
D22*
X84100000Y-44010000D03*
X84100000Y-38930000D03*
D23*
X84100000Y-33850000D03*
D22*
X84350000Y-15260000D03*
X84350000Y-10180000D03*
D23*
X84350000Y-5100000D03*
D22*
X84300000Y740000D03*
X84300000Y5820000D03*
D23*
X84300000Y10900000D03*
D14*
X92650000Y-36160000D03*
X92650000Y-33620000D03*
X92650000Y-31080000D03*
X92650000Y-28540000D03*
X92650000Y-26000000D03*
X92650000Y-23460000D03*
X92650000Y-20920000D03*
X92650000Y-18380000D03*
X92650000Y-15840000D03*
D10*
X92650000Y-13300000D03*
D22*
X16090000Y-56250000D03*
X21170000Y-56250000D03*
D23*
X26250000Y-56250000D03*
D14*
X44250000Y-35150000D03*
X41710000Y-35150000D03*
X39170000Y-35150000D03*
X36630000Y-35150000D03*
X34090000Y-35150000D03*
D10*
X31550000Y-35150000D03*
D24*
X-29500000Y-56900000D02*
X-29500000Y-59440000D01*
D25*
X-29500000Y-56900000D02*
X-21550000Y-56900000D01*
X-20950000Y-56750000D02*
X-20950000Y-37900000D01*
X-21600000Y-38000000D02*
X-29500000Y-38000000D01*
D26*
X-21550000Y-38050000D02*
X-21600000Y-38000000D01*
D25*
X-28650001Y-19803499D02*
X-21096501Y-19803499D01*
D26*
X-29500000Y-18953500D02*
X-28650001Y-19803499D01*
X-21096501Y-19803499D02*
X-20900000Y-20000000D01*
X-20900000Y-37400000D02*
X-21550000Y-38050000D01*
D25*
X-20900000Y-20000000D02*
X-20900000Y-37400000D01*
X-33000000Y-36750000D02*
X-29500000Y-40250000D01*
D24*
X-29500000Y-38000000D02*
X-29500000Y-40250000D01*
X-29500000Y-40250000D02*
X-29500000Y-40540000D01*
D25*
X-38600000Y-36750000D02*
X-33000000Y-36750000D01*
X-47600000Y-36750000D02*
X-38600000Y-36750000D01*
D26*
X-36310000Y-59440000D02*
X-36700000Y-59050000D01*
X-29500000Y-59440000D02*
X-36310000Y-59440000D01*
X-29500000Y-18953500D02*
X-29500000Y-21493500D01*
X-37700000Y-37200000D02*
X-37700000Y-14750000D01*
X-37650000Y-14700000D02*
X-37700000Y-14750000D01*
X-37650000Y-4650000D02*
X-37650000Y-14700000D01*
X-29500000Y-59440000D02*
X-20890000Y-59440000D01*
X-20950000Y-59380000D02*
X-20950000Y-56750000D01*
X-20890000Y-59440000D02*
X-20950000Y-59380000D01*
X-24140000Y-40540000D02*
X-21600000Y-38000000D01*
X-29500000Y-40540000D02*
X-24140000Y-40540000D01*
D25*
X-51450000Y-1450000D02*
X-38100000Y-14800000D01*
X-37700000Y-35850000D02*
X-38600000Y-36750000D01*
X-37700000Y-14750000D02*
X-37700000Y-35850000D01*
X-51600000Y-1300000D02*
X-51450000Y-1450000D01*
X-56000000Y-1300000D02*
X-51600000Y-1300000D01*
X-56000000Y-1300000D02*
X-56000000Y3780000D01*
X-56000000Y3780000D02*
X-56000000Y8860000D01*
D24*
X84300000Y740000D02*
X88040000Y740000D01*
X88040000Y740000D02*
X88000000Y700000D01*
X84360000Y-15250000D02*
X84350000Y-15260000D01*
X88000000Y-15250000D02*
X84360000Y-15250000D01*
X88650000Y-13300000D02*
X88000000Y-13950000D01*
X92650000Y-13300000D02*
X88650000Y-13300000D01*
X88000000Y700000D02*
X88000000Y-13950000D01*
X88000000Y-13950000D02*
X88000000Y-15250000D01*
X84100000Y-44010000D02*
X87960000Y-44010000D01*
X87960000Y-44010000D02*
X87950000Y-44020000D01*
X87950000Y-44020000D02*
X87950000Y-59900000D01*
X87840000Y-60010000D02*
X84150000Y-60010000D01*
X87950000Y-59900000D02*
X87840000Y-60010000D01*
D27*
X35575000Y-16950000D02*
X35575000Y-14757160D01*
D28*
X62950000Y-29580000D02*
X65216200Y-29580000D01*
X65244340Y-29608140D02*
X65244340Y-32979360D01*
X65216200Y-29580000D02*
X65244340Y-29608140D01*
D27*
X35572220Y-14759940D02*
X35575000Y-14757160D01*
D24*
X29000000Y-27580000D02*
X31540000Y-27580000D01*
X31540000Y-27580000D02*
X34080000Y-27580000D01*
X34080000Y-27580000D02*
X35608940Y-27580000D01*
X36620000Y-27580000D02*
X39160000Y-27580000D01*
X39160000Y-27580000D02*
X41700000Y-27580000D01*
X41700000Y-27580000D02*
X44240000Y-27580000D01*
X44240000Y-27580000D02*
X46780000Y-27580000D01*
X51612760Y-27580000D02*
X51648360Y-27544400D01*
X46780000Y-27580000D02*
X51612760Y-27580000D01*
X32482380Y-14500000D02*
X32222440Y-14759940D01*
X45400000Y-14500000D02*
X32482380Y-14500000D01*
X34080000Y-27580000D02*
X36620000Y-27580000D01*
X84150000Y-60010000D02*
X49824600Y-60010000D01*
X49790000Y-59975400D02*
X49790000Y-56000000D01*
X49824600Y-60010000D02*
X49790000Y-59975400D01*
X33290000Y-56150000D02*
X33290000Y-59831480D01*
X33468520Y-60010000D02*
X49824600Y-60010000D01*
X33290000Y-59831480D02*
X33468520Y-60010000D01*
X21170000Y-56250000D02*
X21170000Y-59524000D01*
X21477480Y-59831480D02*
X33290000Y-59831480D01*
X21170000Y-59524000D02*
X21477480Y-59831480D01*
X-1402080Y-51995700D02*
X4528180Y-51995700D01*
X4528180Y-51995700D02*
X5080000Y-52547520D01*
X5080000Y-52547520D02*
X5080000Y-60071000D01*
X5080000Y-60071000D02*
X5179060Y-59971940D01*
X20722060Y-59971940D02*
X21170000Y-59524000D01*
X5179060Y-59971940D02*
X20722060Y-59971940D01*
D28*
X54163800Y-19420000D02*
X62950000Y-19420000D01*
X53510180Y-20073620D02*
X54163800Y-19420000D01*
X53510180Y-32237680D02*
X53510180Y-20073620D01*
X43940000Y-45000000D02*
X43940000Y-41807860D01*
X43940000Y-41807860D02*
X53510180Y-32237680D01*
X72250000Y-20690000D02*
X88210000Y-20690000D01*
X88210000Y-20690000D02*
X90000000Y-18900000D01*
X90000000Y-18900000D02*
X90050000Y-18900000D01*
X90570000Y-18380000D02*
X92650000Y-18380000D01*
X90050000Y-18900000D02*
X90570000Y-18380000D01*
D27*
X41425000Y-16950000D02*
X41425000Y-18217020D01*
X41425000Y-18217020D02*
X42153840Y-18945860D01*
X42153840Y-18945860D02*
X46746160Y-18945860D01*
X46780000Y-18979700D02*
X46780000Y-22500000D01*
X46746160Y-18945860D02*
X46780000Y-18979700D01*
X40125000Y-16950000D02*
X40125000Y-18405460D01*
X40125000Y-18405460D02*
X41661080Y-19941540D01*
X41661080Y-19941540D02*
X44221400Y-19941540D01*
X44240000Y-19960140D02*
X44240000Y-22500000D01*
X44221400Y-19941540D02*
X44240000Y-19960140D01*
X39475000Y-16950000D02*
X39475000Y-19261680D01*
X39475000Y-19261680D02*
X41132760Y-20919440D01*
X41132760Y-20919440D02*
X41714420Y-20919440D01*
X41700000Y-20933860D02*
X41700000Y-22500000D01*
X41714420Y-20919440D02*
X41700000Y-20933860D01*
X38824992Y-18992436D02*
X38824992Y-20473492D01*
X38825000Y-16950000D02*
X38825000Y-18992428D01*
X38825000Y-18992428D02*
X38824992Y-18992436D01*
X39160000Y-20808500D02*
X39160000Y-22500000D01*
X38824992Y-20473492D02*
X39160000Y-20808500D01*
X38175000Y-18723176D02*
X38155880Y-18742296D01*
X38175000Y-16950000D02*
X38175000Y-18723176D01*
X38155880Y-18742296D02*
X38155880Y-20556220D01*
X38155880Y-20556220D02*
X38120320Y-20591780D01*
X38120320Y-20591780D02*
X36624260Y-20591780D01*
X36620000Y-20596040D02*
X36620000Y-22500000D01*
X36624260Y-20591780D02*
X36620000Y-20596040D01*
X37525000Y-18453924D02*
X37505870Y-18473054D01*
X37525000Y-16950000D02*
X37525000Y-18453924D01*
X37505870Y-18473054D02*
X37505870Y-19941310D01*
X37505870Y-19941310D02*
X37505410Y-19941770D01*
X37505410Y-19941770D02*
X34317710Y-19941770D01*
X34080000Y-20179480D02*
X34080000Y-22500000D01*
X34317710Y-19941770D02*
X34080000Y-20179480D01*
X36875000Y-18184672D02*
X36855860Y-18203812D01*
X36875000Y-16950000D02*
X36875000Y-18184672D01*
X36855860Y-18203812D02*
X36855860Y-19286220D01*
X36855860Y-19286220D02*
X32125920Y-19286220D01*
X32125920Y-19286220D02*
X31539180Y-19872960D01*
X31539180Y-22499180D02*
X31540000Y-22500000D01*
X31539180Y-19872960D02*
X31539180Y-22499180D01*
X36225000Y-17915420D02*
X36205850Y-17934570D01*
X36225000Y-16950000D02*
X36225000Y-17915420D01*
X36205850Y-17934570D02*
X36205850Y-18444790D01*
X31474990Y-18444790D02*
X31471760Y-18448020D01*
X36205850Y-18444790D02*
X31474990Y-18444790D01*
X31471760Y-18448020D02*
X29083000Y-18448020D01*
X29000000Y-18531020D02*
X29000000Y-22500000D01*
X29083000Y-18448020D02*
X29000000Y-18531020D01*
X41425000Y-11050000D02*
X41425000Y-10304640D01*
X41425000Y-10304640D02*
X44729400Y-7000240D01*
X45859760Y-7000240D02*
X49020000Y-3840000D01*
X44729400Y-7000240D02*
X45859760Y-7000240D01*
X40125000Y-11050000D02*
X40125000Y-9138300D01*
X40125000Y-9138300D02*
X43281600Y-5981700D01*
X44338300Y-5981700D02*
X46480000Y-3840000D01*
X43281600Y-5981700D02*
X44338300Y-5981700D01*
X42341800Y-5438200D02*
X43940000Y-3840000D01*
X42341800Y-5501640D02*
X42341800Y-5438200D01*
X39475000Y-11050000D02*
X39475000Y-8368440D01*
X39475000Y-8368440D02*
X42341800Y-5501640D01*
X38825000Y-11050000D02*
X38825000Y-7537620D01*
X38825000Y-7537620D02*
X38865640Y-7537620D01*
X41400000Y-5003260D02*
X41400000Y-3840000D01*
X38865640Y-7537620D02*
X41400000Y-5003260D01*
X38175000Y-4525000D02*
X38860000Y-3840000D01*
X38175000Y-11050000D02*
X38175000Y-4525000D01*
X37525000Y-11050000D02*
X37525000Y-8254040D01*
X37525000Y-8254040D02*
X36329620Y-7058660D01*
X36329620Y-3849620D02*
X36320000Y-3840000D01*
X36329620Y-7058660D02*
X36329620Y-3849620D01*
X36875000Y-11050000D02*
X36875000Y-8622580D01*
X33780000Y-5527580D02*
X33780000Y-3840000D01*
X36875000Y-8622580D02*
X33780000Y-5527580D01*
X36225000Y-11050000D02*
X36225000Y-9057160D01*
X36225000Y-9057160D02*
X32811720Y-5643880D01*
X32811720Y-5643880D02*
X31257240Y-5643880D01*
X31240000Y-5626640D02*
X31240000Y-3840000D01*
X31257240Y-5643880D02*
X31240000Y-5626640D01*
D24*
X-29500000Y-2090000D02*
X-29500000Y450000D01*
X-37630000Y-2090000D02*
X-37650000Y-2110000D01*
X-29500000Y-2090000D02*
X-37630000Y-2090000D01*
X-29500000Y450000D02*
X-31150000Y-1200000D01*
X-31150000Y-1200000D02*
X-37500000Y-1200000D01*
X-37500000Y-1960000D02*
X-37650000Y-2110000D01*
X-37500000Y-1200000D02*
X-37500000Y-1960000D01*
D27*
X35575000Y-11050000D02*
X35575000Y-11917920D01*
X35272980Y-12219940D02*
X32222440Y-12219940D01*
X35575000Y-11917920D02*
X35272980Y-12219940D01*
D28*
X62950000Y-20690000D02*
X54832680Y-20690000D01*
X54832680Y-20690000D02*
X54670960Y-20851720D01*
X54670960Y-20851720D02*
X54670960Y-33418780D01*
X54670960Y-33418780D02*
X46288960Y-41800780D01*
X46288960Y-44808960D02*
X46480000Y-45000000D01*
X46288960Y-41800780D02*
X46288960Y-44808960D01*
X62950000Y-21960000D02*
X55984980Y-21960000D01*
X55984980Y-21960000D02*
X55719980Y-22225000D01*
X55719980Y-22225000D02*
X55719980Y-35140900D01*
X49020000Y-41840880D02*
X49020000Y-45000000D01*
X55719980Y-35140900D02*
X49020000Y-41840880D01*
X62950000Y-28310000D02*
X61484080Y-28310000D01*
X61484080Y-28310000D02*
X61287660Y-28506420D01*
X61287660Y-33261300D02*
X61216540Y-33332420D01*
X61287660Y-28506420D02*
X61287660Y-33261300D01*
X61216540Y-33332420D02*
X61216540Y-40319960D01*
X61216540Y-40319960D02*
X61793120Y-40896540D01*
X61793120Y-40896540D02*
X68752720Y-40896540D01*
X68752720Y-40896540D02*
X69115940Y-41259760D01*
X69115940Y-41259760D02*
X69115940Y-49710340D01*
X69115940Y-49710340D02*
X68859400Y-49966880D01*
X68859400Y-49966880D02*
X61851540Y-49966880D01*
X61720000Y-49835340D02*
X61720000Y-47540000D01*
X61851540Y-49966880D02*
X61720000Y-49835340D01*
X62275744Y-27040000D02*
X62267284Y-27048460D01*
X62950000Y-27040000D02*
X62275744Y-27040000D01*
X62267284Y-27048460D02*
X60322460Y-27048460D01*
X60322460Y-27048460D02*
X60342780Y-27068780D01*
X60342780Y-27068780D02*
X60342780Y-41267380D01*
X60342780Y-41267380D02*
X61038740Y-41963340D01*
X61038740Y-41963340D02*
X67665600Y-41963340D01*
X67665600Y-41963340D02*
X67800220Y-42097960D01*
X67800220Y-42097960D02*
X67800220Y-47431960D01*
X67692180Y-47540000D02*
X64260000Y-47540000D01*
X67800220Y-47431960D02*
X67692180Y-47540000D01*
D24*
X77440000Y-38150000D02*
X79402140Y-38150000D01*
X80182140Y-38930000D02*
X84100000Y-38930000D01*
X79402140Y-38150000D02*
X80182140Y-38930000D01*
D29*
X59180000Y-47540000D02*
X59180000Y-50559240D01*
X59180000Y-50559240D02*
X60071000Y-51450240D01*
X60071000Y-51450240D02*
X69794120Y-51450240D01*
X77440000Y-43804360D02*
X77440000Y-38150000D01*
X69794120Y-51450240D02*
X77440000Y-43804360D01*
X56640000Y-47540000D02*
X56640000Y-53062600D01*
X56640000Y-53062600D02*
X64942180Y-53062600D01*
X66776600Y-54897020D02*
X74932540Y-54897020D01*
X64942180Y-53062600D02*
X66776600Y-54897020D01*
X84117020Y-54897020D02*
X84150000Y-54930000D01*
X74932540Y-54897020D02*
X84117020Y-54897020D01*
D24*
X51650900Y-25041860D02*
X51648360Y-25044400D01*
X51650900Y-16992600D02*
X51650900Y-25041860D01*
X46784400Y-25044400D02*
X46780000Y-25040000D01*
X51648360Y-25044400D02*
X46784400Y-25044400D01*
X46780000Y-25040000D02*
X44240000Y-25040000D01*
X29000000Y-25040000D02*
X31540000Y-25040000D01*
X31540000Y-25040000D02*
X34080000Y-25040000D01*
X34080000Y-25040000D02*
X36620000Y-25040000D01*
X36620000Y-25040000D02*
X39160000Y-25040000D01*
X39160000Y-25040000D02*
X41700000Y-25040000D01*
X41700000Y-25040000D02*
X44240000Y-25040000D01*
D27*
X45803820Y-16992600D02*
X51650900Y-16992600D01*
X44611219Y-15799999D02*
X45803820Y-16992600D01*
X40857241Y-15799999D02*
X44611219Y-15799999D01*
X40775000Y-16950000D02*
X40775000Y-15882240D01*
X40775000Y-15882240D02*
X40857241Y-15799999D01*
D24*
X-1513840Y-15872460D02*
X22829520Y-15872460D01*
X22850000Y-15851980D02*
X22850000Y-12650000D01*
X22829520Y-15872460D02*
X22850000Y-15851980D01*
X29000000Y-25040000D02*
X22893700Y-25040000D01*
X22829520Y-24975820D02*
X22829520Y-15872460D01*
X22893700Y-25040000D02*
X22829520Y-24975820D01*
D28*
X72250000Y-28310000D02*
X86940000Y-28310000D01*
X86940000Y-28310000D02*
X86950000Y-28320000D01*
X86950000Y-28320000D02*
X86950000Y-33600000D01*
X92630000Y-33600000D02*
X92650000Y-33620000D01*
X86950000Y-33600000D02*
X92630000Y-33600000D01*
X72250000Y-27040000D02*
X87990000Y-27040000D01*
X87990000Y-27040000D02*
X88200000Y-27250000D01*
X88200000Y-27250000D02*
X88200000Y-31100000D01*
X92630000Y-31100000D02*
X92650000Y-31080000D01*
X88200000Y-31100000D02*
X92630000Y-31100000D01*
X72250000Y-25770000D02*
X89170000Y-25770000D01*
X89170000Y-25770000D02*
X89200000Y-25800000D01*
X89200000Y-25800000D02*
X89200000Y-28500000D01*
X92610000Y-28500000D02*
X92650000Y-28540000D01*
X89200000Y-28500000D02*
X92610000Y-28500000D01*
X72250000Y-24500000D02*
X90150000Y-24500000D01*
X91650000Y-26000000D02*
X92650000Y-26000000D01*
X90150000Y-24500000D02*
X91650000Y-26000000D01*
X92420000Y-23230000D02*
X92650000Y-23460000D01*
X83930000Y-23230000D02*
X83960000Y-23200000D01*
X72250000Y-23230000D02*
X83930000Y-23230000D01*
X92390000Y-23200000D02*
X92650000Y-23460000D01*
X83960000Y-23200000D02*
X92390000Y-23200000D01*
X72250000Y-21960000D02*
X89040000Y-21960000D01*
X90080000Y-20920000D02*
X92650000Y-20920000D01*
X89040000Y-21960000D02*
X90080000Y-20920000D01*
X72250000Y-19420000D02*
X87330000Y-19420000D01*
X87330000Y-19420000D02*
X90450000Y-16300000D01*
X92190000Y-16300000D02*
X92650000Y-15840000D01*
X90450000Y-16300000D02*
X92190000Y-16300000D01*
X17770000Y-8234520D02*
X17770000Y-12650000D01*
X18686780Y-7317740D02*
X17770000Y-8234520D01*
X25814020Y-7317740D02*
X18686780Y-7317740D01*
X26160000Y-3840000D02*
X26160000Y-6971760D01*
X26160000Y-6971760D02*
X25814020Y-7317740D01*
X15230000Y-8432640D02*
X15230000Y-12650000D01*
X23620000Y-3840000D02*
X23620000Y-6421660D01*
X23620000Y-6421660D02*
X23614380Y-6416040D01*
X23614380Y-6416040D02*
X16672560Y-6416040D01*
X15230000Y-7858600D02*
X15230000Y-8432640D01*
X16672560Y-6416040D02*
X15230000Y-7858600D01*
X21080000Y-3840000D02*
X21080000Y-5351240D01*
X20815210Y-5616030D02*
X12844690Y-5616030D01*
X21080000Y-5351240D02*
X20815210Y-5616030D01*
X12690000Y-5770720D02*
X12690000Y-12650000D01*
X12844690Y-5616030D02*
X12690000Y-5770720D01*
X10150000Y-12650000D02*
X10150000Y-4272120D01*
X13122120Y-1300000D02*
X16000000Y-1300000D01*
X10150000Y-4272120D02*
X13122120Y-1300000D01*
X7610000Y-12650000D02*
X7610000Y-4112100D01*
X7610000Y-4112100D02*
X13040360Y1318260D01*
X13040360Y1318260D02*
X18496280Y1318260D01*
X18540000Y1274540D02*
X18540000Y-1300000D01*
X18496280Y1318260D02*
X18540000Y1274540D01*
X2532380Y-9047480D02*
X1579880Y-9047480D01*
X1579880Y-9047480D02*
X378460Y-7846060D01*
X378460Y-7846060D02*
X378460Y-3627120D01*
X378460Y-3627120D02*
X7282180Y3276600D01*
X7282180Y3276600D02*
X23594060Y3276600D01*
X23620000Y3250660D02*
X23620000Y-1300000D01*
X23594060Y3276600D02*
X23620000Y3250660D01*
X21080000Y-1300000D02*
X21080000Y2110200D01*
X21080000Y2110200D02*
X20873720Y2316480D01*
X20873720Y2316480D02*
X11912600Y2316480D01*
X11912600Y2316480D02*
X6629400Y-2966720D01*
X6629400Y-2966720D02*
X6629400Y-8768080D01*
X6360160Y-9037320D02*
X5067300Y-9037320D01*
X6629400Y-8768080D02*
X6360160Y-9037320D01*
X62950000Y-23230000D02*
X56838420Y-23230000D01*
X56838420Y-23230000D02*
X56838420Y-36740260D01*
X56838420Y-36740260D02*
X54048660Y-39530020D01*
X54048660Y-44948660D02*
X54100000Y-45000000D01*
X54048660Y-39530020D02*
X54048660Y-44948660D01*
X62950000Y-24500000D02*
X58154140Y-24500000D01*
X58154140Y-24500000D02*
X58183780Y-24529640D01*
X58183780Y-24529640D02*
X58183780Y-38257480D01*
X56640000Y-39801260D02*
X56640000Y-45000000D01*
X58183780Y-38257480D02*
X56640000Y-39801260D01*
X62950000Y-25770000D02*
X62275744Y-25770000D01*
X62950000Y-25770000D02*
X59482560Y-25770000D01*
X59180000Y-26072560D02*
X59180000Y-45000000D01*
X59482560Y-25770000D02*
X59180000Y-26072560D01*
D24*
X75000000Y5800000D02*
X75000000Y-10200000D01*
D27*
X40775000Y-11050000D02*
X40775000Y-12545440D01*
X40775000Y-12545440D02*
X40789860Y-12560300D01*
X44839700Y-12560300D02*
X45400000Y-12000000D01*
X40789860Y-12560300D02*
X44839700Y-12560300D01*
D28*
X72250000Y-29580000D02*
X71575744Y-29580000D01*
X71575744Y-29580000D02*
X71559664Y-29596080D01*
X68950200Y-10200000D02*
X75000000Y-10200000D01*
X68943220Y-10193020D02*
X68950200Y-10200000D01*
D24*
X51560000Y-5840000D02*
X45400000Y-12000000D01*
X51560000Y-3840000D02*
X51560000Y-5840000D01*
X51560000Y-3840000D02*
X51560000Y-8753380D01*
X67744340Y-10678160D02*
X68222500Y-10200000D01*
X68222500Y-10200000D02*
X75000000Y-10200000D01*
D28*
X68397960Y-29580000D02*
X67744340Y-30233620D01*
X72250000Y-29580000D02*
X68397960Y-29580000D01*
D24*
X67744340Y-32979360D02*
X67744340Y-30233620D01*
X67744340Y-30233620D02*
X67744340Y-10678160D01*
X51560000Y-8753380D02*
X53006620Y-10200000D01*
X53006620Y-10200000D02*
X68222500Y-10200000D01*
M02*
