M48
; DRILL file {KiCad (5.1.4-0-10_14)} date Friday, December 13, 2019 at 04:51:39 AM
; FORMAT={-:-/ absolute / inch / decimal}
; #@! TF.CreationDate,2019-12-13T04:51:39-05:00
; #@! TF.GenerationSoftware,Kicad,Pcbnew,(5.1.4-0-10_14)
FMAT,2
INCH
T1C0.0157
T2C0.0276
T3C0.0315
T4C0.0394
T5C0.0512
T6C0.0787
T7C0.1063
T8C0.1752
T9C0.1181
T10C0.1693
%
G90
G05
T1
X0.0654Y0.5354
X0.0929Y-0.5035
X0.0957Y-0.8843
X0.1402Y-0.4717
X0.1406Y-0.8343
X0.1894Y-0.4209
X0.1898Y-0.7898
X0.2425Y-0.513
X0.2429Y-0.8949
X0.2902Y-0.7835
X0.2917Y-0.4362
X0.5492Y0.2752
X1.3661Y0.5421
T2
X-1.7941Y-0.6476
X-1.6941Y-0.6476
X2.7165Y-0.4016
X2.8165Y-0.4016
X2.7139Y-2.0613
X2.7139Y-2.1613
X2.7126Y-1.502
X2.8126Y-1.502
X2.7165Y0.2283
X2.8165Y0.2283
X1.2686Y-0.4811
X1.2686Y-0.5811
X-1.7929Y-0.5413
X-1.6929Y-0.5413
T3
X-0.2323Y-0.5265
X-0.2392Y-1.3352
X-0.2392Y-1.4336
X-0.0552Y-2.0471
X-0.0552Y-2.1455
X-0.2323Y0.2441
X-0.2323Y0.1457
X-1.5362Y-0.5469
X-1.5362Y-0.6453
X-0.2382Y-2.0483
X-0.2382Y-2.1467
X2.0334Y-0.986
X2.0334Y-1.0844
X-0.0563Y0.2433
X-0.0563Y0.1449
X2.0335Y-0.5706
X2.0335Y-0.669
X-0.0596Y-0.5265
X-0.0596Y-0.6249
X1.7874Y-0.4724
X1.7874Y-0.5709
X-0.0669Y-1.3352
X-0.0669Y-1.4336
X-0.2323Y-0.6249
T4
X1.1417Y-0.8858
X1.1417Y-0.9858
X1.1417Y-1.0858
X1.1417Y-1.2118
X1.2402Y-1.2118
X1.2417Y-0.8858
X1.2417Y-0.9858
X1.2417Y-1.0858
X1.3386Y-1.2118
X1.3417Y-0.8858
X1.3417Y-0.9858
X1.3417Y-1.0858
X1.4417Y-0.8858
X1.4417Y-0.9858
X1.4417Y-1.0858
X1.5417Y-0.8858
X1.5417Y-0.9858
X1.5417Y-1.0858
X1.6417Y-0.8858
X1.6417Y-0.9858
X1.6417Y-1.0858
X1.6417Y-1.2118
X1.7417Y-0.8858
X1.7417Y-0.9858
X1.7417Y-1.0858
X1.7417Y-1.2118
X1.8417Y-0.8858
X1.8417Y-0.9858
X1.8417Y-1.0858
X1.8417Y-1.2118
X1.1339Y-1.5992
X1.2339Y-1.5992
X1.3339Y-1.5992
X1.4339Y-1.5992
X-0.4331Y-2.2677
X1.5339Y-1.5992
X1.6339Y-1.5992
X0.1446Y-1.4913
X0.1446Y-1.5913
X-1.1811Y-1.8346
X-1.1811Y-1.9346
X-1.1811Y-2.2677
X-1.1811Y-2.3677
X-0.4331Y-1.8346
X-0.4331Y-1.9346
X-0.4331Y-2.3677
X1.8307Y0.2559
X1.9307Y0.2559
X2.0307Y0.2559
X2.1307Y0.2559
X2.2307Y0.2559
X2.3307Y0.2559
X-1.4472Y-1.8992
X-1.4472Y-2.3717
X0.5665Y0.085
X0.6665Y0.085
X0.7665Y0.085
X0.8665Y0.085
X0.9665Y0.085
X1.0665Y0.085
X-0.4331Y-1.6236
X-1.1811Y-1.0906
X-1.1811Y-1.1906
X-1.1811Y-1.5236
X-1.1811Y-1.6236
X-0.4331Y-1.0906
X-0.4331Y-1.1906
X-0.4331Y-1.5236
X1.1665Y0.085
X1.2665Y0.085
X1.3665Y0.085
X1.4665Y0.085
X1.2421Y-1.3839
X-1.1811Y-0.3407
X-1.1811Y-0.4407
X-1.1811Y-0.7738
X-1.1811Y-0.8738
X-0.4331Y-0.3407
X-0.4331Y-0.4407
X-0.4331Y-0.7738
X-0.4331Y-0.8738
X0.6299Y-0.0512
X0.6299Y-0.1512
X0.7299Y-0.0512
X0.7299Y-0.1512
X0.8299Y-0.0512
X0.8299Y-0.1512
X0.9299Y-0.0512
X0.9299Y-0.1512
X1.0299Y-0.0512
X1.0299Y-0.1512
X1.1299Y-0.0512
X1.1299Y-0.1512
X1.2299Y-0.0512
X1.2299Y-0.1512
X1.3299Y-0.0512
X1.3299Y-0.1512
X1.4299Y-0.0512
X1.4299Y-0.1512
X1.5299Y-0.0512
X1.5299Y-0.1512
X1.6299Y-0.0512
X1.6299Y-0.1512
X1.7299Y-0.0512
X1.7299Y-0.1512
X1.8299Y-0.0512
X1.8299Y-0.1512
X1.9299Y-0.0512
X1.9299Y-0.1512
X2.0299Y-0.0512
X2.0299Y-0.1512
X1.3421Y-1.3839
X1.4421Y-1.3839
X1.5421Y-1.3839
X1.6421Y-1.3839
X1.7421Y-1.3839
X0.6354Y-1.7665
X0.6354Y-1.8665
X0.7354Y-1.7665
X0.7354Y-1.8665
X0.8354Y-1.7665
X0.8354Y-1.8665
X0.9354Y-1.7665
X0.9354Y-1.8665
X1.0354Y-1.7665
X1.0354Y-1.8665
X1.1354Y-1.7665
X1.1354Y-1.8665
X1.2354Y-1.7665
X1.2354Y-1.8665
X1.3354Y-1.7665
X1.3354Y-1.8665
X1.4354Y-1.7665
X1.4354Y-1.8665
X1.5354Y-1.7665
X1.5354Y-1.8665
X1.6354Y-1.7665
X1.6354Y-1.8665
X1.7354Y-1.7665
X1.7354Y-1.8665
X1.8354Y-1.7665
X1.8354Y-1.8665
X1.9354Y-1.7665
X1.9354Y-1.8665
X2.0354Y-1.7665
X2.0354Y-1.8665
X2.1354Y-1.7665
X2.1354Y-1.8665
X2.2354Y-1.7665
X2.2354Y-1.8665
X2.3354Y-1.7665
X2.3354Y-1.8665
X2.4354Y-1.7665
X2.4354Y-1.8665
X2.5354Y-1.7665
X2.5354Y-1.8665
X2.1299Y-0.0512
X2.1299Y-0.1512
X2.2299Y-0.0512
X2.2299Y-0.1512
X2.3299Y-0.0512
X2.3299Y-0.1512
X2.4299Y-0.0512
X2.4299Y-0.1512
X2.5299Y-0.0512
X2.5299Y-0.1512
X-1.1811Y0.4232
X-1.1811Y0.3232
X-1.1811Y-0.0098
X-1.1811Y-0.1098
X-0.4331Y0.4232
X-0.4331Y0.3232
X-0.4331Y-0.0098
X-0.4331Y-0.1098
T5
X-2.2047Y0.3488
X-2.2047Y0.1488
X-2.2047Y-0.0512
X0.6661Y-2.2126
X0.8661Y-2.2126
X1.0661Y-2.2126
X1.3106Y-2.2106
X1.5106Y-2.2106
X1.7106Y-2.2106
X3.0768Y-1.9626
X3.0768Y-2.1626
X3.0768Y-2.3626
X3.0846Y-0.2008
X3.0748Y-1.5327
X3.0748Y-1.7327
X3.0846Y-0.4008
X3.0846Y-0.6008
X3.0748Y-1.3327
X-2.2047Y-0.3512
X-2.2047Y-0.5512
X-2.2047Y-0.7512
X1.9602Y-2.2047
X2.1602Y-2.2047
X2.3602Y-2.2047
X3.0827Y0.4291
X3.0827Y0.2291
X3.0827Y0.0291
T6
X-2.0902Y-1.0642
X-2.0902Y-1.576
T7
X-1.8736Y-1.1823
X-1.8736Y-1.4579
T8
X-1.535Y-1.2232
X-1.535Y-1.4988
T9
X-2.1126Y-1.8992
X-2.1126Y-2.3717
T10
X0.5496Y-0.8114
X3.0394Y-0.9764
X2.3465Y-1.4646
X-1.7283Y-2.0787
X0.3048Y-1.8033
X-1.6771Y0.3699
X2.539Y0.1602
T9
G00X-2.0693Y-2.2339
M15
G01X-2.0693Y-2.037
M16
G05
T0
M30
