M48
; DRILL file {KiCad (5.1.4-0-10_14)} date Monday, October 14, 2019 at 01:11:28 PM
; FORMAT={-:-/ absolute / inch / decimal}
; #@! TF.CreationDate,2019-10-14T13:11:28-04:00
; #@! TF.GenerationSoftware,Kicad,Pcbnew,(5.1.4-0-10_14)
FMAT,2
INCH
T1C0.0276
T2C0.0315
T3C0.0394
T4C0.0512
T5C0.0787
T6C0.1063
T7C0.1693
%
G90
G05
T1
X2.9488Y-1.502
X3.0488Y-1.502
X2.9501Y-2.0613
X2.9501Y-2.1613
X0.0997Y-0.2562
X0.0997Y-0.3562
X0.1995Y-0.2558
X0.1995Y-0.3558
X2.9528Y0.2283
X3.0528Y0.2283
X1.2686Y-0.4811
X1.2686Y-0.5811
X2.9528Y-0.4016
X3.0528Y-0.4016
T2
X1.7874Y-0.4724
X1.7874Y-0.5709
X2.0335Y-0.5706
X2.0335Y-0.669
X-0.0596Y-0.6249
X-0.0118Y0.1457
X2.0334Y-0.986
X2.0334Y-1.0844
X-0.0118Y0.2441
X-0.2392Y-1.3352
X-0.2392Y-1.4336
X-0.2323Y-0.5265
X-0.2323Y-0.6249
X-0.2382Y-2.0483
X-0.2382Y-2.1467
X2.6671Y-1.2984
X0.8012Y-0.3543
X2.5687Y-1.2984
X0.8996Y-0.3543
X-0.0552Y-2.0471
X-0.0552Y-2.1455
X-0.0669Y-1.3352
X-0.0669Y-1.4336
X-0.2323Y0.2441
X-0.2323Y0.1457
X-0.0596Y-0.5265
T3
X-1.1811Y-0.3407
X-1.1811Y-0.4407
X-1.1811Y-0.7738
X-1.1811Y-0.8738
X-0.4331Y-0.3407
X-0.4331Y-0.4407
X-0.4331Y-0.7738
X-0.4331Y-0.8738
X0.5754Y-1.6345
X0.6754Y-1.6345
X0.7754Y-1.6345
X0.8754Y-1.6345
X0.9754Y-1.6345
X-1.1811Y-1.8346
X-1.1811Y-1.9346
X-1.1811Y-2.2677
X-1.1811Y-2.3677
X-0.4331Y-1.8346
X-0.4331Y-1.9346
X-0.4331Y-2.2677
X-0.4331Y-2.3677
X-1.1811Y-1.0906
X-1.1811Y-1.1906
X-1.1811Y-1.5236
X-1.1811Y-1.6236
X-0.4331Y-1.0906
X-0.4331Y-1.1906
X-0.4331Y-1.5236
X-0.4331Y-1.6236
X3.6476Y-0.5236
X3.6476Y-0.6236
X3.6476Y-0.7236
X3.6476Y-0.8236
X3.6476Y-0.9236
X3.6476Y-1.0236
X3.6476Y-1.1236
X3.6476Y-1.2236
X3.6476Y-1.3236
X3.6476Y-1.4236
X1.1291Y0.2559
X1.2291Y0.2559
X1.3291Y0.2559
X1.4291Y0.2559
X1.5291Y0.2559
X1.6291Y0.2559
X-1.4823Y-0.0831
X-1.4823Y-0.1831
X1.2421Y-1.3839
X0.0659Y-1.452
X0.0659Y-1.552
X0.6299Y-0.0512
X0.6299Y-0.1512
X0.7299Y-0.0512
X0.7299Y-0.1512
X0.8299Y-0.0512
X0.8299Y-0.1512
X0.9299Y-0.0512
X0.9299Y-0.1512
X1.0299Y-0.0512
X1.0299Y-0.1512
X1.1299Y-0.0512
X1.1299Y-0.1512
X1.2299Y-0.0512
X1.2299Y-0.1512
X1.3299Y-0.0512
X1.3299Y-0.1512
X1.4299Y-0.0512
X1.4299Y-0.1512
X1.5299Y-0.0512
X1.5299Y-0.1512
X1.6299Y-0.0512
X1.6299Y-0.1512
X1.7299Y-0.0512
X1.7299Y-0.1512
X1.8299Y-0.0512
X1.8299Y-0.1512
X1.9299Y-0.0512
X1.9299Y-0.1512
X2.0299Y-0.0512
X2.0299Y-0.1512
X2.1299Y-0.0512
X2.1299Y-0.1512
X2.2299Y-0.0512
X2.2299Y-0.1512
X2.3299Y-0.0512
X2.3299Y-0.1512
X2.4299Y-0.0512
X2.4299Y-0.1512
X2.5299Y-0.0512
X2.5299Y-0.1512
X-1.4449Y-1.8248
X1.5421Y-1.3839
X-1.4449Y-2.3248
X1.3421Y-1.3839
X1.4421Y-1.3839
X1.6421Y-1.3839
X1.7421Y-1.3839
X1.1103Y-1.5992
X1.2103Y-1.5992
X1.3103Y-1.5992
X1.4103Y-1.5992
X1.5103Y-1.5992
X1.6103Y-1.5992
X0.0996Y-0.498
X0.1996Y-0.498
X0.2996Y-0.498
X1.1417Y-1.0858
X1.1417Y-0.8858
X1.1417Y-0.9858
X1.1417Y-1.2118
X1.2402Y-1.2118
X1.2417Y-0.8858
X1.2417Y-0.9858
X1.2417Y-1.0858
X1.3386Y-1.2118
X1.3417Y-0.8858
X1.3417Y-0.9858
X1.3417Y-1.0858
X1.4417Y-0.8858
X1.4417Y-0.9858
X1.4417Y-1.0858
X1.5417Y-0.8858
X1.5417Y-0.9858
X1.5417Y-1.0858
X1.6417Y-0.8858
X1.6417Y-0.9858
X1.6417Y-1.0858
X1.6417Y-1.2118
X1.7417Y-0.8858
X1.7417Y-0.9858
X1.7417Y-1.0858
X1.7417Y-1.2118
X1.8417Y-0.8858
X1.8417Y-0.9858
X1.8417Y-1.0858
X1.8417Y-1.2118
X0.6118Y-1.7665
X0.6118Y-1.8665
X0.7118Y-1.7665
X0.7118Y-1.8665
X0.8118Y-1.7665
X0.8118Y-1.8665
X0.9118Y-1.7665
X0.9118Y-1.8665
X1.0118Y-1.7665
X1.0118Y-1.8665
X1.1118Y-1.7665
X1.1118Y-1.8665
X1.2118Y-1.7665
X1.2118Y-1.8665
X1.3118Y-1.7665
X1.3118Y-1.8665
X1.4118Y-1.7665
X1.4118Y-1.8665
X1.5118Y-1.7665
X1.5118Y-1.8665
X0.3996Y-0.498
X0.4996Y-0.498
X0.4996Y-1.498
X0.5996Y-0.498
X0.5996Y-1.498
X0.6996Y-0.498
X0.6996Y-1.498
X0.7996Y-0.498
X0.7996Y-1.498
X1.8118Y-1.7665
X0.8996Y-0.498
X0.8996Y-1.498
X-1.1811Y0.4232
X-1.1811Y0.3232
X-1.1811Y-0.0098
X-1.1811Y-0.1098
X-0.4331Y0.4232
X1.9307Y0.2559
X1.6118Y-1.7665
X1.6118Y-1.8665
X1.7118Y-1.7665
X1.7118Y-1.8665
X1.8118Y-1.8665
X1.9118Y-1.7665
X1.9118Y-1.8665
X2.0118Y-1.7665
X2.0118Y-1.8665
X2.1118Y-1.7665
X2.1118Y-1.8665
X2.2118Y-1.7665
X2.2118Y-1.8665
X2.3118Y-1.7665
X2.3118Y-1.8665
X2.4118Y-1.7665
X2.4118Y-1.8665
X2.5118Y-1.7665
X2.5118Y-1.8665
X1.8307Y0.2559
X-0.4331Y0.3232
X2.0307Y0.2559
X2.2307Y0.2559
X-0.4331Y-0.0098
X-0.4331Y-0.1098
X2.1307Y0.2559
X2.3307Y0.2559
T4
X3.313Y-1.9626
X3.313Y-2.1626
X3.313Y-2.3626
X3.3189Y0.4291
X-2.2047Y-0.3512
X3.3189Y0.2291
X3.3189Y0.0291
X-2.2047Y0.3488
X-2.2047Y0.1488
X-2.2047Y-0.0512
X1.9602Y-2.2047
X2.1602Y-2.2047
X2.3602Y-2.2047
X0.6335Y-2.2146
X0.8335Y-2.2146
X1.0335Y-2.2146
X-2.2047Y-0.5512
X-2.2047Y-0.7512
X3.311Y-1.3327
X3.311Y-1.5327
X3.311Y-1.7327
X3.3209Y-0.2008
X3.3209Y-0.4008
X3.3209Y-0.6008
X1.3106Y-2.2106
X1.5106Y-2.2106
X1.7106Y-2.2106
T5
X-2.0906Y-1.0531
X-2.0906Y-1.565
T6
X-1.874Y-1.1713
X-1.874Y-1.4469
T7
X2.7312Y0.2193
X2.7739Y-1.4761
X-1.6771Y0.3699
X0.3048Y-1.8033
X-2.0906Y-2.0866
X0.8386Y0.2756
T0
M30
